<?xml version="1.0" encoding="utf-8"?>
<!-- Generator: $$$/GeneralStr/196=Adobe Illustrator 27.6.0, SVG Export Plug-In . SVG Version: 6.00 Build 0)  -->
<svg version="1.1" id="Calque_1" xmlns="http://www.w3.org/2000/svg" xmlns:xlink="http://www.w3.org/1999/xlink" x="0px" y="0px"
	 viewBox="0 0 227.67 64.4" style="enable-background:new 0 0 227.67 64.4;" xml:space="preserve">
<style type="text/css">
	.st0{fill:none;}
	.st1{fill:none;stroke:#1D1D1B;stroke-width:1.2;}
	.st2{display:none;opacity:0.27;}
	.st3{opacity:0.27;}
	.st4{display:inline;}
	
		.st5{display:inline;clip-path:url(#SVGID_00000182515889152943504340000004701128439063964853_);fill:url(#SVGID_00000127764531034659508520000017173739381370822300_);stroke:#717199;stroke-miterlimit:10;}
	.st6{display:none;}
	.st7{fill:none;stroke:#1D1D1B;stroke-width:0.5;stroke-miterlimit:10;}
	.st8{fill:none;stroke:#1D1D1B;stroke-width:0.5;stroke-miterlimit:10;stroke-dasharray:6.7624,6.7624;}
	.st9{fill:none;stroke:#AEAEAE;stroke-width:0.25;stroke-miterlimit:10;}
	.st10{fill:none;stroke:#AEAEAE;stroke-width:0.25;stroke-miterlimit:10;stroke-dasharray:10.5511,10.5511;}
	.st11{fill:none;stroke:#AEAEAE;stroke-width:0.25;stroke-miterlimit:10;stroke-dasharray:10.4753,10.4753;}
	.st12{fill:url(#SVGID_00000075841836417422966370000009782494499598054312_);}
	.st13{fill:url(#SVGID_00000017513331433482539200000008174156423132292488_);}
	.st14{fill:url(#SVGID_00000075853907502996718390000013026342374936762020_);}
	.st15{fill:url(#SVGID_00000104699142558949329640000013462672330775530424_);}
	.st16{fill:url(#SVGID_00000151544523799806947430000013449938457270438588_);}
	.st17{fill:url(#SVGID_00000091715660985496975350000004888429187604094907_);}
	.st18{fill:url(#SVGID_00000065781142256124362100000003056434160728136125_);}
	.st19{fill:#F76161;}
	.st20{opacity:0.4;fill:url(#SVGID_00000183217938903640785840000007616231670817867710_);}
	.st21{fill:#FFFFFF;}
	.st22{fill:url(#SVGID_00000093876759112147228720000010195391643310015899_);}
	.st23{fill:url(#SVGID_00000099630099966077842670000008637075396362055868_);}
	.st24{fill:url(#SVGID_00000114074820172023396680000003950826008117035947_);}
	.st25{fill:url(#SVGID_00000054959284114550993200000014225177398204431495_);}
	.st26{fill:url(#SVGID_00000005265222106577245140000001726009386598930325_);}
	.st27{fill:url(#SVGID_00000177477778366412378470000004968062594157998483_);}
	.st28{opacity:0.4;fill:url(#SVGID_00000151535125649433320620000002781579812685533371_);}
	.st29{fill:url(#SVGID_00000158002554673922993300000002691686527444867974_);}
	.st30{fill:url(#SVGID_00000171710625787870180410000010170286768602385792_);}
	.st31{fill:url(#SVGID_00000142145263656982268290000010146239300723609491_);}
	.st32{fill:url(#SVGID_00000144315928368559346560000008815226167574761654_);}
	.st33{fill:url(#SVGID_00000161600125906762794230000004149205644848364163_);}
	.st34{fill:url(#SVGID_00000043414736540142505270000014241532046976732040_);}
	.st35{fill:url(#SVGID_00000097487625237130185210000014849686760991150999_);}
	.st36{fill:url(#SVGID_00000089550264980378935010000018326463781167819188_);}
	.st37{fill:url(#SVGID_00000072999261667613269060000001152732664418238345_);}
	.st38{fill:url(#SVGID_00000046318592927077349450000017124790198703447961_);}
	.st39{fill:url(#SVGID_00000018938949519237645050000001461884610622924696_);}
	.st40{fill:url(#SVGID_00000034800652002295650070000012802062250080110487_);}
	.st41{fill:url(#SVGID_00000061432993839405947080000013487112176940995766_);}
	.st42{fill:url(#SVGID_00000170264698459138388660000005368282088443484863_);}
	.st43{fill:url(#SVGID_00000175282051908331894340000016547042270479512210_);}
	.st44{fill:url(#SVGID_00000139982757940179419550000013623201176492393607_);}
	.st45{fill:url(#SVGID_00000095313287779929324040000009125866505087427232_);}
	.st46{fill:url(#SVGID_00000093166487046598594460000005075181682419955844_);}
	.st47{fill:url(#SVGID_00000079460118828931173170000004695774859804690064_);}
</style>
<pattern  x="-478.74" y="-52.99" width="72" height="72" patternUnits="userSpaceOnUse" id="_x31_0_xA0__x25__6_lpp" viewBox="72.25 -72 72 72" style="overflow:visible;">
	<g>
		<rect x="72.25" y="-72" class="st0" width="72" height="72"/>
		<g>
			<line class="st1" x1="144" y1="-6" x2="216.5" y2="-6"/>
			<line class="st1" x1="144" y1="-30" x2="216.5" y2="-30"/>
			<line class="st1" x1="144" y1="-54" x2="216.5" y2="-54"/>
			<line class="st1" x1="144" y1="-18" x2="216.5" y2="-18"/>
			<line class="st1" x1="144" y1="-42" x2="216.5" y2="-42"/>
			<line class="st1" x1="144" y1="-66" x2="216.5" y2="-66"/>
		</g>
		<g>
			<line class="st1" x1="72" y1="-6" x2="144.5" y2="-6"/>
			<line class="st1" x1="72" y1="-30" x2="144.5" y2="-30"/>
			<line class="st1" x1="72" y1="-54" x2="144.5" y2="-54"/>
			<line class="st1" x1="72" y1="-18" x2="144.5" y2="-18"/>
			<line class="st1" x1="72" y1="-42" x2="144.5" y2="-42"/>
			<line class="st1" x1="72" y1="-66" x2="144.5" y2="-66"/>
		</g>
		<g>
			<line class="st1" x1="0" y1="-6" x2="72.5" y2="-6"/>
			<line class="st1" x1="0" y1="-30" x2="72.5" y2="-30"/>
			<line class="st1" x1="0" y1="-54" x2="72.5" y2="-54"/>
			<line class="st1" x1="0" y1="-18" x2="72.5" y2="-18"/>
			<line class="st1" x1="0" y1="-42" x2="72.5" y2="-42"/>
			<line class="st1" x1="0" y1="-66" x2="72.5" y2="-66"/>
		</g>
	</g>
</pattern>
<g>
	<g class="st2">
		<defs>
			<path id="SVGID_1_" class="st3" d="M-32.62-32.45V96.68h293.03V-32.45H-32.62z M228.55,64.53H-0.77V-0.11h229.32V64.53z"/>
		</defs>
		<clipPath id="SVGID_00000019647994069811449290000016989363050302694534_" class="st4">
			<use xlink:href="#SVGID_1_"  style="overflow:visible;"/>
		</clipPath>
		
			<pattern  id="SVGID_00000127035059040239645770000010413282755229769385_" xlink:href="#_x31_0_xA0__x25__6_lpp" patternTransform="matrix(0.4802 -0.4802 0.4802 0.4802 334.2533 -7517.0938)"  class="st3">
		</pattern>
		
			<polygon style="display:inline;clip-path:url(#SVGID_00000019647994069811449290000016989363050302694534_);fill:url(#SVGID_00000127035059040239645770000010413282755229769385_);stroke:#717199;stroke-miterlimit:10;" points="
			438.18,19.97 33.8,192.77 -267.23,64.13 137.14,-108.67 		"/>
		<use xlink:href="#SVGID_1_"  style="display:inline;overflow:visible;fill:none;stroke:#717199;stroke-miterlimit:10;"/>
	</g>
	<rect x="-65.25" y="27.96" class="st0" width="22.5" height="19.2"/>
	
		<text transform="matrix(1 0 0 1 -65.2512 35.6509)" style="display:none;fill:#AEAEAE; font-family:'Marianne-Bold'; font-size:10.2541px;">X</text>
	<g class="st6">
		<g class="st4">
			<polyline class="st7" points="260.55,-5.91 260.55,0.09 254.55,0.09 			"/>
			<line class="st8" x1="247.79" y1="0.09" x2="237.65" y2="0.09"/>
			<polyline class="st7" points="234.27,0.09 228.27,0.09 228.27,-5.91 			"/>
			<line class="st8" x1="228.27" y1="-12.67" x2="228.27" y2="-22.81"/>
			<polyline class="st7" points="228.27,-26.2 228.27,-32.2 234.27,-32.2 			"/>
			<line class="st8" x1="241.03" y1="-32.2" x2="251.17" y2="-32.2"/>
			<polyline class="st7" points="254.55,-32.2 260.55,-32.2 260.55,-26.2 			"/>
			<line class="st8" x1="260.55" y1="-19.43" x2="260.55" y2="-9.29"/>
		</g>
	</g>
	<g class="st6">
		<g class="st4">
			<polyline class="st9" points="36.17,58.34 36.17,64.34 30.17,64.34 			"/>
			<line class="st10" x1="19.62" y1="64.34" x2="-38.41" y2="64.34"/>
			<polyline class="st9" points="-43.69,64.34 -49.69,64.34 -49.69,58.34 			"/>
			<line class="st11" x1="-49.69" y1="47.86" x2="-49.69" y2="11.2"/>
			<polyline class="st9" points="-49.69,5.96 -49.69,-0.04 -43.69,-0.04 			"/>
			<line class="st10" x1="-33.14" y1="-0.04" x2="24.89" y2="-0.04"/>
			<polyline class="st9" points="30.17,-0.04 36.17,-0.04 36.17,5.96 			"/>
			<line class="st11" x1="36.17" y1="16.44" x2="36.17" y2="53.1"/>
		</g>
	</g>
	<g class="st6">
		<g class="st4">
			<polyline class="st7" points="-0.55,90.62 -0.55,96.62 -6.55,96.62 			"/>
			<line class="st8" x1="-13.31" y1="96.62" x2="-23.46" y2="96.62"/>
			<polyline class="st7" points="-26.84,96.62 -32.84,96.62 -32.84,90.62 			"/>
			<line class="st8" x1="-32.84" y1="83.86" x2="-32.84" y2="73.72"/>
			<polyline class="st7" points="-32.84,70.34 -32.84,64.34 -26.84,64.34 			"/>
			<line class="st8" x1="-20.08" y1="64.34" x2="-9.93" y2="64.34"/>
			<polyline class="st7" points="-6.55,64.34 -0.55,64.34 -0.55,70.34 			"/>
			<line class="st8" x1="-0.55" y1="77.1" x2="-0.55" y2="87.24"/>
		</g>
	</g>
	<g class="st6">
		<rect x="-60.44" y="77.25" style="display:inline;fill:none;" width="39.53" height="21.56"/>
		<text transform="matrix(1 0 0 1 -60.4444 83.1677)" class="st4" style="font-family:'Marianne-Regular'; font-size:7.8878px;">X / 2</text>
		<rect x="-26.86" y="107.04" style="display:inline;fill:none;" width="39.53" height="21.56"/>
		<text transform="matrix(1 0 0 1 -26.8617 112.9521)" class="st4" style="font-family:'Marianne-Regular'; font-size:7.8878px;">X / 2</text>
		<rect x="236.23" y="-49.74" style="display:inline;fill:none;" width="17.96" height="21.56"/>
		<text transform="matrix(1 0 0 1 236.229 -43.8259)" class="st4" style="font-family:'Marianne-Regular'; font-size:7.8878px;">X / 2</text>
		<rect x="270.34" y="-18.98" style="display:inline;fill:none;" width="39.53" height="21.56"/>
		<text transform="matrix(1 0 0 1 270.3433 -13.059)" class="st4" style="font-family:'Marianne-Regular'; font-size:7.8878px;">X / 2</text>
	</g>
	<g id="Mon_diag_artif_00000000182171807130915280000005467358025624318890_" class="st6">
		<g class="st4">
			<g>
				
					<linearGradient id="SVGID_00000083060537323888216130000002714101681273457547_" gradientUnits="userSpaceOnUse" x1="28.1784" y1="72.5986" x2="138.6812" y2="70.4851">
					<stop  offset="0.0514" style="stop-color:#7639F8"/>
					<stop  offset="1" style="stop-color:#0065CD"/>
				</linearGradient>
				<path style="fill:url(#SVGID_00000083060537323888216130000002714101681273457547_);" d="M31.79,62.46h2.89l0.5,13.19v6.57
					h-3.39V62.46z M33.18,62.46h3.04l5.71,15.24l5.7-15.24h3.04l-7.54,19.76h-2.42L33.18,62.46z M49.16,62.46h2.9v19.76h-3.41v-6.57
					L49.16,62.46z"/>
				
					<linearGradient id="SVGID_00000174593617153788135630000000223874733845837459_" gradientUnits="userSpaceOnUse" x1="28.2341" y1="75.5131" x2="138.7369" y2="73.3997">
					<stop  offset="0.0514" style="stop-color:#7639F8"/>
					<stop  offset="1" style="stop-color:#0065CD"/>
				</linearGradient>
				<path style="fill:url(#SVGID_00000174593617153788135630000000223874733845837459_);" d="M54.86,75.04v-0.31
					c0-1.06,0.15-2.04,0.46-2.95c0.31-0.91,0.75-1.7,1.34-2.37c0.58-0.67,1.3-1.2,2.14-1.57c0.85-0.38,1.8-0.56,2.87-0.56
					c1.08,0,2.04,0.19,2.88,0.56c0.85,0.38,1.56,0.9,2.15,1.57c0.59,0.67,1.04,1.47,1.34,2.37c0.31,0.91,0.46,1.89,0.46,2.95v0.31
					c0,1.06-0.15,2.04-0.46,2.94c-0.31,0.91-0.76,1.69-1.34,2.37c-0.59,0.67-1.3,1.2-2.14,1.57c-0.84,0.38-1.8,0.56-2.86,0.56
					c-1.08,0-2.04-0.19-2.88-0.56c-0.85-0.38-1.56-0.9-2.15-1.57c-0.59-0.67-1.04-1.46-1.34-2.37
					C55.02,77.08,54.86,76.09,54.86,75.04z M58.13,74.72v0.31c0,0.66,0.07,1.28,0.2,1.87c0.14,0.59,0.35,1.1,0.64,1.55
					c0.29,0.44,0.66,0.79,1.11,1.04c0.45,0.25,0.99,0.38,1.61,0.38c0.61,0,1.13-0.13,1.58-0.38c0.45-0.25,0.82-0.6,1.11-1.04
					s0.5-0.96,0.64-1.55c0.14-0.59,0.21-1.21,0.21-1.87v-0.31c0-0.65-0.07-1.27-0.21-1.85c-0.14-0.58-0.36-1.1-0.65-1.55
					c-0.29-0.45-0.66-0.81-1.11-1.07c-0.45-0.26-0.98-0.39-1.59-0.39s-1.15,0.13-1.59,0.39c-0.45,0.26-0.82,0.61-1.11,1.07
					c-0.29,0.45-0.5,0.97-0.64,1.55C58.2,73.46,58.13,74.07,58.13,74.72z"/>
				
					<linearGradient id="SVGID_00000050629926513177692590000018253466072957372848_" gradientUnits="userSpaceOnUse" x1="28.2385" y1="75.7417" x2="138.7413" y2="73.6282">
					<stop  offset="0.0514" style="stop-color:#7639F8"/>
					<stop  offset="1" style="stop-color:#0065CD"/>
				</linearGradient>
				<path style="fill:url(#SVGID_00000050629926513177692590000018253466072957372848_);" d="M74.22,70.67v11.55h-3.27V67.53h3.08
					L74.22,70.67z M73.64,74.33l-1.06-0.01c0.01-1.04,0.16-1.99,0.44-2.86c0.28-0.87,0.68-1.61,1.19-2.24
					c0.51-0.62,1.12-1.11,1.84-1.44c0.71-0.34,1.51-0.51,2.39-0.51c0.71,0,1.35,0.1,1.92,0.29c0.57,0.19,1.07,0.51,1.48,0.94
					c0.41,0.43,0.73,1,0.94,1.69c0.22,0.69,0.33,1.54,0.33,2.54v9.48h-3.28v-9.5c0-0.71-0.1-1.26-0.31-1.68
					c-0.2-0.41-0.5-0.71-0.88-0.88c-0.38-0.18-0.86-0.26-1.43-0.26c-0.56,0-1.06,0.12-1.51,0.35c-0.44,0.24-0.82,0.56-1.12,0.96
					c-0.3,0.41-0.54,0.88-0.7,1.41C73.72,73.15,73.64,73.72,73.64,74.33z"/>
				
					<linearGradient id="SVGID_00000121263874839556545960000000470976085731178674_" gradientUnits="userSpaceOnUse" x1="28.1957" y1="73.5066" x2="138.6985" y2="71.3932">
					<stop  offset="0.0514" style="stop-color:#7639F8"/>
					<stop  offset="1" style="stop-color:#0065CD"/>
				</linearGradient>
				<path style="fill:url(#SVGID_00000121263874839556545960000000470976085731178674_);" d="M89.9,62.46v19.76h-3.41V62.46H89.9z
					 M92.23,82.21h-4.22l0.03-2.7h4.19c1.22,0,2.25-0.27,3.07-0.8c0.83-0.53,1.45-1.3,1.87-2.29c0.42-0.99,0.63-2.18,0.63-3.55
					v-1.07c0-1.07-0.12-2.01-0.36-2.84c-0.24-0.82-0.59-1.52-1.06-2.08c-0.47-0.56-1.04-0.99-1.71-1.28
					c-0.67-0.29-1.45-0.43-2.33-0.43h-4.42v-2.71h4.42c1.31,0,2.51,0.22,3.6,0.66c1.09,0.44,2.02,1.07,2.82,1.89
					c0.79,0.82,1.4,1.81,1.82,2.96c0.43,1.15,0.64,2.43,0.64,3.85v1.05c0,1.42-0.21,2.7-0.64,3.85c-0.43,1.15-1.04,2.13-1.83,2.95
					c-0.8,0.82-1.74,1.45-2.84,1.89C94.82,81.99,93.59,82.21,92.23,82.21z"/>
				
					<linearGradient id="SVGID_00000034796141508537402600000010466629953155826335_" gradientUnits="userSpaceOnUse" x1="28.1971" y1="73.5793" x2="138.6999" y2="71.4659">
					<stop  offset="0.0514" style="stop-color:#7639F8"/>
					<stop  offset="1" style="stop-color:#0065CD"/>
				</linearGradient>
				<path style="fill:url(#SVGID_00000034796141508537402600000010466629953155826335_);" d="M104.03,63.68
					c0-0.5,0.16-0.91,0.5-1.24c0.33-0.33,0.79-0.5,1.38-0.5c0.58,0,1.04,0.17,1.37,0.5c0.33,0.33,0.5,0.74,0.5,1.24
					c0,0.49-0.17,0.89-0.5,1.22c-0.33,0.33-0.79,0.49-1.37,0.49c-0.59,0-1.05-0.16-1.38-0.49C104.2,64.57,104.03,64.17,104.03,63.68
					z M107.53,67.53v14.68h-3.28V67.53H107.53z"/>
				
					<linearGradient id="SVGID_00000138566513518044307900000000490897591197077675_" gradientUnits="userSpaceOnUse" x1="28.254" y1="76.551" x2="138.7567" y2="74.4375">
					<stop  offset="0.0514" style="stop-color:#7639F8"/>
					<stop  offset="1" style="stop-color:#0065CD"/>
				</linearGradient>
				<path style="fill:url(#SVGID_00000138566513518044307900000000490897591197077675_);" d="M119.59,73.29l0.03,2.02h-2.35
					c-0.61,0-1.14,0.06-1.6,0.17c-0.46,0.11-0.85,0.28-1.15,0.5c-0.31,0.22-0.54,0.48-0.69,0.79c-0.15,0.31-0.23,0.66-0.23,1.05
					c0,0.39,0.09,0.74,0.27,1.06c0.18,0.32,0.44,0.57,0.79,0.75c0.35,0.18,0.77,0.27,1.27,0.27c0.67,0,1.26-0.14,1.76-0.41
					c0.5-0.28,0.9-0.61,1.19-1.02s0.44-0.78,0.46-1.15l1.06,1.45c-0.11,0.37-0.29,0.77-0.56,1.19c-0.26,0.42-0.6,0.83-1.02,1.21
					c-0.42,0.38-0.92,0.7-1.51,0.94c-0.58,0.24-1.26,0.37-2.01,0.37c-0.96,0-1.81-0.19-2.56-0.58c-0.75-0.38-1.34-0.9-1.76-1.56
					c-0.43-0.66-0.64-1.4-0.64-2.23c0-0.78,0.15-1.47,0.44-2.07c0.29-0.6,0.73-1.11,1.3-1.51c0.57-0.41,1.28-0.72,2.11-0.93
					c0.83-0.21,1.78-0.32,2.85-0.32H119.59z M119.11,79.27v-7c0-0.52-0.09-0.98-0.28-1.36c-0.19-0.38-0.48-0.67-0.86-0.88
					c-0.38-0.21-0.87-0.31-1.44-0.31c-0.53,0-1,0.09-1.38,0.27c-0.39,0.18-0.69,0.42-0.91,0.73c-0.22,0.31-0.33,0.66-0.33,1.04
					h-3.26c0-0.58,0.14-1.14,0.42-1.68c0.28-0.54,0.69-1.03,1.22-1.45c0.53-0.42,1.17-0.76,1.91-1c0.74-0.24,1.57-0.37,2.5-0.37
					c1.1,0,2.08,0.19,2.94,0.56c0.85,0.37,1.53,0.93,2.02,1.68c0.49,0.75,0.74,1.68,0.74,2.8v6.53c0,0.67,0.05,1.27,0.14,1.8
					c0.09,0.53,0.23,0.99,0.41,1.38v0.22h-3.35c-0.15-0.35-0.27-0.8-0.36-1.35C119.16,80.32,119.11,79.79,119.11,79.27z"/>
				
					<linearGradient id="SVGID_00000079458745623899521380000011942329935358112165_" gradientUnits="userSpaceOnUse" x1="28.3123" y1="79.5994" x2="138.815" y2="77.486">
					<stop  offset="0.0514" style="stop-color:#7639F8"/>
					<stop  offset="1" style="stop-color:#0065CD"/>
				</linearGradient>
				<path style="fill:url(#SVGID_00000079458745623899521380000011942329935358112165_);" d="M124.97,75.04v-0.28
					c0-1.11,0.14-2.13,0.41-3.05c0.27-0.92,0.66-1.71,1.17-2.37c0.51-0.66,1.12-1.18,1.85-1.53c0.72-0.36,1.54-0.54,2.46-0.54
					c0.95,0,1.76,0.17,2.44,0.52c0.67,0.34,1.24,0.83,1.69,1.47c0.45,0.64,0.81,1.4,1.06,2.28c0.26,0.88,0.45,1.86,0.58,2.94v0.91
					c-0.12,1.05-0.32,2.01-0.6,2.88c-0.28,0.87-0.65,1.62-1.11,2.25c-0.46,0.63-1.03,1.12-1.7,1.47c-0.67,0.34-1.47,0.52-2.38,0.52
					c-0.9,0-1.7-0.19-2.42-0.56c-0.72-0.37-1.33-0.89-1.84-1.56c-0.51-0.67-0.9-1.46-1.17-2.37
					C125.1,77.09,124.97,76.1,124.97,75.04z M134.94,67.53h2.97v14.27c0,1.32-0.28,2.44-0.84,3.36c-0.56,0.92-1.34,1.63-2.35,2.11
					c-1,0.48-2.17,0.73-3.49,0.73c-0.56,0-1.18-0.08-1.87-0.24c-0.68-0.16-1.34-0.42-1.98-0.78c-0.64-0.36-1.17-0.83-1.59-1.4
					l1.53-1.93c0.52,0.62,1.1,1.08,1.74,1.37c0.63,0.29,1.3,0.43,1.99,0.43c0.75,0,1.39-0.14,1.92-0.41
					c0.53-0.28,0.94-0.68,1.23-1.21c0.29-0.53,0.43-1.18,0.43-1.95V70.86L134.94,67.53z M128.24,74.75v0.28
					c0,0.67,0.07,1.29,0.2,1.87c0.13,0.58,0.33,1.09,0.61,1.53c0.28,0.44,0.63,0.78,1.06,1.03c0.43,0.25,0.94,0.37,1.53,0.37
					c0.77,0,1.4-0.16,1.89-0.49c0.49-0.33,0.87-0.77,1.14-1.32c0.27-0.56,0.46-1.18,0.56-1.87v-2.46c-0.05-0.53-0.16-1.03-0.33-1.49
					c-0.17-0.46-0.39-0.87-0.67-1.21c-0.28-0.35-0.63-0.62-1.06-0.81c-0.42-0.19-0.93-0.29-1.51-0.29c-0.59,0-1.1,0.13-1.53,0.38
					c-0.43,0.25-0.79,0.6-1.07,1.05c-0.28,0.44-0.48,0.96-0.62,1.55C128.3,73.45,128.24,74.08,128.24,74.75z"/>
			</g>
			<g>
				<path class="st19" d="M149.03,65.09l-5.9,17.12h-3.57L147,62.46h2.28L149.03,65.09z M153.68,74.89v2.7h-10.75v-2.7H153.68z
					 M153.97,82.21l-5.92-17.12l-0.26-2.63h2.29l7.46,19.76H153.97z"/>
				<path class="st19" d="M162.44,70.33v11.89h-3.27V67.53h3.12L162.44,70.33z M166.91,67.53l0,2.39c-0.21,0-0.41,0-0.64,0
					c-0.25,0-0.46-0.01-0.69,0c-0.75,0.03-1.26,0.27-1.57,0.48c-0.37,0.27-0.69,0.58-0.98,0.88c-0.29,0.29-0.5,0.65-0.66,1.07
					c-0.15,0.42-0.24,0.88-0.27,1.4l-0.75,0.05c0-0.92,0.09-1.78,0.27-2.56c0.18-0.79,0.45-1.48,0.82-2.08
					c0.37-0.6,0.69-0.82,1.25-1.15c0.56-0.33,1.31-0.48,2.04-0.48c0.2,0,0.39,0,0.63,0C166.61,67.53,166.75,67.53,166.91,67.53z"/>
				<path class="st19" d="M176.11,67.53v2.39h-8.28v-2.39H176.11z M170.23,63.94h3.27v14.22c0,0.45,0.07,0.8,0.2,1.04
					c0.13,0.24,0.31,0.4,0.55,0.48c0.24,0.08,0.51,0.12,0.83,0.12c0.23,0,0.44-0.01,0.65-0.04s0.38-0.05,0.5-0.08l0.01,2.5
					c-0.27,0.08-0.59,0.15-0.94,0.22c-0.36,0.06-0.77,0.09-1.23,0.09c-0.75,0-1.42-0.13-1.99-0.4c-0.58-0.27-1.03-0.7-1.36-1.31
					c-0.33-0.61-0.49-1.41-0.49-2.42V63.94z"/>
				<path class="st19" d="M178.36,63.68c0-0.5,0.16-0.91,0.5-1.24c0.33-0.33,0.79-0.5,1.38-0.5c0.58,0,1.04,0.17,1.37,0.5
					c0.33,0.33,0.5,0.74,0.5,1.24c0,0.49-0.17,0.89-0.5,1.22c-0.33,0.33-0.79,0.49-1.37,0.49c-0.59,0-1.05-0.16-1.38-0.49
					C178.52,64.57,178.36,64.17,178.36,63.68z M181.86,67.53v14.68h-3.28V67.53H181.86z"/>
				<path class="st19" d="M192.61,67.53v2.39h-8.55v-2.39H192.61z M189.59,82.21h-3.27V66.12c0-1.09,0.21-2.01,0.62-2.76
					c0.41-0.75,1-1.31,1.77-1.7c0.77-0.38,1.68-0.58,2.73-0.58c0.33,0,0.65,0.02,0.96,0.06c0.32,0.04,0.62,0.1,0.92,0.18l-0.08,2.52
					c-0.18-0.05-0.38-0.08-0.59-0.1c-0.21-0.02-0.44-0.03-0.69-0.03c-0.5,0-0.93,0.09-1.28,0.28c-0.36,0.19-0.63,0.46-0.81,0.81
					c-0.19,0.35-0.28,0.79-0.28,1.3V82.21z"/>
			</g>
		</g>
		<g class="st4">
			
				<linearGradient id="SVGID_00000076567309828238136520000000451328502122873251_" gradientUnits="userSpaceOnUse" x1="71.5804" y1="30.3574" x2="154.032" y2="30.3574">
				<stop  offset="0" style="stop-color:#E26AFF"/>
				<stop  offset="1" style="stop-color:#00F4FA"/>
			</linearGradient>
			<polygon style="opacity:0.4;fill:url(#SVGID_00000076567309828238136520000000451328502122873251_);" points="112.54,6.32 
				154.03,30.69 112.54,54.39 71.58,30.36 			"/>
			<g>
				<polygon class="st21" points="112.53,-18.54 154.02,5.83 112.53,29.54 71.57,5.5 				"/>
				
					<linearGradient id="SVGID_00000044884150569568723870000002221398063119602305_" gradientUnits="userSpaceOnUse" x1="112.7044" y1="37.0466" x2="154.4674" y2="13.5376">
					<stop  offset="0.0514" style="stop-color:#008DDB"/>
					<stop  offset="1" style="stop-color:#11C6EA"/>
				</linearGradient>
				<polygon style="fill:url(#SVGID_00000044884150569568723870000002221398063119602305_);" points="112.54,45.1 154.02,21.36 
					154.02,5.83 112.53,29.54 				"/>
				
					<linearGradient id="SVGID_00000031181202254430556930000013855539070485229194_" gradientUnits="userSpaceOnUse" x1="69.2548" y1="11.7707" x2="114.7566" y2="39.0718">
					<stop  offset="0.0514" style="stop-color:#7639F8"/>
					<stop  offset="1" style="stop-color:#0065CD"/>
				</linearGradient>
				<polygon style="fill:url(#SVGID_00000031181202254430556930000013855539070485229194_);" points="71.57,21.36 112.54,45.1 
					112.53,29.54 71.57,5.5 				"/>
			</g>
			<g>
				
					<linearGradient id="SVGID_00000010303953851766364240000014630486423056712599_" gradientUnits="userSpaceOnUse" x1="68.5151" y1="5.4434" x2="153.9582" y2="6.6517">
					<stop  offset="0" style="stop-color:#FDA3D1"/>
					<stop  offset="1" style="stop-color:#00FF86"/>
				</linearGradient>
				<polygon style="fill:url(#SVGID_00000010303953851766364240000014630486423056712599_);" points="114.8,-2.19 125.27,3.96 
					125.27,22.26 154.02,5.83 127.66,-9.74 				"/>
				
					<linearGradient id="SVGID_00000124132259236707157040000013920853060794062735_" gradientUnits="userSpaceOnUse" x1="67.202" y1="17.6709" x2="153.7847" y2="18.8953">
					<stop  offset="0" style="stop-color:#FDA3D1"/>
					<stop  offset="1" style="stop-color:#00FF86"/>
				</linearGradient>
				<polygon style="fill:url(#SVGID_00000124132259236707157040000013920853060794062735_);" points="122.38,8.97 122.38,23.92 
					112.54,29.54 86.64,14.34 99.31,6.9 112.6,14.7 				"/>
				
					<linearGradient id="SVGID_00000052814317396914393880000005025279135923369388_" gradientUnits="userSpaceOnUse" x1="67.4078" y1="3.0082" x2="153.9905" y2="4.2326">
					<stop  offset="0" style="stop-color:#FDA3D1"/>
					<stop  offset="1" style="stop-color:#00FF86"/>
				</linearGradient>
				<polygon style="fill:url(#SVGID_00000052814317396914393880000005025279135923369388_);" points="84.17,12.89 104.27,1.09 
					91.68,-6.3 71.57,5.5 				"/>
				
					<linearGradient id="SVGID_00000065046095050209001170000008082046962299192235_" gradientUnits="userSpaceOnUse" x1="67.5933" y1="-10.053" x2="154.176" y2="-8.8286">
					<stop  offset="0" style="stop-color:#FDA3D1"/>
					<stop  offset="1" style="stop-color:#00FF86"/>
				</linearGradient>
				<polygon style="fill:url(#SVGID_00000065046095050209001170000008082046962299192235_);" points="94.2,-7.78 106.77,-0.38 
					125.12,-11.14 112.53,-18.54 				"/>
			</g>
			<polygon class="st19" points="112.49,-0.84 123.11,5.39 112.49,11.46 102,5.31 			"/>
		</g>
	</g>
	<g id="Mon_diagnostic_artificialisation_00000026144383483498113880000005151739501368916125_">
		<g>
			
				<linearGradient id="SVGID_00000136406245840703659400000003402193630844153531_" gradientUnits="userSpaceOnUse" x1="7.759484e-03" y1="43.172" x2="72.8103" y2="43.172">
				<stop  offset="0" style="stop-color:#E26AFF"/>
				<stop  offset="1" style="stop-color:#00F4FA"/>
			</linearGradient>
			<polygon style="opacity:0.4;fill:url(#SVGID_00000136406245840703659400000003402193630844153531_);" points="36.18,21.95 
				72.81,43.46 36.18,64.4 0.01,43.17 			"/>
			<g>
				<polygon class="st21" points="36.17,0 72.8,21.52 36.17,42.45 0,21.22 				"/>
				
					<linearGradient id="SVGID_00000060733039733545969470000012668538097716137894_" gradientUnits="userSpaceOnUse" x1="36.3191" y1="49.0784" x2="73.1948" y2="28.3205">
					<stop  offset="0.0514" style="stop-color:#008DDB"/>
					<stop  offset="1" style="stop-color:#11C6EA"/>
				</linearGradient>
				<polygon style="fill:url(#SVGID_00000060733039733545969470000012668538097716137894_);" points="36.18,56.19 72.8,35.23 
					72.8,21.52 36.17,42.45 				"/>
				
					<linearGradient id="SVGID_00000065778872258654349020000011675326221083298223_" gradientUnits="userSpaceOnUse" x1="-2.0457" y1="26.7605" x2="38.1312" y2="50.8666">
					<stop  offset="0.0514" style="stop-color:#7639F8"/>
					<stop  offset="1" style="stop-color:#0065CD"/>
				</linearGradient>
				<polygon style="fill:url(#SVGID_00000065778872258654349020000011675326221083298223_);" points="0,35.23 36.18,56.19 
					36.17,42.45 0,21.22 				"/>
			</g>
			<g>
				
					<linearGradient id="SVGID_00000067220128079901789000000008846446171089659580_" gradientUnits="userSpaceOnUse" x1="-2.6988" y1="21.1736" x2="72.7452" y2="22.2404">
					<stop  offset="0" style="stop-color:#FDA3D1"/>
					<stop  offset="1" style="stop-color:#00FF86"/>
				</linearGradient>
				<polygon style="fill:url(#SVGID_00000067220128079901789000000008846446171089659580_);" points="38.17,14.43 47.42,19.86 
					47.42,36.02 72.8,21.52 49.52,7.77 				"/>
				
					<linearGradient id="SVGID_00000054236704432988785110000002264585682865041061_" gradientUnits="userSpaceOnUse" x1="-3.8582" y1="31.9702" x2="72.592" y2="33.0513">
					<stop  offset="0" style="stop-color:#FDA3D1"/>
					<stop  offset="1" style="stop-color:#00FF86"/>
				</linearGradient>
				<polygon style="fill:url(#SVGID_00000054236704432988785110000002264585682865041061_);" points="44.86,24.29 44.86,37.48 
					36.17,42.45 13.3,29.03 24.49,22.46 36.22,29.35 				"/>
				
					<linearGradient id="SVGID_00000008864062162015137850000007589145834117645952_" gradientUnits="userSpaceOnUse" x1="-3.6766" y1="19.0234" x2="72.7736" y2="20.1045">
					<stop  offset="0" style="stop-color:#FDA3D1"/>
					<stop  offset="1" style="stop-color:#00FF86"/>
				</linearGradient>
				<polygon style="fill:url(#SVGID_00000008864062162015137850000007589145834117645952_);" points="11.13,27.75 28.87,17.33 
					17.75,10.81 0,21.22 				"/>
				
					<linearGradient id="SVGID_00000104698593589518082860000001613539070305804211_" gradientUnits="userSpaceOnUse" x1="-3.5128" y1="7.4907" x2="72.9374" y2="8.5718">
					<stop  offset="0" style="stop-color:#FDA3D1"/>
					<stop  offset="1" style="stop-color:#00FF86"/>
				</linearGradient>
				<polygon style="fill:url(#SVGID_00000104698593589518082860000001613539070305804211_);" points="19.98,9.5 31.08,16.03 
					47.28,6.53 36.17,0 				"/>
			</g>
			<polygon class="st19" points="36.13,15.62 45.5,21.13 36.13,26.49 26.87,21.05 			"/>
		</g>
		<g>
			<g>
				
					<linearGradient id="SVGID_00000101100244000308048650000001484483645946265516_" gradientUnits="userSpaceOnUse" x1="82.079" y1="20.183" x2="228.2115" y2="19.9563">
					<stop  offset="0.0514" style="stop-color:#7639F8"/>
					<stop  offset="1" style="stop-color:#0065CD"/>
				</linearGradient>
				<path style="fill:url(#SVGID_00000101100244000308048650000001484483645946265516_);" d="M85.48,12.44h2.26l0.39,10.32v5.14
					h-2.65V12.44z M86.56,12.44h2.38l4.47,11.92l4.46-11.92h2.38l-5.9,15.46h-1.89L86.56,12.44z M99.07,12.44h2.27V27.9h-2.66v-5.14
					L99.07,12.44z"/>
				
					<linearGradient id="SVGID_00000145745756550942008500000000467017104125069495_" gradientUnits="userSpaceOnUse" x1="82.0821" y1="22.1928" x2="228.2146" y2="21.966">
					<stop  offset="0.0514" style="stop-color:#7639F8"/>
					<stop  offset="1" style="stop-color:#0065CD"/>
				</linearGradient>
				<path style="fill:url(#SVGID_00000145745756550942008500000000467017104125069495_);" d="M103.53,22.28v-0.24
					c0-0.83,0.12-1.6,0.36-2.31s0.59-1.33,1.05-1.86c0.46-0.53,1.02-0.94,1.68-1.23c0.66-0.29,1.41-0.44,2.25-0.44
					c0.84,0,1.59,0.15,2.26,0.44c0.66,0.29,1.22,0.7,1.68,1.23c0.46,0.53,0.81,1.15,1.05,1.86s0.36,1.48,0.36,2.31v0.24
					c0,0.83-0.12,1.6-0.36,2.3c-0.24,0.71-0.59,1.33-1.05,1.85c-0.46,0.53-1.02,0.94-1.68,1.23c-0.66,0.29-1.41,0.44-2.24,0.44
					c-0.84,0-1.59-0.15-2.26-0.44c-0.66-0.29-1.22-0.7-1.68-1.23c-0.46-0.53-0.81-1.14-1.05-1.85
					C103.65,23.87,103.53,23.11,103.53,22.28z M106.09,22.03v0.24c0,0.52,0.05,1.01,0.16,1.47c0.11,0.46,0.27,0.86,0.5,1.21
					c0.23,0.35,0.52,0.62,0.87,0.82c0.35,0.2,0.78,0.3,1.26,0.3c0.47,0,0.89-0.1,1.24-0.3c0.35-0.2,0.64-0.47,0.87-0.82
					c0.23-0.35,0.39-0.75,0.5-1.21s0.16-0.95,0.16-1.47v-0.24c0-0.51-0.05-0.99-0.16-1.45c-0.11-0.46-0.28-0.86-0.51-1.22
					c-0.23-0.35-0.52-0.63-0.87-0.83c-0.35-0.2-0.77-0.3-1.25-0.3c-0.48,0-0.9,0.1-1.25,0.3c-0.35,0.2-0.64,0.48-0.86,0.83
					c-0.23,0.35-0.39,0.76-0.5,1.22C106.14,21.04,106.09,21.52,106.09,22.03z"/>
				
					<linearGradient id="SVGID_00000067235977133398962040000010145970801576101271_" gradientUnits="userSpaceOnUse" x1="82.082" y1="22.1097" x2="228.2145" y2="21.883">
					<stop  offset="0.0514" style="stop-color:#7639F8"/>
					<stop  offset="1" style="stop-color:#0065CD"/>
				</linearGradient>
				<path style="fill:url(#SVGID_00000067235977133398962040000010145970801576101271_);" d="M118.68,18.86v9.04h-2.56V16.41h2.41
					L118.68,18.86z M118.22,21.73l-0.83-0.01c0.01-0.81,0.12-1.56,0.35-2.24c0.22-0.68,0.53-1.26,0.93-1.75
					c0.4-0.49,0.88-0.87,1.44-1.13c0.56-0.27,1.18-0.4,1.87-0.4c0.55,0,1.05,0.08,1.5,0.23c0.45,0.15,0.84,0.4,1.16,0.74
					c0.32,0.34,0.57,0.78,0.74,1.32s0.26,1.2,0.26,1.99v7.42h-2.57v-7.43c0-0.55-0.08-0.99-0.24-1.31
					c-0.16-0.32-0.39-0.55-0.69-0.69c-0.3-0.14-0.67-0.21-1.12-0.21c-0.44,0-0.83,0.09-1.18,0.28c-0.35,0.18-0.64,0.44-0.88,0.75
					c-0.24,0.32-0.42,0.69-0.55,1.1C118.28,20.81,118.22,21.25,118.22,21.73z"/>
				
					<linearGradient id="SVGID_00000119119696308496750890000012617704432251127938_" gradientUnits="userSpaceOnUse" x1="82.0791" y1="20.2406" x2="228.2116" y2="20.0139">
					<stop  offset="0.0514" style="stop-color:#7639F8"/>
					<stop  offset="1" style="stop-color:#0065CD"/>
				</linearGradient>
				<path style="fill:url(#SVGID_00000119119696308496750890000012617704432251127938_);" d="M130.95,12.44V27.9h-2.67V12.44H130.95
					z M132.77,27.9h-3.3l0.02-2.11h3.28c0.96,0,1.76-0.21,2.4-0.63c0.65-0.42,1.14-1.02,1.47-1.79c0.33-0.78,0.49-1.71,0.49-2.78
					v-0.84c0-0.83-0.09-1.57-0.28-2.22s-0.46-1.19-0.83-1.62c-0.36-0.44-0.81-0.77-1.34-1c-0.53-0.23-1.13-0.34-1.82-0.34h-3.46
					v-2.12h3.46c1.03,0,1.96,0.17,2.81,0.52s1.58,0.84,2.2,1.48c0.62,0.64,1.1,1.42,1.43,2.31c0.33,0.9,0.5,1.9,0.5,3.02v0.82
					c0,1.11-0.17,2.12-0.5,3.02c-0.33,0.9-0.81,1.67-1.43,2.31c-0.62,0.64-1.36,1.13-2.22,1.48
					C134.79,27.72,133.83,27.9,132.77,27.9z"/>
				
					<linearGradient id="SVGID_00000054228067434209246560000010068654708096958597_" gradientUnits="userSpaceOnUse" x1="82.0788" y1="20.06" x2="228.2113" y2="19.8332">
					<stop  offset="0.0514" style="stop-color:#7639F8"/>
					<stop  offset="1" style="stop-color:#0065CD"/>
				</linearGradient>
				<path style="fill:url(#SVGID_00000054228067434209246560000010068654708096958597_);" d="M142,13.39c0-0.39,0.13-0.71,0.39-0.97
					c0.26-0.26,0.62-0.39,1.08-0.39c0.45,0,0.81,0.13,1.07,0.39c0.26,0.26,0.39,0.58,0.39,0.97c0,0.38-0.13,0.7-0.39,0.96
					c-0.26,0.26-0.62,0.38-1.07,0.38c-0.46,0-0.82-0.13-1.08-0.38C142.13,14.09,142,13.77,142,13.39z M144.74,16.41V27.9h-2.57
					V16.41H144.74z"/>
				
					<linearGradient id="SVGID_00000162331477627403860060000015727965347881246123_" gradientUnits="userSpaceOnUse" x1="82.0822" y1="22.2587" x2="228.2147" y2="22.032">
					<stop  offset="0.0514" style="stop-color:#7639F8"/>
					<stop  offset="1" style="stop-color:#0065CD"/>
				</linearGradient>
				<path style="fill:url(#SVGID_00000162331477627403860060000015727965347881246123_);" d="M154.18,20.91l0.02,1.58h-1.84
					c-0.47,0-0.89,0.04-1.25,0.13c-0.36,0.09-0.66,0.22-0.9,0.39c-0.24,0.17-0.42,0.38-0.54,0.62c-0.12,0.24-0.18,0.51-0.18,0.82
					c0,0.3,0.07,0.58,0.21,0.83c0.14,0.25,0.35,0.45,0.62,0.59c0.27,0.14,0.6,0.21,0.99,0.21c0.52,0,0.98-0.11,1.38-0.32
					c0.39-0.22,0.7-0.48,0.93-0.8c0.23-0.32,0.35-0.61,0.36-0.9l0.83,1.14c-0.09,0.29-0.23,0.6-0.44,0.93
					c-0.21,0.33-0.47,0.65-0.8,0.95c-0.33,0.3-0.72,0.55-1.18,0.74c-0.46,0.19-0.98,0.29-1.58,0.29c-0.75,0-1.42-0.15-2.01-0.45
					c-0.59-0.3-1.05-0.71-1.38-1.22c-0.33-0.51-0.5-1.1-0.5-1.75c0-0.61,0.12-1.15,0.35-1.62c0.23-0.47,0.57-0.87,1.02-1.18
					c0.45-0.32,1-0.56,1.65-0.73c0.65-0.17,1.39-0.25,2.23-0.25H154.18z M153.81,25.59v-5.48c0-0.41-0.07-0.76-0.22-1.06
					c-0.15-0.3-0.37-0.53-0.67-0.69c-0.3-0.16-0.68-0.24-1.13-0.24c-0.42,0-0.78,0.07-1.08,0.21c-0.3,0.14-0.54,0.33-0.71,0.57
					c-0.17,0.24-0.25,0.51-0.25,0.82h-2.55c0-0.45,0.11-0.89,0.33-1.32c0.22-0.42,0.54-0.8,0.96-1.14c0.42-0.33,0.92-0.59,1.5-0.79
					s1.23-0.29,1.95-0.29c0.86,0,1.63,0.15,2.3,0.44c0.67,0.29,1.2,0.73,1.58,1.31c0.39,0.58,0.58,1.31,0.58,2.19v5.11
					c0,0.52,0.04,0.99,0.11,1.41c0.07,0.41,0.18,0.77,0.32,1.08v0.17h-2.62c-0.12-0.28-0.21-0.63-0.28-1.06
					S153.81,25.99,153.81,25.59z"/>
				
					<linearGradient id="SVGID_00000103257980421407429680000010698329311035562687_" gradientUnits="userSpaceOnUse" x1="82.0856" y1="24.4376" x2="228.2181" y2="24.2108">
					<stop  offset="0.0514" style="stop-color:#7639F8"/>
					<stop  offset="1" style="stop-color:#0065CD"/>
				</linearGradient>
				<path style="fill:url(#SVGID_00000103257980421407429680000010698329311035562687_);" d="M158.39,22.28v-0.22
					c0-0.87,0.11-1.67,0.32-2.38s0.52-1.34,0.91-1.86c0.4-0.52,0.88-0.92,1.44-1.2c0.57-0.28,1.21-0.42,1.92-0.42
					c0.74,0,1.38,0.13,1.91,0.4c0.53,0.27,0.97,0.65,1.32,1.15c0.35,0.5,0.63,1.09,0.83,1.78c0.2,0.69,0.35,1.46,0.45,2.3v0.71
					c-0.09,0.82-0.25,1.57-0.47,2.25c-0.22,0.68-0.51,1.27-0.87,1.76c-0.36,0.5-0.81,0.88-1.33,1.15c-0.53,0.27-1.15,0.4-1.86,0.4
					c-0.7,0-1.33-0.15-1.9-0.44c-0.56-0.29-1.04-0.7-1.44-1.22c-0.4-0.52-0.71-1.14-0.92-1.85
					C158.49,23.89,158.39,23.11,158.39,22.28z M166.19,16.41h2.33v11.17c0,1.03-0.22,1.91-0.66,2.63c-0.44,0.72-1.05,1.27-1.84,1.65
					c-0.79,0.38-1.7,0.57-2.73,0.57c-0.44,0-0.93-0.06-1.46-0.19c-0.53-0.13-1.05-0.33-1.55-0.61c-0.5-0.28-0.92-0.65-1.25-1.1
					l1.2-1.51c0.41,0.49,0.86,0.85,1.36,1.07c0.5,0.23,1.02,0.34,1.56,0.34c0.59,0,1.09-0.11,1.5-0.32
					c0.41-0.22,0.73-0.53,0.96-0.95c0.23-0.42,0.34-0.93,0.34-1.53v-8.62L166.19,16.41z M160.95,22.06v0.22
					c0,0.52,0.05,1.01,0.15,1.47c0.1,0.45,0.26,0.85,0.48,1.19c0.22,0.34,0.49,0.61,0.83,0.81c0.34,0.2,0.73,0.29,1.19,0.29
					c0.6,0,1.1-0.13,1.48-0.38c0.39-0.26,0.68-0.6,0.89-1.04c0.21-0.44,0.36-0.92,0.44-1.46v-1.92c-0.04-0.42-0.13-0.81-0.26-1.17
					c-0.13-0.36-0.31-0.68-0.53-0.95c-0.22-0.27-0.5-0.48-0.83-0.64c-0.33-0.15-0.73-0.23-1.18-0.23c-0.46,0-0.86,0.1-1.2,0.3
					c-0.34,0.2-0.62,0.47-0.83,0.82c-0.22,0.35-0.38,0.75-0.48,1.21C161,21.04,160.95,21.53,160.95,22.06z"/>
				
					<linearGradient id="SVGID_00000003786275107112506360000003204627909577666969_" gradientUnits="userSpaceOnUse" x1="82.0821" y1="22.1948" x2="228.2146" y2="21.968">
					<stop  offset="0.0514" style="stop-color:#7639F8"/>
					<stop  offset="1" style="stop-color:#0065CD"/>
				</linearGradient>
				<path style="fill:url(#SVGID_00000003786275107112506360000003204627909577666969_);" d="M173.48,18.86v9.04h-2.56V16.41h2.41
					L173.48,18.86z M173.02,21.73l-0.83-0.01c0.01-0.81,0.12-1.56,0.35-2.24c0.22-0.68,0.53-1.26,0.93-1.75
					c0.4-0.49,0.88-0.87,1.44-1.13c0.56-0.27,1.18-0.4,1.87-0.4c0.55,0,1.05,0.08,1.5,0.23c0.45,0.15,0.84,0.4,1.16,0.74
					c0.32,0.34,0.57,0.78,0.74,1.32s0.26,1.2,0.26,1.99v7.42h-2.57v-7.43c0-0.55-0.08-0.99-0.24-1.31
					c-0.16-0.32-0.39-0.55-0.69-0.69c-0.3-0.14-0.67-0.21-1.12-0.21c-0.44,0-0.83,0.09-1.18,0.28c-0.35,0.18-0.64,0.44-0.88,0.75
					c-0.24,0.32-0.42,0.69-0.55,1.1C173.09,20.81,173.02,21.25,173.02,21.73z"/>
				
					<linearGradient id="SVGID_00000062915058531454969480000000799092707968588947_" gradientUnits="userSpaceOnUse" x1="82.0823" y1="22.315" x2="228.2148" y2="22.0883">
					<stop  offset="0.0514" style="stop-color:#7639F8"/>
					<stop  offset="1" style="stop-color:#0065CD"/>
				</linearGradient>
				<path style="fill:url(#SVGID_00000062915058531454969480000000799092707968588947_);" d="M182.34,22.28v-0.24
					c0-0.83,0.12-1.6,0.36-2.31s0.59-1.33,1.05-1.86c0.46-0.53,1.02-0.94,1.68-1.23c0.66-0.29,1.41-0.44,2.25-0.44
					c0.84,0,1.59,0.15,2.26,0.44c0.66,0.29,1.22,0.7,1.68,1.23c0.46,0.53,0.81,1.15,1.05,1.86s0.36,1.48,0.36,2.31v0.24
					c0,0.83-0.12,1.6-0.36,2.3c-0.24,0.71-0.59,1.33-1.05,1.85c-0.46,0.53-1.02,0.94-1.68,1.23c-0.66,0.29-1.41,0.44-2.24,0.44
					c-0.84,0-1.59-0.15-2.26-0.44c-0.66-0.29-1.22-0.7-1.68-1.23c-0.46-0.53-0.81-1.14-1.05-1.85
					C182.46,23.87,182.34,23.11,182.34,22.28z M184.9,22.03v0.24c0,0.52,0.05,1.01,0.16,1.47c0.11,0.46,0.27,0.86,0.5,1.21
					c0.23,0.35,0.52,0.62,0.87,0.82c0.35,0.2,0.78,0.3,1.26,0.3c0.47,0,0.89-0.1,1.24-0.3c0.35-0.2,0.64-0.47,0.87-0.82
					c0.23-0.35,0.39-0.75,0.5-1.21c0.11-0.46,0.16-0.95,0.16-1.47v-0.24c0-0.51-0.05-0.99-0.16-1.45c-0.11-0.46-0.28-0.86-0.51-1.22
					c-0.23-0.35-0.52-0.63-0.87-0.83c-0.35-0.2-0.77-0.3-1.25-0.3c-0.48,0-0.9,0.1-1.25,0.3c-0.35,0.2-0.64,0.48-0.86,0.83
					c-0.23,0.35-0.39,0.76-0.5,1.22C184.95,21.04,184.9,21.52,184.9,22.03z"/>
				
					<linearGradient id="SVGID_00000005955936829880461160000010382685689022215851_" gradientUnits="userSpaceOnUse" x1="82.0823" y1="22.333" x2="228.2148" y2="22.1062">
					<stop  offset="0.0514" style="stop-color:#7639F8"/>
					<stop  offset="1" style="stop-color:#0065CD"/>
				</linearGradient>
				<path style="fill:url(#SVGID_00000005955936829880461160000010382685689022215851_);" d="M201.39,24.78
					c0-0.26-0.06-0.49-0.19-0.7c-0.13-0.21-0.37-0.4-0.73-0.57c-0.36-0.17-0.88-0.33-1.58-0.47c-0.61-0.13-1.17-0.3-1.67-0.48
					c-0.51-0.19-0.94-0.42-1.3-0.68c-0.36-0.27-0.64-0.59-0.84-0.96c-0.2-0.37-0.3-0.79-0.3-1.27c0-0.47,0.1-0.91,0.31-1.33
					c0.21-0.42,0.5-0.79,0.88-1.1c0.38-0.32,0.85-0.57,1.4-0.75c0.55-0.18,1.16-0.28,1.84-0.28c0.96,0,1.79,0.16,2.48,0.48
					c0.69,0.32,1.22,0.76,1.59,1.31s0.55,1.17,0.55,1.85h-2.56c0-0.3-0.08-0.59-0.23-0.85c-0.15-0.27-0.38-0.48-0.68-0.65
					c-0.3-0.17-0.69-0.25-1.15-0.25c-0.44,0-0.8,0.07-1.09,0.21s-0.5,0.32-0.64,0.54c-0.14,0.22-0.21,0.46-0.21,0.72
					c0,0.19,0.04,0.36,0.11,0.51c0.07,0.15,0.2,0.29,0.38,0.41c0.18,0.12,0.42,0.24,0.73,0.35c0.31,0.11,0.7,0.21,1.16,0.31
					c0.88,0.18,1.63,0.42,2.27,0.71s1.12,0.66,1.46,1.1c0.34,0.45,0.51,1.02,0.51,1.7c0,0.51-0.11,0.98-0.32,1.4
					c-0.22,0.42-0.53,0.79-0.94,1.09c-0.41,0.31-0.9,0.55-1.47,0.72c-0.57,0.17-1.21,0.26-1.92,0.26c-1.04,0-1.92-0.19-2.64-0.56
					c-0.72-0.37-1.27-0.85-1.64-1.43c-0.37-0.58-0.56-1.19-0.56-1.82h2.47c0.03,0.47,0.16,0.85,0.4,1.13
					c0.24,0.28,0.53,0.48,0.89,0.61c0.36,0.12,0.73,0.19,1.11,0.19c0.46,0,0.85-0.06,1.16-0.19c0.31-0.12,0.55-0.29,0.71-0.51
					C201.31,25.31,201.39,25.06,201.39,24.78z"/>
				
					<linearGradient id="SVGID_00000169555150680868964070000005023699393069509031_" gradientUnits="userSpaceOnUse" x1="82.0803" y1="21.0459" x2="228.2128" y2="20.8192">
					<stop  offset="0.0514" style="stop-color:#7639F8"/>
					<stop  offset="1" style="stop-color:#0065CD"/>
				</linearGradient>
				<path style="fill:url(#SVGID_00000169555150680868964070000005023699393069509031_);" d="M211.19,16.41v1.87h-6.48v-1.87H211.19
					z M206.58,13.59h2.56v11.13c0,0.35,0.05,0.62,0.15,0.81s0.25,0.31,0.43,0.38c0.18,0.06,0.4,0.1,0.65,0.1
					c0.18,0,0.35-0.01,0.51-0.03c0.16-0.02,0.29-0.04,0.39-0.06l0.01,1.95c-0.21,0.06-0.46,0.12-0.74,0.17
					c-0.28,0.05-0.6,0.07-0.96,0.07c-0.59,0-1.11-0.1-1.56-0.31c-0.45-0.21-0.81-0.55-1.06-1.02c-0.25-0.47-0.38-1.1-0.38-1.89
					V13.59z"/>
				
					<linearGradient id="SVGID_00000106856144022343752630000003124953937551783844_" gradientUnits="userSpaceOnUse" x1="82.079" y1="20.1701" x2="228.2115" y2="19.9433">
					<stop  offset="0.0514" style="stop-color:#7639F8"/>
					<stop  offset="1" style="stop-color:#0065CD"/>
				</linearGradient>
				<path style="fill:url(#SVGID_00000106856144022343752630000003124953937551783844_);" d="M212.95,13.39
					c0-0.39,0.13-0.71,0.39-0.97c0.26-0.26,0.62-0.39,1.08-0.39c0.45,0,0.81,0.13,1.07,0.39c0.26,0.26,0.39,0.58,0.39,0.97
					c0,0.38-0.13,0.7-0.39,0.96c-0.26,0.26-0.62,0.38-1.07,0.38c-0.46,0-0.82-0.13-1.08-0.38
					C213.08,14.09,212.95,13.77,212.95,13.39z M215.69,16.41V27.9h-2.57V16.41H215.69z"/>
				
					<linearGradient id="SVGID_00000056387837720538011160000005841246393362512512_" gradientUnits="userSpaceOnUse" x1="82.0824" y1="22.3698" x2="228.2149" y2="22.1431">
					<stop  offset="0.0514" style="stop-color:#7639F8"/>
					<stop  offset="1" style="stop-color:#0065CD"/>
				</linearGradient>
				<path style="fill:url(#SVGID_00000056387837720538011160000005841246393362512512_);" d="M222.96,26.07
					c0.42,0,0.8-0.08,1.13-0.25c0.34-0.17,0.61-0.4,0.82-0.7c0.21-0.3,0.32-0.64,0.35-1.03h2.41c-0.02,0.74-0.23,1.42-0.66,2.03
					c-0.42,0.61-0.99,1.09-1.69,1.45c-0.7,0.36-1.48,0.54-2.33,0.54c-0.88,0-1.64-0.15-2.29-0.45s-1.19-0.72-1.62-1.25
					c-0.43-0.53-0.76-1.14-0.97-1.84c-0.22-0.69-0.32-1.44-0.32-2.23v-0.37c0-0.79,0.11-1.54,0.32-2.23
					c0.22-0.7,0.54-1.31,0.97-1.84c0.43-0.53,0.97-0.95,1.62-1.25c0.65-0.3,1.41-0.45,2.28-0.45c0.92,0,1.73,0.18,2.42,0.55
					c0.69,0.36,1.24,0.87,1.64,1.52c0.4,0.65,0.61,1.4,0.62,2.26h-2.41c-0.02-0.42-0.13-0.81-0.31-1.15
					c-0.19-0.34-0.45-0.62-0.79-0.82c-0.34-0.21-0.74-0.31-1.2-0.31c-0.52,0-0.95,0.1-1.28,0.31c-0.34,0.21-0.61,0.49-0.8,0.85
					c-0.19,0.36-0.33,0.76-0.41,1.2c-0.08,0.44-0.12,0.9-0.12,1.37v0.37c0,0.47,0.04,0.93,0.12,1.38c0.08,0.45,0.21,0.84,0.41,1.19
					c0.2,0.35,0.46,0.63,0.8,0.84C222.01,25.96,222.44,26.07,222.96,26.07z"/>
			</g>
			<g>
				<path class="st19" d="M91.5,38.75l-4.62,13.4h-2.79l5.82-15.46h1.78L91.5,38.75z M95.14,46.42v2.11h-8.41v-2.11H95.14z
					 M95.36,52.15l-4.63-13.4l-0.2-2.06h1.79l5.84,15.46H95.36z"/>
				<path class="st19" d="M101.99,42.85v9.3h-2.56V40.66h2.44L101.99,42.85z M105.51,40.66l-0.02,1.87c-0.16,0-0.32,0-0.5,0
					c-0.2,0-0.36-0.01-0.54,0c-0.58,0.02-0.99,0.21-1.23,0.38c-0.29,0.21-0.54,0.46-0.76,0.69c-0.22,0.23-0.39,0.51-0.51,0.83
					c-0.12,0.33-0.19,0.69-0.21,1.09l-0.58,0.04c0-0.72,0.07-1.39,0.21-2.01c0.14-0.62,0.36-1.16,0.64-1.62
					c0.29-0.47,0.54-0.64,0.97-0.9c0.44-0.26,1.03-0.37,1.6-0.37c0.16,0,0.31,0,0.49,0C105.25,40.66,105.38,40.66,105.51,40.66z"/>
				<path class="st19" d="M112.69,40.66v1.87h-6.48v-1.87H112.69z M108.08,37.85h2.56v11.13c0,0.35,0.05,0.62,0.15,0.81
					c0.1,0.19,0.25,0.31,0.43,0.38c0.18,0.06,0.4,0.1,0.65,0.1c0.18,0,0.35-0.01,0.51-0.03c0.16-0.02,0.29-0.04,0.39-0.06l0.01,1.95
					c-0.21,0.06-0.46,0.12-0.74,0.17c-0.28,0.05-0.6,0.07-0.96,0.07c-0.59,0-1.11-0.1-1.56-0.31c-0.45-0.21-0.81-0.55-1.06-1.02
					c-0.25-0.47-0.38-1.1-0.38-1.89V37.85z"/>
				<path class="st19" d="M114.45,37.65c0-0.39,0.13-0.71,0.39-0.97c0.26-0.26,0.62-0.39,1.08-0.39c0.45,0,0.81,0.13,1.07,0.39
					c0.26,0.26,0.39,0.58,0.39,0.97c0,0.38-0.13,0.7-0.39,0.96c-0.26,0.26-0.62,0.38-1.07,0.38c-0.46,0-0.82-0.13-1.08-0.38
					C114.57,38.35,114.45,38.03,114.45,37.65z M117.19,40.66v11.49h-2.57V40.66H117.19z"/>
				<path class="st19" d="M125.6,40.66v1.87h-6.69v-1.87H125.6z M123.23,52.15h-2.56V39.56c0-0.86,0.16-1.58,0.48-2.16
					c0.32-0.58,0.78-1.03,1.39-1.33c0.6-0.3,1.31-0.45,2.13-0.45c0.26,0,0.51,0.02,0.75,0.05c0.25,0.03,0.49,0.08,0.72,0.14
					l-0.06,1.98c-0.14-0.04-0.3-0.06-0.46-0.08c-0.17-0.01-0.35-0.02-0.54-0.02c-0.39,0-0.72,0.07-1,0.22
					c-0.28,0.15-0.49,0.36-0.64,0.63c-0.15,0.28-0.22,0.62-0.22,1.02V52.15z"/>
				<path class="st19" d="M127.23,37.65c0-0.39,0.13-0.71,0.39-0.97c0.26-0.26,0.62-0.39,1.08-0.39c0.45,0,0.81,0.13,1.07,0.39
					c0.26,0.26,0.39,0.58,0.39,0.97c0,0.38-0.13,0.7-0.39,0.96c-0.26,0.26-0.62,0.38-1.07,0.38c-0.46,0-0.82-0.13-1.08-0.38
					C127.36,38.35,127.23,38.03,127.23,37.65z M129.97,40.66v11.49h-2.57V40.66H129.97z"/>
				<path class="st19" d="M137.25,50.32c0.42,0,0.8-0.08,1.13-0.25c0.34-0.17,0.61-0.4,0.82-0.7c0.21-0.3,0.32-0.64,0.35-1.03h2.41
					c-0.01,0.74-0.23,1.42-0.66,2.03c-0.42,0.61-0.99,1.09-1.69,1.45c-0.7,0.36-1.48,0.54-2.33,0.54c-0.88,0-1.64-0.15-2.29-0.45
					s-1.19-0.72-1.62-1.25c-0.43-0.53-0.76-1.14-0.97-1.84c-0.22-0.69-0.32-1.44-0.32-2.23v-0.37c0-0.79,0.11-1.54,0.32-2.23
					c0.22-0.7,0.54-1.31,0.97-1.84c0.43-0.53,0.97-0.95,1.62-1.25c0.65-0.3,1.41-0.45,2.28-0.45c0.92,0,1.73,0.18,2.42,0.55
					c0.69,0.36,1.24,0.87,1.64,1.52c0.4,0.65,0.61,1.4,0.62,2.26h-2.41c-0.02-0.42-0.13-0.81-0.31-1.15
					c-0.19-0.34-0.45-0.62-0.79-0.82s-0.74-0.31-1.2-0.31c-0.52,0-0.95,0.1-1.28,0.31c-0.34,0.21-0.61,0.49-0.8,0.85
					c-0.19,0.36-0.33,0.76-0.41,1.2c-0.08,0.44-0.12,0.9-0.12,1.37v0.37c0,0.47,0.04,0.93,0.12,1.38c0.08,0.45,0.21,0.84,0.41,1.19
					c0.2,0.35,0.46,0.63,0.8,0.84C136.29,50.22,136.72,50.32,137.25,50.32z"/>
				<path class="st19" d="M143.69,37.65c0-0.39,0.13-0.71,0.39-0.97c0.26-0.26,0.62-0.39,1.08-0.39c0.45,0,0.81,0.13,1.07,0.39
					c0.26,0.26,0.39,0.58,0.39,0.97c0,0.38-0.13,0.7-0.39,0.96c-0.26,0.26-0.62,0.38-1.07,0.38c-0.46,0-0.82-0.13-1.08-0.38
					C143.82,38.35,143.69,38.03,143.69,37.65z M146.43,40.66v11.49h-2.57V40.66H146.43z"/>
				<path class="st19" d="M155.86,45.16l0.02,1.58h-1.84c-0.47,0-0.89,0.04-1.25,0.13c-0.36,0.09-0.66,0.22-0.9,0.39
					c-0.24,0.17-0.42,0.38-0.54,0.62c-0.12,0.24-0.18,0.51-0.18,0.82c0,0.3,0.07,0.58,0.21,0.83c0.14,0.25,0.35,0.45,0.62,0.59
					c0.27,0.14,0.6,0.21,0.99,0.21c0.52,0,0.98-0.11,1.38-0.32c0.39-0.22,0.7-0.48,0.93-0.8c0.23-0.32,0.35-0.61,0.36-0.9l0.83,1.14
					c-0.09,0.29-0.23,0.6-0.44,0.93c-0.21,0.33-0.47,0.65-0.8,0.95c-0.33,0.3-0.72,0.55-1.18,0.74c-0.46,0.19-0.98,0.29-1.58,0.29
					c-0.75,0-1.42-0.15-2.01-0.45c-0.59-0.3-1.05-0.71-1.38-1.22c-0.33-0.51-0.5-1.1-0.5-1.75c0-0.61,0.12-1.15,0.35-1.62
					c0.23-0.47,0.57-0.87,1.02-1.18c0.45-0.32,1-0.56,1.65-0.73c0.65-0.17,1.39-0.25,2.23-0.25H155.86z M155.49,49.85v-5.48
					c0-0.41-0.07-0.76-0.22-1.06c-0.15-0.3-0.37-0.53-0.67-0.69c-0.3-0.16-0.68-0.24-1.13-0.24c-0.42,0-0.78,0.07-1.08,0.21
					c-0.3,0.14-0.54,0.33-0.71,0.57c-0.17,0.24-0.25,0.51-0.25,0.82h-2.55c0-0.45,0.11-0.89,0.33-1.32c0.22-0.42,0.54-0.8,0.96-1.14
					c0.42-0.33,0.92-0.59,1.5-0.79c0.58-0.19,1.23-0.29,1.95-0.29c0.86,0,1.63,0.15,2.3,0.44c0.67,0.29,1.2,0.73,1.58,1.31
					c0.39,0.58,0.58,1.31,0.58,2.19v5.11c0,0.52,0.04,0.99,0.11,1.41c0.07,0.41,0.18,0.77,0.32,1.08v0.17h-2.62
					c-0.12-0.28-0.21-0.63-0.28-1.06C155.52,50.67,155.49,50.25,155.49,49.85z"/>
				<path class="st19" d="M163.26,35.84v16.31h-2.57V35.84H163.26z"/>
				<path class="st19" d="M165.84,37.65c0-0.39,0.13-0.71,0.39-0.97c0.26-0.26,0.62-0.39,1.08-0.39c0.45,0,0.81,0.13,1.07,0.39
					c0.26,0.26,0.39,0.58,0.39,0.97c0,0.38-0.13,0.7-0.39,0.96c-0.26,0.26-0.62,0.38-1.07,0.38c-0.46,0-0.82-0.13-1.08-0.38
					C165.97,38.35,165.84,38.03,165.84,37.65z M168.58,40.66v11.49h-2.57V40.66H168.58z"/>
				<path class="st19" d="M177.61,49.04c0-0.26-0.06-0.49-0.19-0.7c-0.13-0.21-0.37-0.4-0.73-0.57c-0.36-0.17-0.88-0.33-1.58-0.47
					c-0.61-0.13-1.17-0.3-1.67-0.48c-0.51-0.19-0.94-0.42-1.3-0.68c-0.36-0.27-0.64-0.59-0.84-0.96c-0.2-0.37-0.3-0.79-0.3-1.27
					c0-0.47,0.1-0.91,0.31-1.33c0.21-0.42,0.5-0.79,0.88-1.1c0.38-0.32,0.85-0.57,1.4-0.75c0.55-0.18,1.16-0.28,1.84-0.28
					c0.96,0,1.79,0.16,2.48,0.48c0.69,0.32,1.22,0.76,1.59,1.31c0.37,0.55,0.55,1.17,0.55,1.85h-2.56c0-0.3-0.08-0.59-0.23-0.85
					c-0.15-0.27-0.38-0.48-0.68-0.65c-0.3-0.17-0.69-0.25-1.15-0.25c-0.44,0-0.8,0.07-1.09,0.21c-0.29,0.14-0.5,0.32-0.64,0.54
					c-0.14,0.22-0.21,0.46-0.21,0.72c0,0.19,0.04,0.36,0.11,0.51c0.07,0.15,0.2,0.29,0.38,0.41c0.18,0.12,0.42,0.24,0.73,0.35
					c0.31,0.11,0.7,0.21,1.16,0.31c0.88,0.18,1.63,0.42,2.27,0.71c0.63,0.29,1.12,0.66,1.46,1.1c0.34,0.45,0.51,1.02,0.51,1.7
					c0,0.51-0.11,0.98-0.32,1.4c-0.22,0.42-0.53,0.79-0.94,1.09c-0.41,0.31-0.9,0.55-1.47,0.72c-0.57,0.17-1.21,0.26-1.92,0.26
					c-1.04,0-1.92-0.19-2.64-0.56c-0.72-0.37-1.27-0.85-1.64-1.43c-0.37-0.58-0.56-1.19-0.56-1.82h2.47
					c0.03,0.47,0.16,0.85,0.4,1.13c0.24,0.28,0.53,0.48,0.89,0.61c0.36,0.12,0.73,0.19,1.11,0.19c0.46,0,0.85-0.06,1.16-0.19
					c0.31-0.12,0.55-0.29,0.71-0.51C177.53,49.56,177.61,49.32,177.61,49.04z"/>
				<path class="st19" d="M188.99,45.16l0.02,1.58h-1.84c-0.47,0-0.89,0.04-1.25,0.13c-0.36,0.09-0.66,0.22-0.9,0.39
					c-0.24,0.17-0.42,0.38-0.54,0.62c-0.12,0.24-0.18,0.51-0.18,0.82c0,0.3,0.07,0.58,0.21,0.83c0.14,0.25,0.35,0.45,0.62,0.59
					c0.27,0.14,0.6,0.21,0.99,0.21c0.52,0,0.98-0.11,1.38-0.32c0.39-0.22,0.7-0.48,0.93-0.8c0.23-0.32,0.35-0.61,0.36-0.9l0.83,1.14
					c-0.09,0.29-0.23,0.6-0.44,0.93c-0.21,0.33-0.47,0.65-0.8,0.95s-0.72,0.55-1.18,0.74c-0.46,0.19-0.98,0.29-1.58,0.29
					c-0.75,0-1.42-0.15-2.01-0.45c-0.59-0.3-1.05-0.71-1.38-1.22c-0.33-0.51-0.5-1.1-0.5-1.75c0-0.61,0.12-1.15,0.35-1.62
					c0.23-0.47,0.57-0.87,1.02-1.18c0.45-0.32,1-0.56,1.65-0.73c0.65-0.17,1.39-0.25,2.23-0.25H188.99z M188.62,49.85v-5.48
					c0-0.41-0.07-0.76-0.22-1.06c-0.15-0.3-0.37-0.53-0.67-0.69c-0.3-0.16-0.68-0.24-1.13-0.24c-0.42,0-0.78,0.07-1.08,0.21
					c-0.3,0.14-0.54,0.33-0.71,0.57c-0.17,0.24-0.25,0.51-0.25,0.82h-2.55c0-0.45,0.11-0.89,0.33-1.32c0.22-0.42,0.54-0.8,0.96-1.14
					c0.42-0.33,0.92-0.59,1.5-0.79c0.58-0.19,1.23-0.29,1.95-0.29c0.86,0,1.63,0.15,2.3,0.44c0.67,0.29,1.2,0.73,1.58,1.31
					c0.39,0.58,0.58,1.31,0.58,2.19v5.11c0,0.52,0.04,0.99,0.11,1.41c0.07,0.41,0.18,0.77,0.32,1.08v0.17H189
					c-0.12-0.28-0.21-0.63-0.28-1.06C188.65,50.67,188.62,50.25,188.62,49.85z"/>
				<path class="st19" d="M198.91,40.66v1.87h-6.48v-1.87H198.91z M194.3,37.85h2.56v11.13c0,0.35,0.05,0.62,0.15,0.81
					c0.1,0.19,0.25,0.31,0.43,0.38c0.18,0.06,0.4,0.1,0.65,0.1c0.18,0,0.35-0.01,0.51-0.03c0.16-0.02,0.29-0.04,0.39-0.06l0.01,1.95
					c-0.21,0.06-0.46,0.12-0.74,0.17c-0.28,0.05-0.6,0.07-0.96,0.07c-0.59,0-1.11-0.1-1.56-0.31c-0.45-0.21-0.81-0.55-1.06-1.02
					c-0.25-0.47-0.38-1.1-0.38-1.89V37.85z"/>
				<path class="st19" d="M200.67,37.65c0-0.39,0.13-0.71,0.39-0.97c0.26-0.26,0.62-0.39,1.08-0.39c0.45,0,0.81,0.13,1.07,0.39
					c0.26,0.26,0.39,0.58,0.39,0.97c0,0.38-0.13,0.7-0.39,0.96c-0.26,0.26-0.62,0.38-1.07,0.38c-0.46,0-0.82-0.13-1.08-0.38
					C200.8,38.35,200.67,38.03,200.67,37.65z M203.41,40.66v11.49h-2.57V40.66H203.41z"/>
				<path class="st19" d="M205.51,46.53v-0.24c0-0.83,0.12-1.6,0.36-2.31c0.24-0.71,0.59-1.33,1.05-1.86
					c0.46-0.53,1.02-0.94,1.68-1.23c0.66-0.29,1.41-0.44,2.25-0.44c0.84,0,1.59,0.15,2.26,0.44c0.66,0.29,1.22,0.7,1.68,1.23
					c0.46,0.53,0.81,1.15,1.05,1.86c0.24,0.71,0.36,1.48,0.36,2.31v0.24c0,0.83-0.12,1.6-0.36,2.3c-0.24,0.71-0.59,1.33-1.05,1.85
					c-0.46,0.53-1.02,0.94-1.68,1.23c-0.66,0.29-1.41,0.44-2.24,0.44c-0.84,0-1.59-0.15-2.26-0.44c-0.66-0.29-1.22-0.7-1.68-1.23
					c-0.46-0.53-0.81-1.14-1.05-1.85C205.63,48.13,205.51,47.36,205.51,46.53z M208.07,46.29v0.24c0,0.52,0.05,1.01,0.16,1.47
					c0.11,0.46,0.27,0.86,0.5,1.21c0.23,0.35,0.52,0.62,0.87,0.82c0.35,0.2,0.78,0.3,1.26,0.3c0.47,0,0.89-0.1,1.24-0.3
					c0.35-0.2,0.64-0.47,0.87-0.82c0.23-0.35,0.39-0.75,0.5-1.21c0.11-0.46,0.16-0.95,0.16-1.47v-0.24c0-0.51-0.05-0.99-0.16-1.45
					c-0.11-0.46-0.28-0.86-0.51-1.22c-0.23-0.35-0.52-0.63-0.87-0.83c-0.35-0.2-0.77-0.3-1.25-0.3c-0.48,0-0.9,0.1-1.25,0.3
					c-0.35,0.2-0.64,0.48-0.86,0.83c-0.23,0.35-0.39,0.76-0.5,1.22C208.12,45.3,208.07,45.78,208.07,46.29z"/>
				<path class="st19" d="M220.65,43.11v9.04h-2.56V40.66h2.41L220.65,43.11z M220.2,45.98l-0.83-0.01
					c0.01-0.81,0.12-1.56,0.35-2.24c0.22-0.68,0.53-1.26,0.93-1.75c0.4-0.49,0.88-0.87,1.44-1.13c0.56-0.27,1.18-0.4,1.87-0.4
					c0.55,0,1.05,0.08,1.5,0.23c0.45,0.15,0.84,0.4,1.16,0.74c0.32,0.34,0.57,0.78,0.74,1.32s0.26,1.2,0.26,1.99v7.42h-2.57v-7.43
					c0-0.55-0.08-0.99-0.24-1.31c-0.16-0.32-0.39-0.55-0.69-0.69c-0.3-0.14-0.67-0.21-1.12-0.21c-0.44,0-0.83,0.09-1.18,0.28
					c-0.35,0.18-0.64,0.44-0.88,0.75c-0.24,0.32-0.42,0.69-0.55,1.1C220.26,45.06,220.2,45.51,220.2,45.98z"/>
			</g>
		</g>
	</g>
</g>
</svg>
