<?xml version="1.0" encoding="utf-8"?>
<!-- Generator: Adobe Illustrator 27.2.0, SVG Export Plug-In . SVG Version: 6.00 Build 0)  -->
<svg version="1.1" id="Calque_1" xmlns="http://www.w3.org/2000/svg" xmlns:xlink="http://www.w3.org/1999/xlink" x="0px" y="0px"
	 viewBox="0 0 24 24" style="enable-background:new 0 0 24 24;" xml:space="preserve">
<style type="text/css">
	.st0{fill:#666666;}
</style>
<path class="st0" d="M14.1,2.2c-0.1,1.1,0.2,2.1,1,2.4c0.8,0.3,1.7-0.1,2.4-1c1.2,0.8,2.2,1.7,2.9,2.9c-0.9,0.7-1.3,1.6-1,2.4
	s1.3,1.1,2.4,1c0.3,1.4,0.3,2.8,0,4.1c-1.1-0.1-2.1,0.2-2.4,1c-0.3,0.8,0.1,1.7,1,2.4c-0.8,1.2-1.7,2.2-2.9,2.9
	c-0.7-0.9-1.6-1.3-2.4-1c-0.8,0.3-1.1,1.3-1,2.4c-1.4,0.3-2.8,0.3-4.1,0c0.1-1.1-0.2-2.1-1-2.4c-0.8-0.3-1.7,0.1-2.4,1
	c-1.2-0.8-2.2-1.7-2.9-2.9c0.9-0.7,1.3-1.6,1-2.4c-0.3-0.8-1.3-1.1-2.4-1c-0.3-1.4-0.3-2.8,0-4.1c1.1,0.1,2.1-0.2,2.4-1
	c0.3-0.8-0.1-1.7-1-2.4c0.8-1.2,1.7-2.2,2.9-2.9c0.7,0.9,1.6,1.3,2.4,1s1.1-1.3,1-2.4C11.3,1.9,12.7,1.9,14.1,2.2z M11.8,4
	c-0.3,1.1-1,2-2.1,2.5C8.6,6.9,7.5,6.8,6.5,6.2C6.4,6.3,6.3,6.4,6.2,6.5c0.6,1,0.7,2.1,0.3,3.2C6,10.8,5.1,11.5,4,11.8
	c0,0.1,0,0.3,0,0.4c1.1,0.3,2,1,2.5,2.1c0.4,1.1,0.3,2.2-0.3,3.2c0.1,0.1,0.2,0.2,0.3,0.3c1-0.6,2.1-0.7,3.2-0.3
	c1.1,0.5,1.8,1.4,2.1,2.5c0.1,0,0.3,0,0.4,0c0.3-1.1,1-2,2.1-2.5c1.1-0.4,2.2-0.3,3.2,0.3c0.1-0.1,0.2-0.2,0.3-0.3
	c-0.6-1-0.7-2.1-0.3-3.2c0.5-1.1,1.4-1.8,2.5-2.1c0-0.1,0-0.3,0-0.4c-1.1-0.3-2-1-2.5-2.1c-0.4-1.1-0.3-2.2,0.3-3.2
	c-0.1-0.1-0.2-0.2-0.3-0.3c-1,0.6-2.1,0.7-3.2,0.3C13.2,6,12.5,5.1,12.2,4C12.1,4,11.9,4,11.8,4z M12,9c1.7,0,3,1.3,3,3s-1.3,3-3,3
	s-3-1.3-3-3S10.3,9,12,9z M12,11c-0.6,0-1,0.4-1,1s0.4,1,1,1s1-0.4,1-1S12.6,11,12,11z"/>
</svg>
