<?xml version="1.0" encoding="UTF-8"?>
<svg id="Calque_1" data-name="Calque 1" xmlns="http://www.w3.org/2000/svg" xmlns:xlink="http://www.w3.org/1999/xlink" viewBox="0 0 465.55 460.34">
  <defs>
    <clipPath id="clippath">
      <path d="m87.73,230.36c0,78.53,63.66,142.2,142.2,142.2s142.2-63.66,142.2-142.2-63.66-142.2-142.2-142.2-142.2,63.66-142.2,142.2" style="fill: none;"/>
    </clipPath>
  </defs>
  <path d="m372.13,230.36c0,78.53-63.66,142.2-142.2,142.2s-142.2-63.66-142.2-142.2,63.66-142.2,142.2-142.2,142.2,63.66,142.2,142.2" style="fill: #049e78;"/>
  <polygon points="47.68 238.13 51.13 267.55 41.11 268.73 39.09 251.43 30.71 252.41 32.42 266.99 22.4 268.16 20.69 253.58 11.43 254.66 13.46 271.97 3.44 273.14 0 243.72 47.68 238.13" style="fill: #293273;"/>
  <polygon points="53.53 279.46 68.49 316.72 58.25 320.83 53.04 307.86 18.78 321.62 14.23 310.31 48.51 296.55 43.3 283.58 53.53 279.46" style="fill: #293273;"/>
  <path d="m91.68,363.77l-6.79,6.87,3.31,3.27c2.19,2.17,4.86,2,6.93-.09,1.92-1.95,2.05-4.62-.14-6.78l-3.31-3.27Zm-1.6-15.73l11.45,11.31c7.99,7.89,9.02,16.69,2.43,23.37-4.09,4.14-9.12,5.33-14.26,3.72l-3.86,24.77-10.13-10.01,4.18-21.38-2.05-2.02-12.75,12.91-8.67-8.57,33.67-34.11Z" style="fill: #293273;"/>
  <path d="m138.18,382.82l11.29-4.23,10.74,6.07-12.37,3.63-9.66-5.47Zm-9.84-.84l25.77,14.58-4.96,8.77-15.15-8.57-4.15,7.33,12.76,7.23-4.96,8.77-12.77-7.23-4.59,8.11,15.15,8.58-4.96,8.76-25.76-14.58,23.62-41.76Z" style="fill: #293273;"/>
  <path d="m163.9,435.36c1.56,3.91,4.62,7.03,7.99,7.96,2.72.74,4.7,0,5.42-2.64,1.95-7.08-19.06-10.36-14.7-26.24,2.12-7.74,10.37-12.38,19.76-9.79,7.35,2.01,12.16,6.75,15.15,12.69l-10.68,5.46c-1.85-3.92-4.12-7.03-7.23-7.89-2.38-.65-4.44.35-4.97,2.27-1.88,6.88,19.13,10.16,14.67,26.36-2.68,9.23-11.41,12.52-20.14,10.12-8.53-2.34-13.07-6.79-15.98-12.78l10.69-5.53Z" style="fill: #293273;"/>
  <rect x="194.17" y="429.98" width="47.93" height="12.19" transform="translate(-229.73 628.82) rotate(-86.71)" style="fill: #293273;"/>
  <polygon points="244.32 412.31 256.38 410.54 261.73 447.06 278.94 444.54 280.54 455.44 251.28 459.74 244.32 412.31" style="fill: #293273;"/>
  <rect x="294.8" y="399.92" width="12.2" height="47.94" transform="translate(-127.43 129.35) rotate(-20.12)" style="fill: #293273;"/>
  <polygon points="315.28 391.87 340.3 376.08 345.68 384.59 330.96 393.88 335.47 401.01 347.86 393.18 353.24 401.69 340.84 409.52 345.82 417.4 360.53 408.11 365.9 416.63 340.88 432.43 315.28 391.87" style="fill: #293273;"/>
  <polygon points="352.44 367.04 362.62 355.4 396.46 362.14 373.93 342.45 381.94 333.28 418.03 364.81 407.85 376.46 374.02 369.72 396.54 389.4 388.52 398.57 352.44 367.04" style="fill: #293273;"/>
  <path d="m432.59,302.09l10.56-5.98c3.65,6.42,4.36,14.49.89,22.55-6.05,14.04-20.88,19-33.47,13.58-12.59-5.43-19.17-19.61-13.13-33.65,3.47-8.06,9.82-13.09,16.94-14.88l2.98,11.81c-3.92.78-7.49,3.2-9.39,7.6-3.04,7.05.2,14.42,7.57,17.6,7.43,3.2,14.96.46,17.99-6.58,1.88-4.34,1.2-8.67-.93-12.05" style="fill: #293273;"/>
  <polygon points="408.63 268.69 412.61 239.37 422.59 240.72 420.25 257.96 428.6 259.1 430.57 244.57 440.55 245.92 438.58 260.45 447.81 261.7 450.15 244.46 460.12 245.81 456.15 275.14 408.63 268.69" style="fill: #293273;"/>
  <polygon points="18.13 139.92 23.53 128.97 56.67 145.31 64.36 129.7 74.27 134.58 61.17 161.14 18.13 139.92" style="fill: #293273;"/>
  <path d="m85.23,83.21c-6.02-5.39-14.02-5.18-19.09.48-5.11,5.72-4.37,13.73,1.6,19.07,6.02,5.39,14.01,5.19,19.13-.53,5.07-5.67,4.33-13.68-1.64-19.02m8.36-9.34c10.21,9.13,11.95,24.66,1.81,35.99-10.18,11.38-25.8,11.38-36.02,2.25-10.21-9.13-11.95-24.65-1.77-36.04,10.13-11.34,25.75-11.34,35.97-2.2" style="fill: #293273;"/>
  <polygon points="96.65 42.86 106.77 36.04 133.57 75.82 123.46 82.63 96.65 42.86" style="fill: #293273;"/>
  <path d="m200.58,34.31l11.02,5.06c-3.07,6.72-9.2,12.01-17.76,13.91-14.92,3.31-27.61-5.8-30.58-19.18s4.67-27,19.59-30.32c8.56-1.9,16.35.3,21.96,5.02l-7.83,9.32c-2.91-2.72-6.97-4.21-11.65-3.17-7.49,1.66-11.56,8.61-9.83,16.43,1.75,7.89,8.37,12.39,15.86,10.73,4.61-1.03,7.72-4.1,9.21-7.8" style="fill: #293273;"/>
  <polygon points="227.59 0 239.79 .53 238.2 37.44 255.6 38.19 255.12 49.22 225.54 47.94 227.59 0" style="fill: #293273;"/>
  <rect x="256.67" y="24.5" width="47.94" height="12.19" transform="translate(182.09 295.14) rotate(-75.79)" style="fill: #293273;"/>
  <polygon points="321.4 17.72 334.55 25.12 334.39 44.7 351.1 34.44 364.25 41.84 340.71 83.67 330.08 77.69 345.2 50.79 330.97 59.31 323.74 55.24 323.63 38.65 308.5 65.55 297.86 59.56 321.4 17.72" style="fill: #293273;"/>
  <path d="m384.74,97.77l7.19-13.12-13.8,5.79,6.62,7.33Zm10.97-27.25l10.65,11.81-24,45.07-8.67-9.62,5.79-10.48-11.38-12.63-11.02,4.67-8.68-9.63,47.31-19.19Z" style="fill: #293273;"/>
  <polygon points="425.58 107.45 443.92 143.2 434.1 148.24 427.71 135.79 394.84 152.66 389.26 141.8 422.14 124.94 415.76 112.49 425.58 107.45" style="fill: #293273;"/>
  <path d="m47.38,202.96c-.22,0-.43-.02-.65-.05l-41.45-6.79c-2.19-.36-3.68-2.43-3.32-4.62.36-2.2,2.4-3.7,4.62-3.32l41.45,6.79c2.19.36,3.68,2.43,3.32,4.62-.33,1.97-2.03,3.37-3.97,3.37" style="fill: #e1271d;"/>
  <path d="m412.47,202.96c-1.93,0-3.64-1.4-3.96-3.37-.36-2.19,1.12-4.26,3.31-4.62l41.44-6.79c2.14-.35,4.27,1.12,4.62,3.32.36,2.19-1.12,4.26-3.31,4.62l-41.44,6.79c-.22.03-.44.05-.66.05" style="fill: #e1271d;"/>
  <g style="clip-path: url(#clippath);">
    <path d="m251.45,172.67c-3.9,0-7.66-1.3-10.72-3.68v-14.61l10.71-5.63-2.22-4.23-8.49,4.46v-9.4h-4.78v19.99l-8.49-4.46-2.22,4.23,10.71,5.63v4.02c-3.05,2.38-6.82,3.68-10.72,3.68-9.62,0-17.45-7.83-17.45-17.45,0-7.36,4.65-13.96,11.58-16.44l1.46-.52.12-1.55c.33-4.37,2.29-8.44,5.51-11.44,3.24-3.02,7.46-4.68,11.89-4.68s8.65,1.66,11.89,4.68c3.22,3,5.18,7.06,5.51,11.44l.12,1.55,1.46.52c6.93,2.48,11.58,9.08,11.58,16.44,0,9.62-7.83,17.45-17.45,17.45m8.89-37.83c-.72-4.99-3.12-9.59-6.85-13.06-4.13-3.84-9.5-5.96-15.15-5.96s-11.02,2.12-15.14,5.96c-3.73,3.47-6.13,8.07-6.85,13.06-8.04,3.51-13.34,11.52-13.34,20.38,0,12.26,9.97,22.23,22.23,22.23,3.78,0,7.46-.96,10.72-2.75v22.65h4.78v-22.65c3.26,1.79,6.94,2.75,10.72,2.75,12.26,0,22.23-9.97,22.23-22.23,0-8.86-5.3-16.87-13.34-20.38" style="fill: #fff;"/>
    <path d="m185.3,167.71c-1.67,0-3.03-1.36-3.03-3.03v-13.7c0-1.67,1.36-3.03,3.03-3.03s3.03,1.36,3.03,3.03v13.7c0,1.67-1.36,3.03-3.03,3.03" style="fill: #fff;"/>
    <path d="m132.69,233.05c-1.67,0-3.03-1.36-3.03-3.03v-48.78c0-1.67,1.36-3.03,3.03-3.03s3.03,1.36,3.03,3.03v48.78c0,1.67-1.36,3.03-3.03,3.03" style="fill: #fff;"/>
    <path d="m194.32,201.41c-1.67,0-3.03-1.36-3.03-3.03v-17.14c0-1.67,1.36-3.03,3.03-3.03s3.03,1.36,3.03,3.03v17.14c0,1.67-1.36,3.03-3.03,3.03" style="fill: #fff;"/>
    <path d="m201.85,184.27h-7.53c-1.67,0-3.03-1.36-3.03-3.03s1.36-3.03,3.03-3.03h.12l-30.94-30.44-30.94,30.44h.13c1.67,0,3.03,1.36,3.03,3.03s-1.36,3.03-3.03,3.03h-7.53c-1.23,0-2.34-.74-2.81-1.88-.46-1.14-.2-2.45.68-3.31l38.34-37.72c1.18-1.16,3.07-1.16,4.25,0l38.34,37.72c.88.86,1.14,2.17.68,3.31-.47,1.14-1.58,1.88-2.81,1.88" style="fill: #fff;"/>
    <path d="m183.91,338.59c-1.02,0-2.01-.51-2.58-1.44-.88-1.42-.44-3.29.98-4.17l8.95-5.54,2.65-3.32c1.04-1.31,2.95-1.52,4.26-.48,1.31,1.04,1.52,2.95.48,4.26l-2.98,3.74c-.22.27-.48.5-.77.69l-9.4,5.82c-.5.31-1.05.45-1.59.45" style="fill: #fff;"/>
    <path d="m220.74,344.85c-1.1,0-2.17-.6-2.7-1.65l-7.72-15.11-10.92-8.51c-.8-.62-1.23-1.6-1.16-2.61l1.57-21.64c.08-1.1.76-2.08,1.76-2.54,1.01-.46,2.19-.33,3.08.33l10.06,7.52,9.9,4.28c1.54.66,2.24,2.45,1.58,3.98-.66,1.54-2.45,2.24-3.99,1.58l-10.23-4.42c-.22-.09-.42-.21-.61-.35l-5.9-4.41-1.05,14.49,10.17,7.92c.35.27.63.62.84,1.01l8.03,15.71c.76,1.49.17,3.32-1.32,4.08-.44.23-.91.33-1.38.33" style="fill: #fff;"/>
    <path d="m180.3,314.79c-.94,0-1.87-.44-2.46-1.26-.98-1.36-.67-3.25.69-4.23l22.53-16.2c1.36-.98,3.25-.67,4.23.69.98,1.36.67,3.25-.69,4.23l-22.53,16.2c-.54.39-1.15.57-1.77.57" style="fill: #fff;"/>
    <path d="m203.62,279.77c-1.11,0-2.22.38-3.12,1.16-1.99,1.72-2.21,4.75-.49,6.74,1.72,1.99,4.75,2.21,6.74.49,1.99-1.72,2.21-4.75.49-6.74-.94-1.09-2.28-1.65-3.62-1.65m.01,15.61c-3.04,0-6.06-1.27-8.2-3.74-3.91-4.52-3.41-11.38,1.11-15.29,4.52-3.91,11.38-3.41,15.29,1.11,3.91,4.52,3.41,11.38-1.11,15.29-2.05,1.77-4.57,2.64-7.08,2.64" style="fill: #fff;"/>
    <path d="m297.78,320.06c-4.79,0-8.69-3.9-8.69-8.69,0-2.89,1.42-5.45,3.6-7.03l3.25,7.8c.42,1.02,1.59,1.5,2.61,1.07s1.5-1.59,1.07-2.61l-3.25-7.81c.46-.08.93-.12,1.41-.12,4.79,0,8.69,3.9,8.69,8.69s-3.9,8.69-8.69,8.69m-23.05-12.69l-4.12-9.6,13.72-3.57-9.6,13.17Zm-15.34,2.01l7.91-9.23,3.96,9.23h-11.87Zm-4.34,10.68c-4.79,0-8.69-3.9-8.69-8.69s3.9-8.69,8.69-8.69c1.44,0,2.79.35,3.99.97l-5.5,6.42c-.51.59-.62,1.42-.3,2.13.33.71,1.03,1.16,1.81,1.16h8.45c-.9,3.83-4.35,6.69-8.45,6.69m42.73-21.36c-1.02,0-2.02.12-2.97.35l-5.04-12.1,4.37-1.46c1.04-.35,1.61-1.48,1.26-2.52-.35-1.04-1.48-1.61-2.52-1.26l-6.55,2.19c-1.02.42-1.5,1.59-1.07,2.61l1.25,3.01-17.48,4.55-1.79-4.19h2.78c1.1,0,1.99-.89,1.99-1.99s-.89-1.99-1.99-1.99h-8.55c-1.1,0-1.99.89-1.99,1.99s.89,1.99,1.99,1.99h1.43l2.66,6.19-3.87,4.51c-1.93-1.19-4.2-1.88-6.63-1.88-6.99,0-12.68,5.69-12.68,12.68s5.69,12.68,12.68,12.68c6.31,0,11.56-4.64,12.52-10.68h6.71c.64,0,1.24-.3,1.61-.82l12.87-17.64,2.37,5.69c-3.61,2.23-6.02,6.23-6.02,10.78,0,6.99,5.69,12.68,12.68,12.68s12.68-5.69,12.68-12.68-5.69-12.68-12.68-12.68" style="fill: #fff;"/>
    <path d="m269.22,248.95c-1.67,0-3.03-1.36-3.03-3.03v-32.86c-.01-1.67,1.35-3.03,3.02-3.03l79.69-.02c1.67,0,3.03,1.36,3.03,3.03v32.86c.01,1.67-1.35,3.03-3.02,3.03h0c-1.67,0-3.03-1.36-3.03-3.03v-29.82s-73.63.02-73.63.02v29.82c.01,1.67-1.35,3.03-3.02,3.03Z" style="fill: #fff;"/>
    <path d="m326.01,226.58c-1.29,0-2.33-1.04-2.33-2.33,0-1.29,1.04-2.33,2.33-2.33h14.77c1.29,0,2.33,1.04,2.33,2.33,0,1.29-1.04,2.33-2.33,2.33h-14.77Z" style="fill: #fff;"/>
    <path d="m302.66,226.58c-1.29,0-2.33-1.04-2.33-2.33,0-1.29,1.04-2.33,2.33-2.33h14.77c1.29,0,2.33,1.04,2.33,2.33,0,1.29-1.04,2.33-2.33,2.33h-14.77Z" style="fill: #fff;"/>
    <path d="m278.4,226.58c-1.29,0-2.33-1.04-2.33-2.33,0-1.29,1.04-2.33,2.33-2.33h14.77c1.29,0,2.33,1.04,2.33,2.33,0,1.29-1.04,2.33-2.33,2.33h-14.77Z" style="fill: #fff;"/>
    <path d="m155.97,248.93c-.8,0-1.6-.31-2.19-.94-2.09-2.19-2.15-5.63-.18-10.23,2.29-5.35,7.24-12.12,12.92-17.67,3.85-3.76,11.3-10.07,17.89-10.07h66.45c4.38,0,7.93,3.56,7.93,7.93v27.95c0,1.67-1.36,3.03-3.03,3.03s-3.03-1.36-3.03-3.03v-27.95c0-1.03-.84-1.87-1.87-1.87h-66.45c-5.07,0-14.68,7.84-21.43,17.48-4.14,5.9-4.97,9.46-4.73,10.35,1.07,1.21,1,3.06-.19,4.19-.59.56-1.34.84-2.09.84" style="fill: #fff;"/>
    <path d="m173.46,234.32c-.48,0-.96-.19-1.33-.56-.72-.73-.71-1.91.02-2.64,3.77-3.71,11.02-9.93,17.27-9.93h18.26c1.03,0,1.87.83,1.87,1.86s-.84,1.87-1.87,1.87h-18.26c-3.54,0-9.02,3.31-14.65,8.86-.36.36-.84.54-1.31.54" style="fill: #fff;"/>
    <path d="m461.74,248.93c-.75,0-1.5-.28-2.09-.84-1.18-1.13-1.25-2.98-.19-4.19.23-.89-.6-4.44-4.73-10.35-6.75-9.64-16.36-17.48-21.43-17.48h-66.45c-1.03,0-1.87.84-1.87,1.87v27.95c0,1.67-1.36,3.03-3.03,3.03s-3.03-1.36-3.03-3.03v-27.95c0-4.38,3.56-7.93,7.93-7.93h66.45c6.6,0,14.04,6.31,17.89,10.07,5.68,5.55,10.63,12.32,12.92,17.67,1.97,4.6,1.91,8.05-.18,10.23-.6.62-1.39.94-2.19.94" style="fill: #fff;"/>
    <path d="m322.13,262.03H66.51c-1.67,0-3.03-1.36-3.03-3.03s1.36-3.03,3.03-3.03h255.62c1.67,0,3.03,1.36,3.03,3.03s-1.36,3.03-3.03,3.03" style="fill: #fff;"/>
    <path d="m293.65,145.04c2.6-.41,5.2-.85,7.79-1.38-.01.09-.02.18-.02.28l-.78,55.18h6.4l-.77-51.65c.93,1.42,1.88,2.83,2.84,4.23,2.1,3.03,4.27,6,6.5,8.92,2.23,2.93,4.51,5.81,6.91,8.62,2.39,2.81,4.85,5.56,7.53,8.16.27.26.68.33,1.02.15.43-.23.6-.76.38-1.19-1.73-3.31-3.66-6.45-5.67-9.54-2.01-3.09-4.12-6.11-6.29-9.08-2.17-2.97-4.4-5.9-6.7-8.77-2.12-2.62-4.28-5.21-6.58-7.7,1.65-2.95,3.16-5.97,4.61-9.02,1.57-3.33,3.05-6.7,4.48-10.09,1.42-3.39,2.78-6.82,4.01-10.29,1.24-3.47,2.39-6.98,3.3-10.6.09-.36-.05-.75-.38-.96-.41-.26-.96-.14-1.22.27-2,3.14-3.75,6.4-5.42,9.68-1.68,3.29-3.23,6.62-4.72,9.99-1.49,3.37-2.91,6.76-4.25,10.19-1.22,3.14-2.37,6.31-3.38,9.54-3.39.04-6.75.25-10.11.52-3.67.3-7.33.7-10.98,1.17s-7.29,1-10.92,1.67c-3.63.67-7.24,1.42-10.83,2.44-.36.1-.63.42-.64.81-.02.49.36.9.85.92,3.72.16,7.41.05,11.1-.14,3.68-.19,7.35-.52,11.01-.91,3.66-.39,7.31-.86,10.95-1.42" style="fill: #fff;"/>
  </g>
</svg>