<svg xmlns="http://www.w3.org/2000/svg" width="100%" height="auto" viewBox="0 0 1150 1150" id="profile-data">
  <defs>
    <linearGradient id="bg-gradient" x1="0%" y1="0%" x2="100%" y2="100%">
      <stop offset="0%" stop-color="#000091"/>
      <stop offset="50%" stop-color="#3D4D9E"/>
      <stop offset="100%" stop-color="#6366f1"/>
    </linearGradient>

    <linearGradient id="linearGradient-1" x1="76.645%" x2="35.562%" y1="30.157%" y2="60.752%">
      <stop offset="0%" stop-color="#FFF"/>
      <stop offset="100%" stop-color="#FFF" stop-opacity="0"/>
    </linearGradient>
    <linearGradient id="linearGradient-2" x1="91.127%" x2="41.334%" y1="28.779%" y2="63.937%">
      <stop offset="0%" stop-color="#FFF"/>
      <stop offset="100%" stop-color="#FFF" stop-opacity="0"/>
    </linearGradient>
    <linearGradient id="linearGradient-3" x1="67.4%" x2="47.721%" y1="30.977%" y2="60.297%">
      <stop offset="0%" stop-color="#FFF"/>
      <stop offset="100%" stop-color="#FFF" stop-opacity="0"/>
    </linearGradient>
    <linearGradient id="linearGradient-4" x1="70.304%" x2="33.092%" y1="31.277%" y2="65.591%">
      <stop offset="0%" stop-color="#FFF"/>
      <stop offset="100%" stop-color="#FFF" stop-opacity="0"/>
    </linearGradient>
    <linearGradient id="linearGradient-5" x1="44.165%" x2="54.882%" y1="1.544%" y2="96.995%">
      <stop offset="0%" stop-color="#FFF"/>
      <stop offset="100%" stop-color="#FFF" stop-opacity="0"/>
    </linearGradient>
    <linearGradient id="linearGradient-6" x1="60.283%" x2="45.245%" y1="6.718%" y2="70.013%">
      <stop offset="0%" stop-color="#FFF"/>
      <stop offset="100%" stop-color="#FFF" stop-opacity="0"/>
    </linearGradient>
  </defs>

  <g fill="none" fill-rule="evenodd">
    <rect width="1150" height="1150" x="0" y="0" fill="url(#bg-gradient)"/>

    <g transform="translate(189 204)">
      <path fill="url(#linearGradient-1)" opacity=".07" d="M679.2,375.2 C679.2,512.4 598.9,577.2 499.9,520.1 C400.9,463 320.7,305.4 320.7,168.3 C320.7,31.1 401,-33.7 500,23.4 C599,80.5 679.2,238 679.2,375.2 Z"/>
      <path fill="url(#linearGradient-2)" opacity=".4" d="M418.6,86.7 C395,73.1 371.7,66.1 350,65.9989284 C328.3,65.9 308.5,72.8 291.8,86.3 C275.1,99.8 261.9,119.5 252.9,144.4 C243.9,169.3 239.2,199 239.2,231.6 L418.5,335 L418.6,86.7 Z"/>
      <path fill="url(#linearGradient-3)" opacity=".2" d="M279.2,197.2 C279.2,246.3 289.7,300.4 309.4,352.6 C329.1,404.8 357.1,452.8 389.8,490.5 C422.5,528.2 458.6,553.9 493.4,564.4 C528.2,574.9 560.1,569.7 585.2,549.4 C610.3,529.1 627.3,494.7 634.3,450.6 C641.2,406.4 637.7,354.4 624.1,301.2 C610.5,248 587.6,195.9 558.1,151.6 C528.6,107.3 494,72.7 458.5,52.3 L458.5,300.7 L279.2,197.2 Z"/>
      <polygon fill="url(#linearGradient-4)" opacity=".3" points="329.7 172 32.2 .3 32.3 155.4 303.6 312 329.9 350.9"/>
      <polygon fill="#F5C4A1" points=".5 60.7 .5 18.6 112.8 83.4 112.8 125.5"/>
      <polygon fill="#FFF" opacity=".15" points="253.2 165.6 188 128 188 141.6 253.2 179.2"/>
      <polygon fill="#FFF" opacity=".15" points="253.3 192.9 127.6 120.4 127.6 134 253.3 206.5"/>
      <polygon fill="#FFF" opacity=".15" points="253.3 220.1 101 132.3 101 145.9 253.3 233.8"/>
      <path fill="#F5C4A1" d="M269.3,189.1 C269.3,201.9 276.9,216.6 286.2,222 C295.5,227.4 303.1,221.4 303.1,208.6 C303.1,195.8 295.5,181.1 286.2,175.7 C276.8,170.3 269.3,176.3 269.3,189.1 Z"/>
      <polygon fill="url(#linearGradient-5)" opacity=".3" points="449.4 411.9 747 583.7 747.1 738.8 475.8 582.2 449.6 590.8"/>
      <polygon fill="#F5C4A1" points="660.4 611 660.4 568.9 772.7 633.7 772.7 675.8"/>
      <polygon fill="#FFF" opacity=".15" points="526 493.9 591.2 531.5 591.2 545.1 526 507.5"/>
      <polygon fill="#FFF" opacity=".15" points="526 521.1 643.7 589 643.7 602.6 526 534.8"/>
      <polygon fill="#FFF" opacity=".15" points="526 548.4 678.3 636.3 678.3 649.9 526 562"/>
      <path fill="#F5C4A1" d="M509.9,498.8 C509.9,511.6 502.3,517.6 493,512.2 C483.7,506.8 476.1,492.1 476.1,479.3 C476.1,466.5 483.7,460.5 493,465.9 C502.3,471.3 509.9,486 509.9,498.8 Z"/>
      <polygon fill="url(#linearGradient-6)" opacity=".3" points="240.1 335.1 407.7 431.8 407.7 742.3 240.1 645.6"/>
      <polygon fill="#FFF" opacity=".15" points="256.6 519.4 391.2 597.1 391.2 610.7 256.6 533"/>
      <polygon fill="#FFF" opacity=".15" points="266 551.4 381.7 618.2 381.7 631.8 266 565"/>
      <polygon fill="#FFE5B4" points="314.9 606.9 198.3 539.6 198.3 574.3 314.9 641.6"/>
      <path fill="#FFE5B4" d="M343 457.2C343 472.2 334.3 479.3 323.6 473.1 312.9 466.9 304.2 449.6 304.2 434.5 304.2 419.5 312.9 412.4 323.6 418.6 334.3 424.9 343 442.2 343 457.2ZM323.6 485.2C306.3 475.1 292 484.6 289.5 506.3 289.1 510.1 291.9 515.1 295.4 517.1L351.8 550.1C355.3 552.1 358.1 550.5 357.7 546.2 355.2 521.4 340.9 495.3 323.6 485.2Z"/>
      <path fill="#FFF" opacity=".2" d="M146.8,309.7 L104,285 L104,270.6 L146.8,295.3 C150.3,297.3 155.4,301.4 159.7,307.7 C164.4,314.4 167.7,322.9 167.7,332.1 C167.7,342.3 165.1,348.1 160.2,349.7 C155.6,351.2 150.1,348.6 146.8,346.7 L129.2,336.5 L129.1,336.4 C127.6,335.5 125.2,334.6 123.3,335.2 C121.7,335.7 120,337.2 120,342.9 C120,348.6 121.8,352 123.2,354.1 C125,356.7 127.4,358.5 128.9,359.3 L129.1,359.4 L182.9,390.5 L182.9,404.9 L129.5,374 C125.8,372.1 120.5,368 115.9,361.6 C110.9,354.5 107.5,345.6 107.5,335.7 C107.5,325.8 110.9,320.8 115.8,319.4 C120.4,318.1 125.7,320 129.4,322.2 L146.8,332.3 C149.3,333.8 151.2,334.4 152.5,334 C153.5,333.7 155.3,332.3 155.3,325 C155.3,320.2 153.8,317.1 152.3,315.1 C150.5,312.4 148.2,310.5 146.8,309.7 Z"/>
      <path fill="#F5C4A1" d="M111.8,281.9 C111.8,294.8 104.2,300.9 94.9,295.6 C85.6,290.2 78,275.4 78,262.4 C78,249.5 85.6,243.4 94.9,248.7 C104.2,254.1 111.8,269 111.8,281.9 Z"/>
      <path fill="#FFE5B4" d="M204.8,409.9 C204.8,422.8 197.2,428.9 187.9,423.6 C178.6,418.2 171,403.4 171,390.4 C171,377.5 178.6,371.4 187.9,376.7 C197.2,382.1 204.8,397 204.8,409.9 Z"/>
    </g>
  </g>
</svg>