<svg xmlns="http://www.w3.org/2000/svg" width="100%" height="auto" viewBox="0 0 1150 1150" id="user-profile">
  <defs>
    <linearGradient id="bg-gradient" x1="0%" y1="0%" x2="100%" y2="100%">
      <stop offset="0%" stop-color="#000091"/>
      <stop offset="50%" stop-color="#3D4D9E"/>
      <stop offset="100%" stop-color="#6366f1"/>
    </linearGradient>

    <linearGradient id="linearGradient-1" x1="150.209%" x2="51.547%" y1="-17.807%" y2="55.652%">
      <stop offset="0%" stop-color="#FFF"/>
      <stop offset="100%" stop-color="#FFF" stop-opacity="0"/>
    </linearGradient>
    <linearGradient id="linearGradient-2" x1="89.833%" x2="11.435%" y1="5.86%" y2="92.735%">
      <stop offset="0%" stop-color="#FFF"/>
      <stop offset="100%" stop-color="#FFF" stop-opacity="0"/>
    </linearGradient>
    <linearGradient id="linearGradient-3" x1="150.216%" x2="51.553%" y1="-17.812%" y2="55.647%">
      <stop offset="0%" stop-color="#FFF"/>
      <stop offset="100%" stop-color="#FFF" stop-opacity="0"/>
    </linearGradient>
    <linearGradient id="linearGradient-4" x1="89.838%" x2="11.44%" y1="5.855%" y2="92.729%">
      <stop offset="0%" stop-color="#FFF"/>
      <stop offset="100%" stop-color="#FFF" stop-opacity="0"/>
    </linearGradient>
    <linearGradient id="linearGradient-5" x1="59.352%" x2="40.648%" y1="32.202%" y2="67.798%">
      <stop offset="0%" stop-color="#FFF"/>
      <stop offset="100%" stop-color="#FFF" stop-opacity="0"/>
    </linearGradient>
    <linearGradient id="linearGradient-6" x1="59.365%" x2="40.672%" y1="32.176%" y2="67.753%">
      <stop offset="0%" stop-color="#FFF"/>
      <stop offset="100%" stop-color="#FFF" stop-opacity="0"/>
    </linearGradient>
    <linearGradient id="linearGradient-7" x1="44.152%" x2="54.868%" y1="1.544%" y2="97.001%">
      <stop offset="0%" stop-color="#FFF"/>
      <stop offset="100%" stop-color="#FFF" stop-opacity="0"/>
    </linearGradient>
    <linearGradient id="linearGradient-8" x1="70.31%" x2="33.099%" y1="31.269%" y2="65.587%">
      <stop offset="0%" stop-color="#FFF"/>
      <stop offset="100%" stop-color="#FFF" stop-opacity="0"/>
    </linearGradient>
    <linearGradient id="linearGradient-9" x1="63.437%" x2="29.728%" y1="35.526%" y2="71.787%">
      <stop offset="0%" stop-color="#FFF"/>
      <stop offset="100%" stop-color="#FFF" stop-opacity="0"/>
    </linearGradient>
    <linearGradient id="linearGradient-10" x1="57.178%" x2="38.67%" y1="42.828%" y2="64.806%">
      <stop offset="0%" stop-color="#FFF"/>
      <stop offset="100%" stop-color="#FFF" stop-opacity="0"/>
    </linearGradient>
  </defs>

  <g fill="none" fill-rule="evenodd">
    <rect width="1150" height="1150" x="0" y="0" fill="url(#bg-gradient)"/>

    <g transform="translate(216 112)">
      <path fill="url(#linearGradient-1)" opacity=".5" d="M382.3,284.8 C319.4,248.1 267.4,282.4 258.2,361.6 C256.6,375.3 267,393.4 279.7,400.8 L484.9,520.6 C497.6,528 508,522 506.4,506.4 C497.2,416.7 445.1,321.5 382.3,284.8 Z"/>
      <path fill="url(#linearGradient-2)" opacity=".5" d="M452.4,182 C452.4,236.7 420.8,262.5 381.8,239.7 C342.8,216.9 311.2,154.2 311.2,99.5 C311.2,44.8 342.8,19 381.8,41.8 C420.8,64.6 452.4,127.3 452.4,182 Z"/>
      <path fill="url(#linearGradient-3)" opacity=".07" d="M422.7,252 C359.8,215.3 307.8,249.6 298.6,328.8 C297,342.5 307.4,360.6 320.1,368 L525.3,487.8 C538,495.2 548.4,489.2 546.8,473.6 C537.6,383.9 485.6,288.7 422.7,252 Z"/>
      <path fill="url(#linearGradient-4)" opacity=".07" d="M492.8,149.2 C492.8,203.9 461.2,229.7 422.2,206.9 C383.2,184.1 351.6,121.4 351.6,66.7 C351.6,12 383.2,-13.8 422.2,9 C461.2,31.8 492.8,94.5 492.8,149.2 Z"/>
      <polygon fill="url(#linearGradient-5)" opacity=".2" points="628.7 560.9 451 458.3 451 550.9 628.7 653.5"/>
      <path fill="#FFE5B4" d="M487.1,510.2 C487.1,517.8 482.6,521.4 477,518.2 C471.4,515 466.9,506.2 466.9,498.6 C466.9,491 471.4,487.4 477,490.6 C482.6,493.8 487.1,502.6 487.1,510.2 Z"/>
      <polygon fill="#FFF" opacity=".15" points="496.5 506.9 549.9 537.8 549.9 548.9 496.4 518"/>
      <polygon fill="#FFF" opacity=".15" points="496.5 529.2 610.3 594.9 610.3 606.2 496.5 540.5"/>
      <polygon fill="url(#linearGradient-6)" opacity=".2" points="267.7 453.9 90 351.4 90 444 267.7 546.6"/>
      <path fill="#F5C4A1" d="M126.1,403.2 C126.1,410.8 121.6,414.4 116,411.2 C110.4,408 105.9,399.2 105.9,391.6 C105.9,384 110.4,380.4 116,383.6 C121.6,386.8 126.1,395.6 126.1,403.2 Z"/>
      <polygon fill="#FFF" opacity=".15" points="135.2 400.4 167.4 419 167.4 430.3 135.2 411.7"/>
      <polygon fill="#FFF" opacity=".15" points="135.5 422.7 249.3 488.4 249.3 499.7 135.5 434"/>
      <polygon fill="url(#linearGradient-7)" opacity=".3" points="382.2 556.3 718.9 750.7 719 926.2 412 749 382.3 758.7"/>
      <path fill="#FFE5B4" d="M450.6,654.6 C450.6,669.1 442.1,675.8 431.5,669.7 C420.9,663.6 412.4,646.9 412.4,632.5 C412.4,618 420.9,611.3 431.5,617.4 C442,623.5 450.6,640.2 450.6,654.6 Z"/>
      <polygon fill="#FFF" opacity=".15" points="468.8 649 542.6 691.6 542.6 707 468.8 664.4"/>
      <polygon fill="#FFF" opacity=".15" points="468.8 679.9 689.2 807.1 689.2 822.5 468.8 695.3"/>
      <polygon fill="#FFF" opacity=".15" points="468.8 710.8 641.1 810.3 641.1 825.7 468.8 726.2"/>
      <polygon fill="url(#linearGradient-8)" opacity=".3" points="336.7 606.7 0 412.4 .1 587.9 307.1 765.1 336.8 809.1"/>
      <path fill="#F5C4A1" d="M268.3,626 C268.3,640.5 276.9,657.1 287.4,663.2 C298,669.3 306.5,662.5 306.5,648 C306.5,633.5 297.9,616.9 287.4,610.8 C276.9,604.8 268.3,611.6 268.3,626 Z"/>
      <polygon fill="#FFF" opacity=".15" points="250.1 599.5 176.3 556.9 176.3 572.3 250.1 614.9"/>
      <polygon fill="#FFF" opacity=".15" points="250.2 630.3 29.8 503.1 29.8 518.5 250.1 645.7"/>
      <polygon fill="#FFF" opacity=".15" points="250.2 661.2 77.9 561.7 77.9 577.1 250.2 676.6"/>
      <path fill="url(#linearGradient-9)" opacity=".2" d="M140.2,716 C146.2,719.4 151,727.8 151,734.8 L151,765.3 L171.2,776.9 C177.2,780.3 182,788.7 182,795.6 C182,802.5 177.2,805.3 171.2,801.9 L151,790.2 L151,820.7 C151,827.6 146.2,830.4 140.2,827 C134.2,823.6 129.4,815.2 129.4,808.3 L129.4,777.8 L109.2,766.2 C103.2,762.8 98.4,754.4 98.4,747.5 C98.4,740.6 103.2,737.8 109.2,741.2 L129.4,752.8 L129.4,722.3 C129.3,715.3 134.2,712.5 140.2,716 Z"/>
      <path fill="url(#linearGradient-10)" opacity=".2" d="M574.7,325.3 L602.5,379.9 C606.3,387.4 605.7,394.9 601.1,396.7 C596.5,398.5 589.7,393.8 585.9,386.3 L585.6,385.6 L585.6,446.2 C585.6,453.1 580.8,455.9 574.8,452.5 C568.8,449 564,440.7 564,433.8 L564,373.2 L563.7,373.5 C559.9,376.6 553,373.4 548.5,366.3 C543.9,359.2 543.3,351 547.1,347.9 L574.7,325.3 Z"/>
      <path fill="#FFF" opacity=".2" d="M336.7,422.9 L293.9,398.2 L293.9,383.8 L336.7,408.5 C340.2,410.5 345.3,414.6 349.6,420.9 C354.3,427.6 357.6,436.1 357.6,445.3 C357.6,455.5 355,461.3 350.1,462.9 C345.5,464.4 340,461.8 336.7,459.9 L319.1,449.7 L319,449.6 C317.5,448.7 315.1,447.8 313.2,448.4 C311.6,448.9 309.9,450.4 309.9,456.1 C309.9,461.8 311.7,465.2 313.1,467.3 C314.9,469.9 317.3,471.7 318.8,472.5 L319,472.6 L372.8,503.7 L372.8,518.1 L319.3,487.2 C315.6,485.3 310.3,481.2 305.7,474.8 C300.7,467.7 297.3,458.8 297.3,448.9 C297.3,439 300.7,434 305.6,432.6 C310.2,431.3 315.5,433.2 319.2,435.4 L336.6,445.5 C339.1,447 341,447.6 342.3,447.2 C343.3,446.9 345.1,445.5 345.1,438.2 C345.1,433.4 343.6,430.3 342.1,428.3 C340.4,425.6 338.2,423.7 336.7,422.9 Z"/>
      <path fill="#F5C4A1" d="M301.8,395.1 C301.8,408 294.2,414.1 284.9,408.8 C275.6,403.4 268,388.6 268,375.6 C268,362.7 275.6,356.6 284.9,361.9 C294.2,367.3 301.8,382.2 301.8,395.1 Z"/>
      <path fill="#FFE5B4" d="M394.8,523.1 C394.8,536 387.2,542.1 377.9,536.8 C368.6,531.4 361,516.6 361,503.6 C361,490.7 368.6,484.6 377.9,489.9 C387.2,495.3 394.8,510.2 394.8,523.1 Z"/>
    </g>
  </g>
</svg>