<?xml version="1.0" encoding="UTF-8"?>
<!-- Generator: Adobe Illustrator 25.1.0, SVG Export Plug-In . SVG Version: 6.00 Build 0)  -->
<svg version="1.1" id="Calque_1" xmlns="http://www.w3.org/2000/svg" xmlns:xlink="http://www.w3.org/1999/xlink" x="0px" y="0px" viewBox="0 0 368.4 108.4" style="enable-background:new 0 0 368.4 108.4;" xml:space="preserve">
<style type="text/css">
	.st0{fill:#2A3D4D;}
	.st1{fill:#FBBF0D;}
	.st2{fill:#EA6409;}
	.st3{fill:#F49D54;}
	.st4{fill:#64C6F1;}
	.st5{fill:#7E97CE;}
	.st6{fill:#73B0A5;}
	.st7{fill:#60B467;}
	.st8{fill:#C6CD2C;}
	.st9{fill:#B0CC4E;}
	.st10{fill:#FDEB7D;}
	.st11{fill:#EF7757;}
	.st12{fill:#5A71B4;}
	.st13{fill:#448D60;}
	.st14{fill:#96AB5B;}
	.st15{fill:#F7D05C;}
	.st16{fill:#405678;}
</style>
<path class="st0" d="M33.8,101.5"/>
<path class="st1" d="M58,23.5c6.2-7,8.2-17.8,8.5-23.5H51c0,0,0,0.1,0,0.1h1.4C52.4,7.1,54.5,15.5,58,23.5"/>
<path class="st2" d="M110.9,15.8L110.9,15.8l0.4,1.4c-9.3,3.3-16.2,7.6-21.4,12.6c3.9,1.7,8.1,2.6,12.3,2.6c4.2,0,8.3,0.2,13.6-1.9  L110.9,15.8z"/>
<path class="st3" d="M87.5,14.9C80.7,10.8,77.3,2.1,77,0.1c-0.5,0-8.2,0-8.2,0c0,5.7,5.4,19.6,16.2,27c0.7,0.5,1.4,0.9,2.2,1.3  c4.8-4.8,10.4-8.6,16.6-11.3C97.7,17.6,90.6,16.7,87.5,14.9"/>
<path class="st3" d="M115.8,30.5l-4.9-14.8c-22.5,8-31.1,21-36.5,39.4c5.7,0.3,11.2,1.3,16.7,2.9C94.3,43.6,98.6,36.6,115.8,30.5"/>
<path class="st4" d="M97.1,63.2c1,7.6,4.8,16.9,14.4,27.6l10.2-9.2C115.1,73.6,106.6,67.3,97.1,63.2"/>
<path class="st5" d="M110.6,48.8c1.2-3.9,4.3-6.8,8.2-7.9l-2.4-8.2c-8.9,2.6-15.9,9.6-18.5,18.5c-0.8,2.9-1.1,5.8-1,8.8  c7.6,3.1,14.6,7.5,20.6,13.1C112.2,64.3,109.2,53.8,110.6,48.8"/>
<path class="st5" d="M111.5,90.8l11.4-10.2c-16.1-18.8-36.2-24.7-55.6-24.3c1.6,5.4,2.9,10.9,3.8,16.4  C82.1,71.8,98.1,75.2,111.5,90.8"/>
<path class="st6" d="M69.4,81c-12.2,5.8-13.1,17.8-14,24.9l13,2.3C70.1,100.3,70.4,90.9,69.4,81"/>
<path class="st7" d="M72.5,99.5c1.6-3.2,3.8-5.9,6.9-7.2c8.4-3.5,18-1.1,23.7,6l5.8-5.2C100.9,83,86.8,75.3,73.4,79.4  c-0.5,0.1-0.9,0.3-1.3,0.5C72.8,86.4,73,93,72.5,99.5"/>
<path class="st7" d="M63.7,49.9c-5,2.3-10.4,3.7-15.9,3.8c7.1,12.5,10.6,28.8,7.6,52.2l14.4,2.6C73.6,90.8,70.3,68.1,63.7,49.9"/>
<path class="st8" d="M7.2,26.7L0.7,39.1C14.8,46.5,27.2,50.4,38.5,51C33.1,42.8,24,34.3,7.2,26.7"/>
<path class="st9" d="M35.7,69.2c4.8,12.7-4.3,26.6-7.2,31.9l7.3,1.5c5.1-9.6,14.3-24.5,8.1-41c-1-2.7-2.2-5.3-3.6-7.8  c-8.5-0.3-16.9-2-24.9-5.1C24.5,54.7,32.8,61.7,35.7,69.2"/>
<path class="st9" d="M59,31.8c-12.3,8.3-29.3,6.6-51.8-5.2L0,40.3c15.4,8.1,29.1,12.1,41.3,12.1c10.2,0,19.6-1,27.5-7.7  C65,40.9,61.7,36.5,59,31.8"/>
<path class="st10" d="M41.6,20.3c-9.3,4.7-24-0.6-29.1-3.6l-4.1,7.6c6,3.5,16.6,6.7,27.9,6.7c4.5,0,8.9-0.6,13.2-1.8  c2.3-0.7,4.5-1.9,6.3-3.5c-2.7-5.7-4.6-11.8-5.6-18C48.7,13.5,45.4,18.4,41.6,20.3"/>
<path class="st10" d="M66.4,0H51c0.1,16,10.5,39.4,24.3,47.8c1.8-5,4.3-9.8,7.4-14.2C73,24.9,66.5,10.9,66.4,0"/>
<path class="st11" d="M110.8,15.9L110.8,15.9l0.4,1.4c-9.3,3.3-16.2,7.5-21.4,12.6c3.9,1.7,8.1,2.6,12.3,2.6c4.2,0,8.3,0.2,13.6-1.8  L110.8,15.9z"/>
<path class="st12" d="M97.2,63.1c1,7.6,4.8,16.9,14.4,27.6l10.2-9.2C115.1,73.5,106.7,67.2,97.2,63.1"/>
<path class="st13" d="M69.5,81c-12.2,5.8-13.1,17.8-14,24.9l13,2.3C70.2,100.3,70.5,90.9,69.5,81"/>
<path class="st14" d="M7.2,26.8L0.7,39.2c14.1,7.4,26.6,11.3,37.9,11.9C33.1,42.9,24.1,34.4,7.2,26.8"/>
<path class="st15" d="M57.8,23.5C64,16.5,66.1,5.7,66.3,0H50.9v0.1h1.4C52.3,7.1,54.4,15.5,57.8,23.5"/>
<path class="st11" d="M171.5,63.8l7.5,5.8c-4.7,6.2-12,9.8-19.8,9.6c-13.7-0.1-24.7-11.3-24.5-25s11.3-24.7,25-24.5  c7.5,0.1,14.6,3.6,19.3,9.5l-7.5,5.8c-2.8-4.1-7.4-6.5-12.3-6.4c-8.8,0-15.1,6.9-15.1,15.9s6.3,15.9,15.1,15.9  C164.1,70.3,168.7,67.9,171.5,63.8z"/>
<path class="st11" d="M199.7,79.2c-12,0-18.8-8.4-18.8-18.2s6.3-18.2,17.4-18.2c9.4,0,15.5,6.3,15.5,15.1c0,1.6-0.2,3.2-0.5,4.8  h-23.7c0.8,6.3,4.7,8.9,10,8.9c3.4,0.1,6.6-1.4,8.7-4l6.1,4.8C211.3,76.6,206.1,79.2,199.7,79.2z M189.9,56.5h15.5  c-0.1-3.9-3.3-6.9-7.1-6.8c-0.1,0-0.1,0-0.2,0C193.8,49.7,190.9,52.1,189.9,56.5z"/>
<path class="st11" d="M220.2,44.1h8.5v3.3c2.3-2.5,5.5-4,8.9-4c1,0,2,0.2,2.9,0.5v8.4c-1.2-0.3-2.5-0.5-3.8-0.5  c-3.3-0.1-6.4,1.6-8.1,4.4v21.6h-8.5L220.2,44.1z"/>
<path class="st11" d="M260.3,79.2c-12,0-18.8-8.4-18.8-18.2s6.3-18.2,17.4-18.2c9.4,0,15.5,6.3,15.5,15.1c0,1.6-0.2,3.2-0.5,4.8  h-23.6c0.8,6.3,4.7,8.9,10,8.9c3.4,0.1,6.6-1.4,8.7-4l6.1,4.8C271.9,76.6,266.6,79.2,260.3,79.2z M250.5,56.5h15.5  c-0.1-3.9-3.3-6.9-7.1-6.8c-0.1,0-0.1,0-0.2,0C254.3,49.7,251.4,52.1,250.5,56.5z"/>
<path class="st11" d="M280.7,44.1h8.5v2.5c2.4-2.5,5.8-3.9,9.3-3.9c4.2-0.1,8.1,2,10.3,5.5c2.6-3.6,6.9-5.6,11.3-5.5  c7,0,12.5,4.8,12.5,14.3v20.8H324V57.4c0-4.1-2.2-6.6-6-6.6s-5.7,2.5-7,4.8c0.1,0.5,0.1,1,0.1,1.5v20.8h-8.6V57.4  c0-4.1-2.2-6.6-6-6.6s-5.9,2.9-7.2,5v22h-8.5L280.7,44.1z"/>
<path class="st11" d="M338.4,68.7c0-5.1,4-8.9,11.2-10.1l10.3-1.8V56c0-3.6-2.7-5.8-6.6-5.8c-3.1,0-5.9,1.5-7.6,4l-6.2-4.8  c3-4.2,8-6.7,14.1-6.7c9.8,0,14.8,5.8,14.8,13.3v21.8h-8.5v-3.3c-2.1,2.6-6.2,4.3-10.1,4.3C343,78.8,338.4,74.9,338.4,68.7z   M351.5,72.1c3.4,0.1,6.6-1.6,8.4-4.5v-4.8l-8,1.3c-3.6,0.6-5,2.1-5,4.1C346.9,70.6,348.6,72.1,351.5,72.1z"/>
<path class="st16" d="M144,95.9l0.9,0.7c-0.7,1.1-2,1.8-3.3,1.8c-2.5-0.2-4.4-2.4-4.2-5c0.2-2.3,2-4.1,4.2-4.2  c1.3,0,2.6,0.7,3.3,1.8l-0.9,0.7c-0.5-0.9-1.5-1.4-2.5-1.4c-1.9,0.3-3.3,2-3,4c0.2,1.6,1.5,2.8,3,3C142.5,97.3,143.4,96.8,144,95.9z  "/>
<path class="st16" d="M147.7,89.5h1.1v7.6h3.2v1.1h-4.3V89.5z"/>
<path class="st16" d="M154.8,89.5h1.1v8.7h-1.1V89.5z"/>
<path class="st16" d="M159.6,89.5h1.4l2.4,4.4l2.4-4.4h1.4v8.7h-1.1v-7.1l-2.3,4.1H163l-2.3-4.1v7.1h-1.1L159.6,89.5z"/>
<path class="st16" d="M173.1,89.5h1.4l3.2,8.7h-1.1l-0.9-2.6h-3.7l-0.9,2.6h-1.1L173.1,89.5z M175.3,94.6l-1.5-4.1l-1.5,4.1H175.3z"/>
<path class="st16" d="M178.7,89.5h6.4v1.1h-2.6v7.6h-1.1v-7.6h-2.6L178.7,89.5z"/>
<path class="st16" d="M197.7,98.2l-0.9-0.9c-0.6,0.7-1.6,1.2-2.5,1.1c-1.4,0.1-2.7-1-2.8-2.4c0-0.1,0-0.2,0-0.3c0-1,0.6-2,1.6-2.4  c-0.5-0.5-0.8-1.3-0.8-2c-0.1-1.1,0.8-2.1,1.9-2.1c0.1,0,0.2,0,0.3,0c1.1-0.1,2,0.8,2.1,1.9c0,0.1,0,0.1,0,0.2c0,1.1-0.8,2-1.8,2.3  l2,2.1c0.4-0.7,0.6-1.5,0.8-2.2h1c-0.2,1.1-0.6,2.1-1.1,3l1.6,1.7L197.7,98.2z M194.4,97.5c0.7,0,1.4-0.3,1.8-0.9l-2.4-2.5l-0.1-0.1  c-0.7,0.3-1.2,1-1.1,1.7C192.6,96.7,193.3,97.5,194.4,97.5C194.3,97.5,194.3,97.5,194.4,97.5z M194.1,93c1-0.3,1.5-0.8,1.5-1.6  c0-0.6-0.4-1.1-1.1-1.2c0,0,0,0-0.1,0c-0.6,0-1.1,0.4-1.2,1.1c0,0,0,0.1,0,0.1C193.3,92,193.6,92.6,194.1,93z"/>
<path class="st16" d="M205.1,89.5h6.4v1.1h-2.6v7.6h-1.1v-7.6h-2.6L205.1,89.5z"/>
<path class="st16" d="M214.2,89.5h4.3v1h-3.2v2.8h2.8v1h-2.8v2.9h3.2v1h-4.3V89.5z"/>
<path class="st16" d="M221.8,89.5h2.1c1.3-0.1,2.4,0.8,2.6,2.1c0,0.1,0,0.2,0,0.4c0.1,0.9-0.5,1.8-1.3,2.2l2.6,4.1h-1.3l-2.3-3.8  h-1.3v3.8h-1.1V89.5z M222.9,90.5v2.9h1.1c0.8,0,1.5-0.6,1.5-1.4c0-0.8-0.6-1.5-1.4-1.5c0,0,0,0,0,0H222.9z"/>
<path class="st16" d="M230.2,89.5h2.1c1.3-0.1,2.5,0.8,2.6,2.1c0,0.1,0,0.2,0,0.3c0,0.9-0.5,1.8-1.3,2.2l2.6,4.1H235l-2.3-3.8h-1.3  v3.8h-1.1L230.2,89.5z M231.3,90.5v2.9h1.1c0.8,0,1.5-0.6,1.5-1.4c0-0.8-0.6-1.5-1.4-1.5c0,0,0,0,0,0H231.3z"/>
<path class="st16" d="M238.6,89.5h1.1v8.7h-1.1V89.5z"/>
<path class="st16" d="M242.5,89.5h6.4v1.1h-2.6v7.6h-1.1v-7.6h-2.6V89.5z"/>
<path class="st16" d="M262,89.5h1.1v8.7H262V89.5z"/>
<path class="st16" d="M266.7,89.5h2.1c1.3-0.1,2.4,0.8,2.6,2.1c0,0.1,0,0.2,0,0.4c0.1,0.9-0.5,1.8-1.3,2.2l2.6,4.1h-1.3l-2.3-3.8  h-1.3v3.8h-1.1V89.5z M267.8,90.5v2.9h1.1c0.8,0,1.5-0.6,1.5-1.4c0-0.8-0.6-1.5-1.4-1.5c0,0,0,0,0,0H267.8z"/>
<path class="st16" d="M275.2,89.5h4.3v1h-3.2v2.8h2.8v1h-2.8v2.9h3.2v1h-4.3V89.5z"/>
<path class="st16" d="M282.9,96.2c0.4,0.7,1.1,1.1,1.9,1.2c0.7,0.1,1.4-0.5,1.4-1.2c0-0.1,0-0.1,0-0.2c0-2-3.8-1.5-3.8-4.4  c0-1.3,1-2.3,2.3-2.4c0,0,0.1,0,0.1,0c1,0,2,0.5,2.5,1.4l-0.8,0.8c-0.3-0.7-1-1.1-1.7-1.1c-0.7,0-1.2,0.5-1.3,1.1c0,0,0,0.1,0,0.1  c0,1.9,3.8,1.5,3.8,4.4c0.1,1.3-0.9,2.4-2.2,2.5c-0.1,0-0.2,0-0.2,0c-1.1,0-2.1-0.5-2.7-1.4L282.9,96.2z"/>
<path class="st16" d="M294.8,89.5h3.1c2.4,0.1,4.3,2.2,4.1,4.6c-0.1,2.2-1.9,4-4.1,4.1h-3.1V89.5z M295.9,90.6v6.5h2  c1.8-0.1,3.2-1.7,3.1-3.5c-0.1-1.7-1.4-3-3.1-3.1L295.9,90.6z"/>
<path class="st16" d="M305,89.5h4.3v1h-3.2v2.8h2.8v1h-2.8v2.9h3.2v1H305V89.5z"/>
<path class="st16" d="M316.8,89.5h3.1c2.4,0.1,4.3,2.2,4.1,4.6c-0.1,2.2-1.9,4-4.1,4.1h-3.1V89.5z M317.9,90.6v6.5h2  c1.8-0.1,3.2-1.7,3.1-3.5c-0.1-1.7-1.4-3-3.1-3.1L317.9,90.6z"/>
<path class="st16" d="M327.1,89.5h4.3v1h-3.2v2.8h2.8v1h-2.8v2.9h3.2v1h-4.3V89.5z"/>
<path class="st16" d="M334.6,89.5h1.4l2.4,4.4l2.4-4.4h1.4v8.7h-1.1v-7.1l-2.3,4.1H338l-2.4-4.1v7.1h-1V89.5z"/>
<path class="st16" d="M348.1,89.5h1.4l3.2,8.7h-1.1l-0.9-2.6H347l-0.9,2.6h-1.1L348.1,89.5z M350.3,94.6l-1.5-4.1l-1.5,4.1H350.3z"/>
<path class="st16" d="M355.4,89.5h1.1v8.7h-1.1V89.5z"/>
<path class="st16" d="M360.2,89.5h1.4l4.5,7.3v-7.3h1.1v8.7h-1.4l-4.5-7.3v7.3h-1.1V89.5z"/>
<path class="st16" d="M258.9,94.1c0,2.5-1.7,4.6-4.2,4.6c-2.5,0-4.2-2.1-4.2-4.6s1.7-4.6,4.2-4.6C257.2,89.4,258.9,91.6,258.9,94.1z   M257.8,94.1c0-1.9-1.3-3.5-3.1-3.5c-1.8,0-3.1,1.6-3.1,3.5s1.3,3.5,3.1,3.5C256.5,97.6,257.8,96,257.8,94.1z"/>
</svg>