<?xml version="1.0" encoding="UTF-8" standalone="no"?>
<!-- Created with Inkscape (http://www.inkscape.org/) -->

<svg
   version="1.1"
   id="svg1"
   width="4553.3335"
   height="3333.3333"
   viewBox="0 0 4553.3335 3333.3333"
   sodipodi:docname="Bair-M_Bus-01_Single-12.eps"
   xmlns:inkscape="http://www.inkscape.org/namespaces/inkscape"
   xmlns:sodipodi="http://sodipodi.sourceforge.net/DTD/sodipodi-0.dtd"
   xmlns="http://www.w3.org/2000/svg"
   xmlns:svg="http://www.w3.org/2000/svg">
  <defs
     id="defs1" />
  <sodipodi:namedview
     id="namedview1"
     pagecolor="#ffffff"
     bordercolor="#000000"
     borderopacity="0.25"
     inkscape:showpageshadow="2"
     inkscape:pageopacity="0.0"
     inkscape:pagecheckerboard="0"
     inkscape:deskcolor="#d1d1d1">
    <inkscape:page
       x="0"
       y="0"
       inkscape:label="1"
       id="page1"
       width="4553.3335"
       height="3333.3333"
       margin="0"
       bleed="0" />
  </sodipodi:namedview>
  <g
     id="g1"
     inkscape:groupmode="layer"
     inkscape:label="1">
    <g
       id="group-R5">
      <path
         id="path2"
         d="M 34150,0 H 0 V 25000 H 34150 V 0"
         style="fill:#ffffff;fill-opacity:1;fill-rule:nonzero;stroke:none"
         transform="matrix(0.13333333,0,0,-0.13333333,0,3333.3333)" />
      <path
         id="path3"
         d="m 25175.5,12644.7 c -578.2,0 -1048.7,-470.4 -1048.7,-1048.7 0,-578.3 470.5,-1048.7 1048.7,-1048.7 h 5658.8 c 578.3,0 1048.7,470.4 1048.7,1048.7 0,578.3 -470.4,1048.7 -1048.7,1048.7 z m 5658.8,-2145.1 h -5658.8 c -604.5,0 -1096.3,491.8 -1096.3,1096.4 0,604.5 491.8,1096.4 1096.3,1096.4 h 5658.8 c 604.5,0 1096.4,-491.9 1096.4,-1096.4 0,-604.6 -491.9,-1096.4 -1096.4,-1096.4"
         style="fill:#000000;fill-opacity:1;fill-rule:nonzero;stroke:none"
         transform="matrix(0.13333333,0,0,-0.13333333,0,3333.3333)" />
      <path
         id="path4"
         d="m 28078.4,8329.7 c -2.1,0 -4.2,0 -6.3,0 -13.1,0.1 -23.8,10.8 -23.7,23.9 0.1,13.2 10.7,23.7 23.8,23.7 1.9,-0.1 4.2,0 6.2,0 431.1,0 857.7,214.3 1114.8,560.3 258.3,347.6 339.9,820.7 213,1234.8 -3.9,12.6 3.2,25.9 15.8,29.8 12.7,3.9 25.9,-3.3 29.8,-15.8 131.2,-428.3 46.8,-917.7 -220.4,-1277.2 -265.9,-357.9 -707.2,-579.5 -1153,-579.5"
         style="fill:#000000;fill-opacity:1;fill-rule:nonzero;stroke:none"
         transform="matrix(0.13333333,0,0,-0.13333333,0,3333.3333)" />
      <path
         id="path5"
         d="m 30819.2,11869.8 h -1052.4 c -13.2,0 -23.9,10.7 -23.9,23.9 0,13.1 10.7,23.8 23.9,23.8 h 1052.4 c 13.2,0 23.9,-10.7 23.9,-23.8 0,-13.2 -10.7,-23.9 -23.9,-23.9"
         style="fill:#000000;fill-opacity:1;fill-rule:nonzero;stroke:none"
         transform="matrix(0.13333333,0,0,-0.13333333,0,3333.3333)" />
      <path
         id="path6"
         d="m 29019.5,11869.8 h -3911.8 c -13.2,0 -23.9,10.7 -23.9,23.9 0,13.1 10.7,23.8 23.9,23.8 h 3911.8 c 13.1,0 23.8,-10.7 23.8,-23.8 0,-13.2 -10.7,-23.9 -23.8,-23.9"
         style="fill:#000000;fill-opacity:1;fill-rule:nonzero;stroke:none"
         transform="matrix(0.13333333,0,0,-0.13333333,0,3333.3333)" />
      <path
         id="path7"
         d="m 30819.2,11368.3 h -3636.5 c -13.2,0 -23.9,10.7 -23.9,23.8 0,13.2 10.7,23.9 23.9,23.9 h 3636.5 c 13.2,0 23.9,-10.7 23.9,-23.9 0,-13.1 -10.7,-23.8 -23.9,-23.8"
         style="fill:#000000;fill-opacity:1;fill-rule:nonzero;stroke:none"
         transform="matrix(0.13333333,0,0,-0.13333333,0,3333.3333)" />
      <path
         id="path8"
         d="m 26363.9,11368.3 h -1256.2 c -13.2,0 -23.9,10.7 -23.9,23.8 0,13.2 10.7,23.9 23.9,23.9 h 1256.2 c 13.1,0 23.8,-10.7 23.8,-23.9 0,-13.1 -10.7,-23.8 -23.8,-23.8"
         style="fill:#000000;fill-opacity:1;fill-rule:nonzero;stroke:none"
         transform="matrix(0.13333333,0,0,-0.13333333,0,3333.3333)" />
      <path
         id="path9"
         d="M 23114,4509 H 4373.36 c -13.17,0 -23.83,10.6 -23.83,23.8 V 18745 c 0,13.2 10.66,23.8 23.83,23.8 H 14744.7 c 13.2,0 23.9,-10.6 23.9,-23.8 0,-13.2 -10.7,-23.8 -23.9,-23.8 H 4397.18 V 4556.6 H 23090.2 v 9265.3 c 0,13.2 10.7,23.9 23.8,23.9 13.2,0 23.9,-10.7 23.9,-23.9 V 4532.8 c 0,-13.2 -10.7,-23.8 -23.9,-23.8"
         style="fill:#000000;fill-opacity:1;fill-rule:nonzero;stroke:none"
         transform="matrix(0.13333333,0,0,-0.13333333,0,3333.3333)" />
      <path
         id="path10"
         d="M 28007.4,21650 H 17244 c -1126.7,0 -2040.1,-913.4 -2040.1,-2040.1 0,-1126.6 913.4,-2040 2040.1,-2040 h 10763.4 c 1126.7,0 2040.1,913.3 2040.1,2040 0,1126.7 -913.4,2040.1 -2040.1,2040.1"
         style="fill:#e2eaff;fill-opacity:1;fill-rule:nonzero;stroke:none"
         transform="matrix(0.13333333,0,0,-0.13333333,0,3333.3333)" />
      <path
         id="path11"
         d="m 15358,14372.1 c -2.9,0 -5.8,0 -8.7,0 -19.8,0.1 -35.7,16.2 -35.6,35.9 0.1,19.7 16.1,35.6 35.8,35.6 2.3,0.2 5.7,-0.1 8.5,-0.1 591,0 1176,293.9 1528.5,768.3 354.2,476.6 466.1,1125.4 292.1,1693.2 -5.7,18.9 4.9,38.9 23.7,44.7 18.9,5.7 38.9,-4.9 44.7,-23.8 180.5,-589.1 64.4,-1262.2 -303.1,-1756.7 -365.7,-492.3 -972.7,-797.1 -1585.9,-797.1"
         style="fill:#e2eaff;fill-opacity:1;fill-rule:nonzero;stroke:none"
         transform="matrix(0.13333333,0,0,-0.13333333,0,3333.3333)" />
      <path
         id="path12"
         d="m 27978.7,20140.4 h -2001.9 c -19.7,0 -35.7,16 -35.7,35.7 0,19.8 16,35.8 35.7,35.8 h 2001.9 c 19.7,0 35.8,-16 35.8,-35.8 0,-19.7 -16.1,-35.7 -35.8,-35.7"
         style="fill:#ffffff;fill-opacity:1;fill-rule:nonzero;stroke:none"
         transform="matrix(0.13333333,0,0,-0.13333333,0,3333.3333)" />
      <path
         id="path13"
         d="m 24555.4,20140.4 h -7440.5 c -19.7,0 -35.7,16 -35.7,35.7 0,19.8 16,35.8 35.7,35.8 h 7440.5 c 19.8,0 35.8,-16 35.8,-35.8 0,-19.7 -16,-35.7 -35.8,-35.7"
         style="fill:#ffffff;fill-opacity:1;fill-rule:nonzero;stroke:none"
         transform="matrix(0.13333333,0,0,-0.13333333,0,3333.3333)" />
      <path
         id="path14"
         d="m 27978.7,19186.5 h -6917 c -19.7,0 -35.8,16 -35.8,35.7 0,19.7 16.1,35.7 35.8,35.7 h 6917 c 19.7,0 35.8,-16 35.8,-35.7 0,-19.7 -16.1,-35.7 -35.8,-35.7"
         style="fill:#ffffff;fill-opacity:1;fill-rule:nonzero;stroke:none"
         transform="matrix(0.13333333,0,0,-0.13333333,0,3333.3333)" />
      <path
         id="path15"
         d="m 19504.3,19186.5 h -2389.4 c -19.7,0 -35.7,16 -35.7,35.7 0,19.7 16,35.7 35.7,35.7 h 2389.4 c 19.7,0 35.7,-16 35.7,-35.7 0,-19.7 -16,-35.7 -35.7,-35.7"
         style="fill:#ffffff;fill-opacity:1;fill-rule:nonzero;stroke:none"
         transform="matrix(0.13333333,0,0,-0.13333333,0,3333.3333)" />
      <path
         id="path16"
         d="m 13608.7,15896.7 c 0,0 937,1120.1 397.9,1585 -539.2,464.9 -987.1,-185 -1806.9,0 -819.8,185 -1389.7,313.1 -2783.93,-1357.2 -1394.23,-1670.2 -5312.87,-5671.9 -3400.32,-6613 1912.56,-941.1 7593.25,6385.2 7593.25,6385.2"
         style="fill:#000000;fill-opacity:1;fill-rule:nonzero;stroke:none"
         transform="matrix(0.13333333,0,0,-0.13333333,0,3333.3333)" />
      <path
         id="path17"
         d="m 22411.7,11775.4 c -47.1,133.9 -177.9,224.5 -315,261.3 -137.1,36.7 -281.7,28.2 -423.3,19.4 -901.1,-55.7 -1802.1,-111.4 -2703.1,-167.2 601.7,-315.8 1277.3,-455.4 1951.4,-495.3 280.1,-16.6 1689.3,-185.2 1490,381.8"
         style="fill:#ffffff;fill-opacity:1;fill-rule:nonzero;stroke:none"
         transform="matrix(0.13333333,0,0,-0.13333333,0,3333.3333)" />
      <path
         id="path18"
         d="m 19058.9,11870.5 c 523,-258.4 1149.7,-410.8 1864.2,-453.1 26.1,-1.6 61.9,-4.4 105.3,-7.9 315.5,-25.1 1153.3,-91.9 1341.2,152.2 42.5,55.2 48.9,122.5 19.6,205.8 -40.4,114.8 -152,206.8 -298.6,246.1 -134.8,36.1 -277.6,27.3 -415.8,18.8 z m 2541.5,-536.8 c -220.8,0 -435.6,17.1 -575.8,28.3 -43,3.4 -78.5,6.3 -104.3,7.8 -757,44.8 -1416.8,212.4 -1961.1,498 -9.4,5 -14.4,15.7 -12.2,26.1 2.2,10.5 11.2,18.2 21.8,18.8 l 2703.1,167.2 c 141.9,8.8 288.7,17.9 431,-20.2 161.8,-43.4 285.6,-146.7 331.2,-276.4 34.6,-98.3 25.6,-182.7 -26.7,-250.7 -122.8,-159.5 -471.8,-198.9 -807,-198.9"
         style="fill:#000000;fill-opacity:1;fill-rule:nonzero;stroke:none"
         transform="matrix(0.13333333,0,0,-0.13333333,0,3333.3333)" />
      <path
         id="path19"
         d="m 17501.2,11804.1 c 339.4,778 1447.4,1128.7 1832.2,1239.1 384.8,110.3 437.4,-415.2 -172,-723.8 -609.4,-308.8 -411.1,-443.1 -411.1,-443.1 0,0 3652.3,7 3825.1,-380 0,0 228.6,-563 -1212.3,-566.1 -407.9,-0.9 -776,-244.8 -934,-620.8 -44.7,-106.3 -94.5,-224 -147.9,-349.3 -1140.6,-17.3 -2285.1,280.1 -3272.3,851.6 223.9,431.8 406.2,794.9 492.3,992.4"
         style="fill:#ffffff;fill-opacity:1;fill-rule:nonzero;stroke:none"
         transform="matrix(0.13333333,0,0,-0.13333333,0,3333.3333)" />
      <path
         id="path20"
         d="m 20316.4,10019.2 c -3.1,0 -6.3,0.6 -9.3,1.9 -12.1,5.2 -17.7,19.1 -12.6,31.3 47.9,112.3 64.6,151.9 99.8,235.6 l 12.8,30.7 c 161.9,385 537.1,634.4 955.9,635.3 781.9,1.7 1059,168.7 1153.7,308.5 78.4,115.8 38.4,220.5 36.6,224.9 -134.2,300.5 -2713.1,365.1 -3756.9,365.1 -15.7,0 -31,0 -46.1,0 v 0 c -4.8,0 -9.4,1.4 -13.4,4.1 -1.8,1.2 -44.9,31.1 -41,92.5 7,110.5 160,242.2 454.8,391.5 385.1,195.1 485.7,468 434.1,599.5 -33.2,84.6 -124.8,114.5 -244.8,80.2 -668.6,-191.7 -1526.5,-560 -1816.9,-1225.7 -66.9,-153.4 -197.6,-419.5 -388.4,-791.1 -6,-11.6 -20.3,-16.4 -32.1,-10.3 -11.7,6 -16.3,20.4 -10.3,32.1 190.4,370.7 320.6,635.9 387.1,788.3 297.8,682.8 1169,1058 1847.4,1252.5 144,41.2 259.9,-0.4 302.4,-108.6 67.9,-173.1 -69.2,-463 -457,-659.4 -365.4,-185.1 -425.4,-300 -428.7,-352.1 -1.6,-24.1 9.2,-39.1 15.6,-45.9 415.1,0.4 3665.2,-7.1 3838.1,-394.1 2.4,-6 51.8,-131.9 -40.2,-268.9 -100.7,-149.9 -389.5,-329 -1193.9,-330.7 -399.6,-0.9 -757.6,-238.8 -912,-606.2 l -12.9,-30.6 c -35.2,-83.8 -51.9,-123.5 -99.8,-235.9 -3.9,-9.1 -12.7,-14.5 -22,-14.5"
         style="fill:#000000;fill-opacity:1;fill-rule:nonzero;stroke:none"
         transform="matrix(0.13333333,0,0,-0.13333333,0,3333.3333)" />
      <path
         id="path21"
         d="m 14620.7,12039 c 0,0 1459,-192.2 1354.1,-1165.7 -105,-973.5 -114,-2352.9 -114,-2352.9 0,0 489.8,1022 1148.1,2291.3 987.2,-571.5 2131.7,-868.9 3272.3,-851.6 C 19665,8515.3 18803.5,6532.7 18119.6,5820.2 17153.4,4813.4 14926.9,3160.8 13445,6851 c -1481.9,3690.2 1175.7,5188 1175.7,5188"
         style="fill:#5479f7;fill-opacity:1;fill-rule:nonzero;stroke:none"
         transform="matrix(0.13333333,0,0,-0.13333333,0,3333.3333)" />
      <path
         id="path22"
         d="m 14620.7,12039 899.3,-985.2 c 0,0 -634.3,-3413.4 -829.9,-3867.6 -516.3,-1198.8 -6215.58,-532.3 -7386.67,-475.7 -1171.08,56.6 -1757.21,1161.4 -1795.78,1600.4 -38.57,439 2473.41,3767.4 2473.41,3767.4 0,0 3023.34,144 6639.64,-39.3"
         style="fill:#5479f7;fill-opacity:1;fill-rule:nonzero;stroke:none"
         transform="matrix(0.13333333,0,0,-0.13333333,0,3333.3333)" />
      <path
         id="path23"
         d="m 13998.7,6973.9 c -9.8,0 -18.9,6 -22.4,15.7 -4.5,12.4 1.9,26 14.2,30.5 457.9,166 666.7,681.3 706.3,1072.2 33.4,328.6 -13.3,664.2 -58.5,988.6 -17.4,124.6 -35.3,253.4 -48.6,380.3 -20.9,200.2 -23.9,449.2 138.9,599.3 9.7,8.9 24.8,8.3 33.7,-1.3 8.9,-9.7 8.3,-24.8 -1.4,-33.7 -147.2,-135.7 -143.5,-370.2 -123.8,-559.3 13.2,-126.1 31,-254.5 48.4,-378.7 45.5,-327.3 92.7,-665.6 58.8,-1000 -41.1,-404.6 -258.9,-938.7 -737.5,-1112.2 -2.7,-0.9 -5.4,-1.4 -8.1,-1.4"
         style="fill:#000000;fill-opacity:1;fill-rule:nonzero;stroke:none"
         transform="matrix(0.13333333,0,0,-0.13333333,0,3333.3333)" />
      <path
         id="path24"
         d="m 10122.4,6906.2 c 1695.2,-55.9 3749.2,-176.2 3811.7,-431.2 72.5,-295.7 -148.4,-376.4 -148.4,-376.4 0,0 234.7,-237 -74.4,-547.4 0,0 144.5,-335.1 -102.6,-520.3 0,0 23.7,-466.6 -410.6,-467.8 -335.5,-0.8 -1599.4,-389.8 -2932.4,-693 -310.88,976.4 -363.24,2035.2 -143.3,3036.1"
         style="fill:#ffffff;fill-opacity:1;fill-rule:nonzero;stroke:none"
         transform="matrix(0.13333333,0,0,-0.13333333,0,3333.3333)" />
      <path
         id="path25"
         d="m 10521.8,3905.7 c -10.8,0 -20.6,7.4 -23.2,18.3 -3,12.9 5,25.7 17.7,28.7 460.8,109 906.9,224.8 1300.5,327 660.1,171.4 1181.4,306.8 1381.3,307.3 115.7,0.3 207.6,35.4 273,104.2 122.5,129.1 113.9,336.4 113.7,338.5 -0.3,7.9 3.2,15.5 9.6,20.3 229.4,172 96.4,488.6 95,491.8 -3.9,8.9 -1.9,19.3 5,26.2 288,289.1 83.2,504.9 74.3,513.9 -5.6,5.8 -8,14.1 -6.2,22 1.8,7.9 7.4,14.4 15,17.1 8.1,3.1 199.7,78 133.5,348.3 -20.7,84.5 -411.5,293.2 -3585.5,406.1 -13.2,0.4 -23.5,11.5 -23,24.6 0.4,13.2 12.3,24 24.6,23 998,-35.5 1806.2,-83.4 2402.3,-142.4 1060.4,-104.9 1208.6,-221.4 1227.9,-299.9 60.1,-245.4 -73.1,-354.1 -134.5,-390 51.4,-70.6 166.4,-284.9 -83.8,-545.3 24.7,-68.7 109.7,-353.9 -106.2,-526 0.2,-50.2 -7.3,-234.5 -126.9,-360.7 -74.8,-78.9 -178.3,-119 -307.7,-119.4 -193.8,-0.4 -712.6,-135.2 -1369.4,-305.7 -393.8,-102.2 -840.2,-218.2 -1301.5,-327.3 -1.8,-0.4 -3.7,-0.6 -5.5,-0.6"
         style="fill:#000000;fill-opacity:1;fill-rule:nonzero;stroke:none"
         transform="matrix(0.13333333,0,0,-0.13333333,0,3333.3333)" />
      <path
         id="path26"
         d="m 3984.2,6150.7 c 541.2,1458.6 1295.26,3262 2189.11,4786.4 402.43,686.3 1134.56,1112.4 1929.78,1136.6 l 1225.37,37.4 -1432.67,-5157.9 c 0,0 1022.9,-7.3 2226.61,-47 C 9902.46,5905.3 9954.82,4846.5 10265.7,3870.1 9873.32,3780.8 9475.03,3698.8 9092.56,3636.5 8373.14,3519.3 7158.84,3397.2 6011.52,3351.7 4530.97,3293 3468.75,4761.5 3984.2,6150.7"
         style="fill:#5479f7;fill-opacity:1;fill-rule:nonzero;stroke:none"
         transform="matrix(0.13333333,0,0,-0.13333333,0,3333.3333)" />
      <path
         id="path27"
         d="m 13647.5,6120.3 c -0.6,0 -1.1,0.1 -1.6,0.1 l -155.4,10.3 c -13.1,0.9 -23.1,12.3 -22.2,25.4 0.9,13.1 12.1,22.9 25.4,22.2 l 155.3,-10.4 c 13.2,-0.8 23.1,-12.2 22.2,-25.3 -0.8,-12.6 -11.3,-22.3 -23.7,-22.3"
         style="fill:#000000;fill-opacity:1;fill-rule:nonzero;stroke:none"
         transform="matrix(0.13333333,0,0,-0.13333333,0,3333.3333)" />
      <path
         id="path28"
         d="m 13585.1,5575.1 c -0.3,0 -0.6,0 -0.8,0 l -175.9,5.9 c -13.2,0.4 -23.5,11.4 -23,24.6 0.4,13.1 11.5,23.8 24.6,23 l 175.9,-5.9 c 13.1,-0.4 23.4,-11.4 23,-24.6 -0.4,-12.9 -11,-23 -23.8,-23"
         style="fill:#000000;fill-opacity:1;fill-rule:nonzero;stroke:none"
         transform="matrix(0.13333333,0,0,-0.13333333,0,3333.3333)" />
      <path
         id="path29"
         d="m 13419.6,5011.7 c -1,0 -1.9,0 -2.9,0.2 l -176.1,20.7 c -13,1.5 -22.4,13.3 -20.8,26.4 1.5,13.1 13.6,22.3 26.4,20.9 l 176.1,-20.7 c 13.1,-1.6 22.4,-13.4 20.9,-26.5 -1.4,-12.1 -11.7,-21 -23.6,-21"
         style="fill:#000000;fill-opacity:1;fill-rule:nonzero;stroke:none"
         transform="matrix(0.13333333,0,0,-0.13333333,0,3333.3333)" />
      <path
         id="path30"
         d="m 7264.51,6875.4 c -11.5,0 -21.62,8.3 -23.5,20 -2.1,13 6.74,25.2 19.75,27.3 600.64,96.4 2559.86,54.7 2579.57,54.3 13.17,-0.3 23.59,-11.2 23.31,-24.4 -0.28,-13.1 -10.87,-23.9 -24.34,-23.3 -19.71,0.5 -1974.55,42.1 -2571,-53.6 -1.28,-0.3 -2.54,-0.3 -3.79,-0.3"
         style="fill:#000000;fill-opacity:1;fill-rule:nonzero;stroke:none"
         transform="matrix(0.13333333,0,0,-0.13333333,0,3333.3333)" />
      <path
         id="path31"
         d="m 7895.79,6929.3 c -2.45,0 -4.94,0.4 -7.38,1.2 -12.52,4.1 -19.36,17.5 -15.29,30 l 656.39,2013 c 4.07,12.6 17.56,19.4 30.04,15.3 12.51,-4.1 19.36,-17.5 15.28,-30 l -656.38,-2013 c -3.28,-10.1 -12.64,-16.5 -22.66,-16.5"
         style="fill:#000000;fill-opacity:1;fill-rule:nonzero;stroke:none"
         transform="matrix(0.13333333,0,0,-0.13333333,0,3333.3333)" />
      <path
         id="path32"
         d="m 12037,11610.9 1105.8,2695.8 -1691.4,462.3 -1488.59,-3139.2 c 0,0 1409.59,-307.1 2074.19,-18.9"
         style="fill:#ffffff;fill-opacity:1;fill-rule:nonzero;stroke:none"
         transform="matrix(0.13333333,0,0,-0.13333333,0,3333.3333)" />
      <path
         id="path33"
         d="m 12037,11610.9 h 0.3 z m -2039.66,36 c 204.66,-41.3 1420.86,-270.9 2021.36,-17.9 l 1091.8,2661.8 -1646.1,449.9 z m 1241.56,-184.1 c -611.2,0 -1242.24,135.2 -1281.17,143.7 -7.09,1.5 -13.1,6.2 -16.3,12.7 -3.22,6.6 -3.26,14.2 -0.15,20.8 l 1488.62,3139.2 c 4.9,10.4 16.5,15.7 27.8,12.7 l 1691.4,-462.2 c 6.6,-1.8 12.1,-6.4 15.1,-12.5 3,-6.1 3.2,-13.2 0.6,-19.6 l -1105.7,-2695.7 c -2.4,-5.8 -6.9,-10.3 -12.6,-12.8 -217.4,-94.3 -510.2,-126.3 -807.6,-126.3"
         style="fill:#000000;fill-opacity:1;fill-rule:nonzero;stroke:none"
         transform="matrix(0.13333333,0,0,-0.13333333,0,3333.3333)" />
      <path
         id="path34"
         d="m 11098.7,11474.6 c -572.2,0 -1225.85,89.9 -1845.56,380.1 -11.92,5.6 -17.06,19.8 -11.48,31.7 5.59,11.9 19.76,17 31.67,11.4 934.77,-437.7 1949.67,-414.3 2636.47,-317.5 744.8,104.9 1274.2,316 1279.4,318.1 12.2,4.9 26.1,-1 31,-13.2 4.9,-12.2 -1,-26.1 -13.2,-31 -5.3,-2.2 -540.1,-215.4 -1290.5,-321.1 -238.8,-33.7 -517.1,-58.5 -817.8,-58.5"
         style="fill:#000000;fill-opacity:1;fill-rule:nonzero;stroke:none"
         transform="matrix(0.13333333,0,0,-0.13333333,0,3333.3333)" />
      <path
         id="path35"
         d="m 13959,15395.9 c 61.8,-362.6 72.4,-749.7 -82.7,-1083.2 -209.4,-450 -714.5,-730.5 -1210.7,-715.4 -496.1,15.1 -965.2,304 -1242.9,715.5 -216.9,-78.7 -468.5,-55 -667,62.6 -198.5,117.7 -340,327.1 -375.2,555.1 -32.3,209.7 42.8,453.7 233.7,546.4 107.5,52.3 235.1,49 350.7,18.5 208.1,-54.9 391.7,-196.8 497.3,-384.3 142.6,-67 316.8,45 377.2,190.6 60.5,145.6 40.8,310.2 26.5,467.2 -14.3,157 -19.3,326 64.1,459.8 77.1,123.5 215.7,193.5 351.4,246.1 219.1,84.8 449.5,140.1 683.2,164.6 142.6,14.9 414.2,66.4 547,-10.7 142.8,-83 211.2,-383.2 263.1,-528.8 81.7,-228.7 143.5,-464.6 184.3,-704"
         style="fill:#ffffff;fill-opacity:1;fill-rule:nonzero;stroke:none"
         transform="matrix(0.13333333,0,0,-0.13333333,0,3333.3333)" />
      <path
         id="path36"
         d="m 11422.7,14336.6 c 7.7,0 15.2,-3.8 19.8,-10.5 283.8,-420.5 752.7,-690.6 1223.9,-705 500.4,-15.5 989,273.3 1188.3,701.7 129.5,278.4 156,628.1 80.9,1069.1 -40.5,237 -102.1,472.5 -183.3,700 -9.8,27.4 -20.2,60.2 -31.2,95.1 -47.7,151.1 -113.1,358 -221.5,421.1 -105.4,61.2 -317.5,34.3 -458,16.5 -27.3,-3.4 -52.5,-6.6 -74.6,-8.9 -232.7,-24.4 -460.5,-79.3 -677,-163.2 -118,-45.7 -263.3,-113.9 -339.8,-236.4 -81.4,-130.5 -73.9,-298.2 -60.6,-445.1 l 2.5,-26.8 c 14.1,-151.8 28.6,-308.8 -30.7,-451.6 -38.1,-91.8 -118,-170.6 -208.6,-205.7 -70.1,-27.1 -139.5,-26.2 -200.8,2.6 -4.5,2.2 -8.2,5.6 -10.6,9.9 -101.7,180.7 -282.1,320.1 -482.5,373 -88.6,23.3 -218.5,39.4 -334.3,-16.9 -183.8,-89.3 -250,-329.9 -220.5,-521.4 34.2,-222.3 170.2,-423.5 363.7,-538.2 193.5,-114.7 435.3,-137.4 646.8,-60.7 2.6,0.9 5.4,1.4 8.1,1.4 z m 1281.4,-763.7 c -13.1,0 -26.1,0.2 -39.2,0.6 -480.5,14.6 -958.4,286.5 -1251.6,710.8 -220.5,-74.1 -469.5,-48.1 -669.8,70.6 -205.6,121.9 -350.1,335.7 -386.5,572 -31.2,202.3 32.7,467.5 246.7,571.5 129,62.6 271,45.4 367.3,20 213.3,-56.2 398,-197.7 508,-388.7 59.8,-25.3 117.8,-13.2 156.6,1.7 78.9,30.5 148.5,99.3 181.8,179.5 54.7,131.8 40.8,282.9 27.2,428.9 l -2.4,26.9 c -14.1,154.6 -21.6,331.6 67.6,474.6 83.9,134.4 238.1,207.3 363,255.7 220.4,85.4 452.3,141.2 689.3,166.1 21.8,2.3 46.6,5.4 73.6,8.8 155.5,19.7 368.5,46.7 487.8,-22.6 124.4,-72.3 193,-289.5 243.1,-448 10.8,-34.4 21.1,-66.9 30.5,-93.4 82.2,-230 144.6,-468.3 185.4,-708 76.8,-450.9 49.2,-809.7 -84.6,-1097.2 -201.9,-433.9 -688.8,-729.8 -1193.8,-729.8"
         style="fill:#000000;fill-opacity:1;fill-rule:nonzero;stroke:none"
         transform="matrix(0.13333333,0,0,-0.13333333,0,3333.3333)" />
      <path
         id="path37"
         d="m 11308.4,14704.8 c -9.2,0 -17.9,5.4 -21.8,14.3 -59.5,135.5 -230,215.1 -371.9,173.6 -12.9,-3.7 -25.9,3.6 -29.6,16.2 -3.7,12.6 3.6,25.9 16.2,29.5 166.8,48.5 359.2,-41.1 428.9,-200.2 5.3,-12 -0.2,-26.1 -12.2,-31.4 -3.1,-1.3 -6.4,-2 -9.6,-2"
         style="fill:#000000;fill-opacity:1;fill-rule:nonzero;stroke:none"
         transform="matrix(0.13333333,0,0,-0.13333333,0,3333.3333)" />
      <path
         id="path38"
         d="m 20626.6,16230.1 236.7,-479.5 529.2,-77 c 104.5,-15.1 146.2,-143.5 70.6,-217.1 l -383,-373.3 90.4,-527.2 c 17.9,-104 -91.3,-183.3 -184.7,-134.2 l -473.4,248.9 -473.4,-248.9 c -93.4,-49.1 -202.5,30.2 -184.7,134.2 l 90.4,527.2 -383,373.3 c -75.5,73.6 -33.8,202 70.6,217.1 l 529.3,77 236.7,479.5 c 46.7,94.7 181.6,94.7 228.3,0"
         style="fill:#e2eaff;fill-opacity:1;fill-rule:nonzero;stroke:none"
         transform="matrix(0.13333333,0,0,-0.13333333,0,3333.3333)" />
      <path
         id="path39"
         d="m 23227.9,16230.1 236.7,-479.5 529.2,-77 c 104.5,-15.1 146.2,-143.5 70.6,-217.1 l -383,-373.3 90.4,-527.2 c 17.9,-104 -91.3,-183.3 -184.7,-134.2 l -473.4,248.9 -473.4,-248.9 c -93.4,-49.1 -202.5,30.2 -184.7,134.2 l 90.4,527.2 -383,373.3 c -75.5,73.6 -33.8,202 70.6,217.1 l 529.3,77 236.6,479.5 c 46.7,94.7 181.7,94.7 228.4,0"
         style="fill:#e2eaff;fill-opacity:1;fill-rule:nonzero;stroke:none"
         transform="matrix(0.13333333,0,0,-0.13333333,0,3333.3333)" />
      <path
         id="path40"
         d="m 25829.2,16230.1 236.7,-479.5 529.2,-77 c 104.5,-15.1 146.2,-143.5 70.6,-217.1 l -383,-373.3 90.4,-527.2 c 17.9,-104 -91.3,-183.3 -184.7,-134.2 l -473.4,248.9 -473.4,-248.9 c -93.4,-49.1 -202.5,30.2 -184.7,134.2 l 90.4,527.2 -383,373.3 c -75.5,73.6 -33.8,202 70.6,217.1 l 529.2,77 236.7,479.5 c 46.7,94.7 181.7,94.7 228.4,0"
         style="fill:#e2eaff;fill-opacity:1;fill-rule:nonzero;stroke:none"
         transform="matrix(0.13333333,0,0,-0.13333333,0,3333.3333)" />
      <path
         id="path41"
         d="m 28430.5,16230.1 236.7,-479.5 529.2,-77 c 104.4,-15.1 146.1,-143.5 70.6,-217.1 l -383,-373.3 90.4,-527.2 c 17.9,-104 -91.3,-183.3 -184.7,-134.2 l -473.4,248.9 -473.4,-248.9 c -93.4,-49.1 -202.6,30.2 -184.7,134.2 l 90.4,527.2 -383,373.3 c -75.6,73.6 -33.9,202 70.6,217.1 l 529.2,77 236.7,479.5 c 46.7,94.7 181.7,94.7 228.4,0"
         style="fill:#e2eaff;fill-opacity:1;fill-rule:nonzero;stroke:none"
         transform="matrix(0.13333333,0,0,-0.13333333,0,3333.3333)" />
      <path
         id="path42"
         d="m 31031.8,16230.1 236.7,-479.5 529.2,-77 c 104.4,-15.1 146.1,-143.5 70.6,-217.1 l -383,-373.3 90.4,-527.2 c 17.8,-104 -91.3,-183.3 -184.7,-134.2 l -473.4,248.9 -473.4,-248.9 c -93.4,-49.1 -202.6,30.2 -184.7,134.2 l 90.4,527.2 -383,373.3 c -75.6,73.6 -33.9,202 70.6,217.1 l 529.2,77 236.7,479.5 c 46.7,94.7 181.7,94.7 228.4,0"
         style="fill:#ffffff;fill-opacity:1;fill-rule:nonzero;stroke:none"
         transform="matrix(0.13333333,0,0,-0.13333333,0,3333.3333)" />
      <path
         id="path43"
         d="m 30917.6,16277.3 c -40.3,0 -75,-21.6 -92.8,-57.7 l -236.7,-479.6 c -3.5,-7 -10.2,-11.9 -18,-13 l -529.2,-76.9 c -39.9,-5.8 -71.1,-32.2 -83.6,-70.5 -12.4,-38.3 -2.6,-77.9 26.2,-106.1 l 383,-373.3 c 5.6,-5.4 8.2,-13.3 6.8,-21.1 l -90.4,-527.1 c -6.8,-39.7 8.6,-77.5 41.2,-101.2 32.6,-23.7 73.4,-26.6 109,-7.9 l 473.4,248.9 c 7,3.7 15.2,3.7 22.2,0 l 473.4,-248.9 c 35.6,-18.7 76.3,-15.8 109,7.9 32.5,23.7 47.9,61.5 41.1,101.2 l -90.4,527.1 c -1.3,7.8 1.2,15.7 6.9,21.1 l 383,373.3 c 28.8,28.2 38.6,67.8 26.1,106.1 -12.4,38.3 -43.6,64.7 -83.5,70.5 l -529.3,76.9 c -7.7,1.1 -14.4,6 -17.9,13 l -236.7,479.6 c -17.8,36.1 -52.5,57.7 -92.8,57.7 z m -532.8,-1894.1 c -31.2,0 -62.2,9.8 -88.7,29.1 -46.9,34 -69.9,90.7 -60.1,147.8 l 88.3,514.7 -374,364.6 c -41.5,40.5 -56.2,99.8 -38.3,154.9 17.9,55.1 64.7,94.6 122.1,102.9 l 516.8,75.1 231.2,468.4 c 25.6,52 77.5,84.2 135.5,84.2 v 0 c 57.9,0 109.9,-32.2 135.5,-84.2 l 231.2,-468.4 516.8,-75.1 c 57.4,-8.3 104.1,-47.8 122,-102.8 18,-55.2 3.3,-114.5 -38.2,-155 l -374,-364.6 88.3,-514.7 c 9.8,-57.1 -13.3,-113.8 -60.2,-147.9 -46.8,-34.1 -107.8,-38.5 -159.1,-11.4 l -462.3,243 -462.3,-243 c -22.3,-11.8 -46.5,-17.6 -70.5,-17.6"
         style="fill:#000000;fill-opacity:1;fill-rule:nonzero;stroke:none"
         transform="matrix(0.13333333,0,0,-0.13333333,0,3333.3333)" />
      <path
         id="path44"
         d="M 23114,13822 H 31906.9 23114"
         style="fill:#ffffff;fill-opacity:1;fill-rule:nonzero;stroke:none"
         transform="matrix(0.13333333,0,0,-0.13333333,0,3333.3333)" />
      <path
         id="path45"
         d="M 31906.9,13798.1 H 23114 c -13.1,0 -23.8,10.7 -23.8,23.8 0,13.2 10.7,23.9 23.8,23.9 h 8792.9 c 13.1,0 23.8,-10.7 23.8,-23.9 0,-13.1 -10.7,-23.8 -23.8,-23.8"
         style="fill:#000000;fill-opacity:1;fill-rule:nonzero;stroke:none"
         transform="matrix(0.13333333,0,0,-0.13333333,0,3333.3333)" />
      <path
         id="path46"
         d="m 3485.79,20201.7 h 6556.11 c 686.3,0 1242.7,-556.3 1242.7,-1242.6 0,-686.3 -556.4,-1242.7 -1242.7,-1242.7 H 3485.79 c -686.29,0 -1242.65,556.4 -1242.65,1242.6 0,686.3 556.36,1242.7 1242.65,1242.7"
         style="fill:#ffffff;fill-opacity:1;fill-rule:nonzero;stroke:none"
         transform="matrix(0.13333333,0,0,-0.13333333,0,3333.3333)" />
      <path
         id="path47"
         d="m 3485.78,20177.9 c -672.07,0 -1218.82,-546.8 -1218.82,-1218.8 0,-672.1 546.75,-1218.9 1218.82,-1218.9 h 6556.12 c 672.1,0 1218.9,546.8 1218.9,1218.9 0,672 -546.8,1218.8 -1218.9,1218.8 z M 10041.9,17692.6 H 3485.78 c -698.33,0 -1266.47,568.1 -1266.47,1266.5 0,698.3 568.14,1266.4 1266.47,1266.4 h 6556.12 c 698.4,0 1266.5,-568.1 1266.5,-1266.4 0,-698.4 -568.1,-1266.5 -1266.5,-1266.5"
         style="fill:#000000;fill-opacity:1;fill-rule:nonzero;stroke:none"
         transform="matrix(0.13333333,0,0,-0.13333333,0,3333.3333)" />
      <path
         id="path48"
         d="m 6678.69,15178.5 c -515.31,0 -1025.39,256.2 -1332.81,669.9 -308.81,415.6 -406.42,981.3 -254.68,1476.4 3.85,12.6 17.1,19.6 29.75,15.8 12.59,-3.9 19.66,-17.2 15.8,-29.8 -147.35,-480.9 -52.56,-1030.3 247.39,-1434 298.57,-401.8 794.06,-650.6 1294.55,-650.6 2.37,0 5.19,0.2 7.19,0 13.1,0 23.75,-10.6 23.83,-23.7 0.06,-13.2 -10.57,-23.9 -23.71,-24 -2.4,0 -4.89,0 -7.31,0"
         style="fill:#000000;fill-opacity:1;fill-rule:nonzero;stroke:none"
         transform="matrix(0.13333333,0,0,-0.13333333,0,3333.3333)" />
      <path
         id="path49"
         d="M 4722.61,19280.1 H 3503.23 c -13.17,0 -23.83,10.7 -23.83,23.8 0,13.2 10.66,23.9 23.83,23.9 h 1219.38 c 13.17,0 23.83,-10.7 23.83,-23.9 0,-13.1 -10.66,-23.8 -23.83,-23.8"
         style="fill:#000000;fill-opacity:1;fill-rule:nonzero;stroke:none"
         transform="matrix(0.13333333,0,0,-0.13333333,0,3333.3333)" />
      <path
         id="path50"
         d="M 10120.6,19280.1 H 5588.43 c -13.17,0 -23.83,10.7 -23.83,23.8 0,13.2 10.66,23.9 23.83,23.9 h 4532.17 c 13.1,0 23.8,-10.7 23.8,-23.9 0,-13.1 -10.7,-23.8 -23.8,-23.8"
         style="fill:#000000;fill-opacity:1;fill-rule:nonzero;stroke:none"
         transform="matrix(0.13333333,0,0,-0.13333333,0,3333.3333)" />
      <path
         id="path51"
         d="m 7716.53,18699.1 h -4213.3 c -13.17,0 -23.83,10.6 -23.83,23.8 0,13.2 10.66,23.8 23.83,23.8 h 4213.3 c 13.17,0 23.83,-10.6 23.83,-23.8 0,-13.2 -10.66,-23.8 -23.83,-23.8"
         style="fill:#000000;fill-opacity:1;fill-rule:nonzero;stroke:none"
         transform="matrix(0.13333333,0,0,-0.13333333,0,3333.3333)" />
      <path
         id="path52"
         d="M 10120.6,18699.1 H 8665.18 c -13.17,0 -23.82,10.6 -23.82,23.8 0,13.2 10.65,23.8 23.82,23.8 h 1455.42 c 13.1,0 23.8,-10.6 23.8,-23.8 0,-13.2 -10.7,-23.8 -23.8,-23.8"
         style="fill:#000000;fill-opacity:1;fill-rule:nonzero;stroke:none"
         transform="matrix(0.13333333,0,0,-0.13333333,0,3333.3333)" />
    </g>
  </g>
</svg>
