<?xml version="1.0" encoding="UTF-8" standalone="no"?>
<!-- Created with Inkscape (http://www.inkscape.org/) -->

<svg
   version="1.1"
   id="svg1"
   width="4553.3335"
   height="3333.3333"
   viewBox="0 0 4553.3335 3333.3333"
   sodipodi:docname="BAir-M_Bus-13_Single-03.eps"
   xmlns:inkscape="http://www.inkscape.org/namespaces/inkscape"
   xmlns:sodipodi="http://sodipodi.sourceforge.net/DTD/sodipodi-0.dtd"
   xmlns="http://www.w3.org/2000/svg"
   xmlns:svg="http://www.w3.org/2000/svg">
  <defs
     id="defs1" />
  <sodipodi:namedview
     id="namedview1"
     pagecolor="#ffffff"
     bordercolor="#000000"
     borderopacity="0.25"
     inkscape:showpageshadow="2"
     inkscape:pageopacity="0.0"
     inkscape:pagecheckerboard="0"
     inkscape:deskcolor="#d1d1d1">
    <inkscape:page
       x="0"
       y="0"
       inkscape:label="1"
       id="page1"
       width="4553.3335"
       height="3333.3333"
       margin="0"
       bleed="0" />
  </sodipodi:namedview>
  <g
     id="g1"
     inkscape:groupmode="layer"
     inkscape:label="1">
    <g
       id="group-R5">
      <path
         id="path2"
         d="M 34150,0 H 0 V 25000 H 34150 V 0"
         style="fill:#ffffff;fill-opacity:1;fill-rule:nonzero;stroke:none"
         transform="matrix(0.13333333,0,0,-0.13333333,0,3333.3333)" />
      <path
         id="path3"
         d="m 13890.5,19703.2 c 0,1037.7 -841.2,1878.9 -1879,1878.9 -1037.6,0 -1878.9,-841.2 -1878.9,-1878.9 0,-800.6 501,-1483.8 1206.3,-1754.4 v -833.4 h 1345.3 v 833.4 c 705.4,270.6 1206.3,953.8 1206.3,1754.4"
         style="fill:#ffffff;fill-opacity:1;fill-rule:nonzero;stroke:none"
         transform="matrix(0.13333333,0,0,-0.13333333,0,3333.3333)" />
      <path
         id="path4"
         d="m 11360.9,17137.4 h 1301.3 v 811.4 c 0,9.1 5.6,17.2 14.1,20.5 713.1,273.6 1192.2,970.4 1192.2,1733.9 0,1023.9 -833,1856.9 -1857,1856.9 -1023.9,0 -1856.9,-833 -1856.9,-1856.9 0,-763.5 479.1,-1460.3 1192.2,-1733.9 8.5,-3.3 14.1,-11.4 14.1,-20.5 z m 1323.3,-44 h -1345.3 c -12.1,0 -22,9.8 -22,22 v 818.3 c -349.1,137.1 -647.5,372.3 -863.7,680.9 -224.1,320.1 -342.6,696.5 -342.6,1088.6 0,1048.2 852.8,1900.9 1900.9,1900.9 1048.2,0 1901,-852.7 1901,-1900.9 0,-392.1 -118.5,-768.5 -342.6,-1088.6 -216.2,-308.6 -514.6,-543.8 -863.7,-680.9 v -818.3 c 0,-12.2 -9.9,-22 -22,-22"
         style="fill:#000000;fill-opacity:1;fill-rule:nonzero;stroke:none"
         transform="matrix(0.13333333,0,0,-0.13333333,0,3333.3333)" />
      <path
         id="path5"
         d="m 11997.3,15917.8 c -72,0 -138.6,13.8 -199.6,41.6 -205.8,93.6 -269.6,309.9 -272.2,319 -1.9,6.7 -0.6,13.8 3.6,19.3 4.1,5.5 10.6,8.8 17.5,8.8 h 1105.7 v 391.2 h -1303.5 c -12.2,0 -22,9.9 -22,22 0,12.2 9.8,22 22,22 h 1325.5 c 12.1,0 22,-9.8 22,-22 v -435.2 c 0,-12.2 -9.9,-22 -22,-22 h -1096.4 c 23.9,-59.3 93.1,-197.3 238.5,-263.3 138.2,-62.7 310.6,-46.5 512.2,48 11.1,5.2 24.1,0.4 29.3,-10.6 5.1,-11 0.4,-24.1 -10.6,-29.2 -127.4,-59.7 -244.4,-89.6 -350,-89.6"
         style="fill:#000000;fill-opacity:1;fill-rule:nonzero;stroke:none"
         transform="matrix(0.13333333,0,0,-0.13333333,0,3333.3333)" />
      <path
         id="path6"
         d="m 11904.8,17627.3 c -10.3,0 -19.4,7.1 -21.6,17.6 l -527.7,2587.2 c -2.4,11.8 5.3,23.5 17.2,25.9 11.9,2.4 23.5,-5.3 25.9,-17.2 l 527.7,-2587.2 c 2.5,-11.9 -5.2,-23.5 -17.1,-25.9 -1.5,-0.3 -3,-0.4 -4.4,-0.4"
         style="fill:#000000;fill-opacity:1;fill-rule:nonzero;stroke:none"
         transform="matrix(0.13333333,0,0,-0.13333333,0,3333.3333)" />
      <path
         id="path7"
         d="m 12118.3,17627.3 c -1.4,0 -2.9,0.1 -4.4,0.4 -11.9,2.4 -19.6,14 -17.1,25.9 l 527.7,2587.2 c 2.4,11.9 14.1,19.6 25.9,17.2 11.9,-2.4 19.6,-14.1 17.2,-25.9 l -527.8,-2587.2 c -2.1,-10.5 -11.2,-17.6 -21.5,-17.6"
         style="fill:#000000;fill-opacity:1;fill-rule:nonzero;stroke:none"
         transform="matrix(0.13333333,0,0,-0.13333333,0,3333.3333)" />
      <path
         id="path8"
         d="m 11950.2,19990.5 c -0.8,0 -1.7,0 -2.6,0.1 -9.7,1.2 -17.5,8.6 -19.1,18.3 l -71.9,438 -125.8,-253.6 c -3.7,-7.5 -11.3,-12.2 -19.7,-12.2 H 11559 c -12.2,0 -22,9.8 -22,22 0,12.1 9.8,21.9 22,21.9 h 138.5 l 150.1,302.6 c 4.2,8.6 13.3,13.4 23,12 9.4,-1.4 16.8,-8.8 18.4,-18.2 l 70.6,-430.3 161,380.9 c 3.5,8.4 11.3,13.8 20.9,13.5 9.1,-0.3 17,-6.1 20.1,-14.7 l 86.8,-245.8 h 196.3 c 12.2,0 22,-9.8 22,-21.9 0,-12.2 -9.8,-22 -22,-22 h -211.9 c -9.3,0 -17.6,5.8 -20.7,14.6 l -73.1,206.9 -168.5,-398.7 c -3.5,-8.2 -11.5,-13.4 -20.3,-13.4"
         style="fill:#000000;fill-opacity:1;fill-rule:nonzero;stroke:none"
         transform="matrix(0.13333333,0,0,-0.13333333,0,3333.3333)" />
      <path
         id="path9"
         d="m 25451.8,16458.9 c 0,1039 -842.3,1881.3 -1881.3,1881.3 -1039,0 -1881.3,-842.3 -1881.3,-1881.3 0,-801.6 501.6,-1485.6 1207.8,-1756.6 v -834.4 h 1347 v 834.4 c 706.2,271 1207.8,955 1207.8,1756.6"
         style="fill:#ffffff;fill-opacity:1;fill-rule:nonzero;stroke:none"
         transform="matrix(0.13333333,0,0,-0.13333333,0,3333.3333)" />
      <path
         id="path10"
         d="m 22919,13889.9 h 1303 v 812.4 c 0,9.1 5.6,17.3 14.1,20.5 714,274 1193.7,971.7 1193.7,1736.1 0,1025.3 -834.1,1859.3 -1859.3,1859.3 -1025.2,0 -1859.3,-834 -1859.3,-1859.3 0,-764.4 479.7,-1462.1 1193.7,-1736.1 8.5,-3.2 14.1,-11.4 14.1,-20.5 z m 1325,-44 h -1347 c -12.1,0 -22,9.8 -22,22 v 819.4 c -349.6,137.2 -648.3,372.7 -864.7,681.7 -224.5,320.4 -343.1,697.3 -343.1,1089.9 0,1049.5 853.8,1903.3 1903.3,1903.3 1049.5,0 1903.3,-853.8 1903.3,-1903.3 0,-392.6 -118.6,-769.5 -343.1,-1089.9 -216.4,-309 -515.1,-544.5 -864.7,-681.7 v -819.4 c 0,-12.2 -9.9,-22 -22,-22"
         style="fill:#000000;fill-opacity:1;fill-rule:nonzero;stroke:none"
         transform="matrix(0.13333333,0,0,-0.13333333,0,3333.3333)" />
      <path
         id="path11"
         d="m 23556.2,12668.8 c -72,0 -138.7,13.9 -199.8,41.7 -206,93.7 -269.9,310.2 -272.6,319.4 -1.8,6.6 -0.5,13.8 3.6,19.3 4.2,5.5 10.7,8.7 17.6,8.7 h 1107.1 v 391.8 h -1305.2 c -12.1,0 -22,9.9 -22,22 0,12.2 9.9,22 22,22 h 1327.2 c 12.1,0 22,-9.8 22,-22 v -435.8 c 0,-12.1 -9.9,-22 -22,-22 h -1097.8 c 23.9,-59.3 93.1,-197.5 238.8,-263.6 138.4,-62.8 310.9,-46.6 512.9,48 11,5.2 24.1,0.4 29.2,-10.5 5.2,-11 0.5,-24.1 -10.5,-29.3 -127.6,-59.8 -244.8,-89.7 -350.5,-89.7"
         style="fill:#000000;fill-opacity:1;fill-rule:nonzero;stroke:none"
         transform="matrix(0.13333333,0,0,-0.13333333,0,3333.3333)" />
      <path
         id="path12"
         d="m 23463.6,14380.4 c -10.3,0 -19.4,7.2 -21.5,17.6 l -528.4,2590.5 c -2.5,11.9 5.2,23.5 17.1,25.9 11.8,2.5 23.5,-5.2 25.9,-17.1 l 528.4,-2590.5 c 2.5,-11.9 -5.2,-23.5 -17.1,-25.9 -1.5,-0.3 -3,-0.5 -4.4,-0.5"
         style="fill:#000000;fill-opacity:1;fill-rule:nonzero;stroke:none"
         transform="matrix(0.13333333,0,0,-0.13333333,0,3333.3333)" />
      <path
         id="path13"
         d="m 23677.4,14380.4 c -1.5,0 -3,0.2 -4.4,0.5 -11.9,2.4 -19.6,14 -17.2,25.9 l 528.4,2590.5 c 2.5,11.9 14.1,19.6 26,17.1 11.9,-2.4 19.6,-14 17.1,-25.9 L 23698.9,14398 c -2.1,-10.4 -11.3,-17.6 -21.5,-17.6"
         style="fill:#000000;fill-opacity:1;fill-rule:nonzero;stroke:none"
         transform="matrix(0.13333333,0,0,-0.13333333,0,3333.3333)" />
      <path
         id="path14"
         d="m 23509.1,16746.6 c -0.8,0 -1.7,0 -2.6,0.2 -9.7,1.1 -17.5,8.6 -19.1,18.2 l -72,438.6 -126,-253.9 c -3.7,-7.5 -11.3,-12.3 -19.7,-12.3 h -152.3 c -12.2,0 -22,9.9 -22,22 0,12.2 9.8,22 22,22 h 138.7 l 150.3,303 c 4.2,8.5 13.4,13.4 22.9,11.9 9.5,-1.4 16.9,-8.7 18.4,-18.1 l 70.8,-430.9 161.2,381.4 c 3.5,8.4 11.8,13.6 20.9,13.5 9.1,-0.3 17.1,-6.1 20.1,-14.7 l 86.9,-246.1 h 196.6 c 12.2,0 22,-9.8 22,-22 0,-12.1 -9.8,-22 -22,-22 H 23792 c -9.3,0 -17.6,5.9 -20.7,14.7 l -73.2,207.2 -168.7,-399.3 c -3.5,-8.2 -11.5,-13.4 -20.3,-13.4"
         style="fill:#000000;fill-opacity:1;fill-rule:nonzero;stroke:none"
         transform="matrix(0.13333333,0,0,-0.13333333,0,3333.3333)" />
      <path
         id="path15"
         d="m 10834.3,16271.5 c 0,1162 -942.01,2104 -2104.02,2104 -1161.98,0 -2104,-942 -2104,-2104 0,-896.5 560.96,-1661.5 1350.79,-1964.5 v -933.2 h 1506.42 v 933.2 c 789.81,303 1350.81,1068 1350.81,1964.5"
         style="fill:#ffffff;fill-opacity:1;fill-rule:nonzero;stroke:none"
         transform="matrix(0.13333333,0,0,-0.13333333,0,3333.3333)" />
      <path
         id="path16"
         d="M 7999.06,13395.8 H 9461.5 v 911.2 c 0,9.1 5.6,17.2 14.11,20.5 799.49,306.7 1336.69,1088 1336.69,1944 0,1148.1 -934.01,2082 -2082.03,2082 -1148,0 -2081.98,-933.9 -2081.98,-2082 0,-856 537.16,-1637.3 1336.66,-1944 8.5,-3.3 14.11,-11.4 14.11,-20.5 z m 1484.44,-44 H 7977.06 c -12.15,0 -21.99,9.8 -21.99,22 v 918.1 c -391.21,153.3 -725.52,416.5 -967.6,762.2 -250.66,357.9 -383.17,778.9 -383.17,1217.4 0,1172.3 953.69,2126 2125.97,2126 1172.27,0 2126.03,-953.7 2126.03,-2126 0,-438.5 -132.5,-859.5 -383.2,-1217.4 -242.1,-345.7 -576.4,-608.9 -967.61,-762.2 v -918.1 c 0,-12.2 -9.84,-22 -21.99,-22"
         style="fill:#000000;fill-opacity:1;fill-rule:nonzero;stroke:none"
         transform="matrix(0.13333333,0,0,-0.13333333,0,3333.3333)" />
      <path
         id="path17"
         d="m 8714.29,12035.3 c -80.16,0 -154.42,15.5 -222.36,46.4 -229.34,104.4 -300.48,345.4 -303.4,355.6 -1.89,6.6 -0.56,13.8 3.58,19.3 4.17,5.5 10.68,8.7 17.58,8.7 h 1240.73 v 443.4 H 7988.14 c -12.15,0 -21.99,9.8 -21.99,22 0,12.1 9.84,22 21.99,22 h 1484.27 c 12.16,0 22,-9.9 22,-22 v -487.4 c 0,-12.1 -9.84,-22 -22,-22 H 8240.83 c 25.52,-64.6 103.11,-224.1 269.75,-299.8 155.51,-70.6 349.3,-52.5 575.88,53.7 11.09,5.2 24.13,0.5 29.26,-10.5 5.15,-11 0.43,-24.1 -10.57,-29.3 -142.28,-66.7 -272.96,-100.1 -390.86,-100.1"
         style="fill:#000000;fill-opacity:1;fill-rule:nonzero;stroke:none"
         transform="matrix(0.13333333,0,0,-0.13333333,0,3333.3333)" />
      <path
         id="path18"
         d="m 8610.71,13949.6 c -10.25,0 -19.39,7.1 -21.52,17.6 l -590.95,2897.1 c -2.42,11.9 5.24,23.5 17.14,25.9 11.9,2.5 23.5,-5.2 25.95,-17.1 L 8632.28,13976 c 2.43,-11.9 -5.24,-23.6 -17.14,-26 -1.48,-0.3 -2.97,-0.4 -4.43,-0.4"
         style="fill:#000000;fill-opacity:1;fill-rule:nonzero;stroke:none"
         transform="matrix(0.13333333,0,0,-0.13333333,0,3333.3333)" />
      <path
         id="path19"
         d="m 8849.82,13949.6 c -1.46,0 -2.94,0.1 -4.42,0.4 -11.9,2.4 -19.57,14.1 -17.14,26 l 590.97,2897.1 c 2.43,11.9 14.03,19.6 25.95,17.1 11.9,-2.4 19.57,-14 17.14,-25.9 l -590.97,-2897.1 c -2.13,-10.5 -11.28,-17.6 -21.53,-17.6"
         style="fill:#000000;fill-opacity:1;fill-rule:nonzero;stroke:none"
         transform="matrix(0.13333333,0,0,-0.13333333,0,3333.3333)" />
      <path
         id="path20"
         d="m 8661.62,16595.9 c -0.86,0 -1.72,0 -2.6,0.1 -9.73,1.2 -17.53,8.6 -19.09,18.3 l -81.84,498.5 -144.5,-291.3 c -3.71,-7.5 -11.34,-12.2 -19.69,-12.2 h -170.38 c -12.16,0 -22,9.8 -22,22 0,12.1 9.84,22 22,22 h 156.74 l 168.78,340.2 c 4.24,8.6 13.41,13.4 22.97,12 9.45,-1.4 16.88,-8.8 18.42,-18.2 l 80.56,-490.8 183.81,435 c 3.53,8.3 11.73,13.6 20.93,13.4 9.08,-0.3 17.05,-6.1 20.08,-14.7 l 97.78,-276.9 h 221.78 c 12.15,0 21.99,-9.9 21.99,-22 0,-12.2 -9.84,-22 -21.99,-22 h -237.33 c -9.32,0 -17.64,5.9 -20.75,14.6 l -84.08,238.1 -191.33,-452.7 c -3.46,-8.2 -11.5,-13.4 -20.26,-13.4"
         style="fill:#000000;fill-opacity:1;fill-rule:nonzero;stroke:none"
         transform="matrix(0.13333333,0,0,-0.13333333,0,3333.3333)" />
      <path
         id="path21"
         d="m 21403.4,19699.1 c 0,628.8 -509.8,1138.6 -1138.6,1138.6 -628.8,0 -1138.6,-509.8 -1138.6,-1138.6 0,-485.1 303.6,-899.1 731,-1063.1 v -505 h 815.2 v 505 c 427.4,164 731,578 731,1063.1"
         style="fill:#ffffff;fill-opacity:1;fill-rule:nonzero;stroke:none"
         transform="matrix(0.13333333,0,0,-0.13333333,0,3333.3333)" />
      <path
         id="path22"
         d="m 19879.2,18153 h 771.2 v 483 c 0,9.1 5.6,17.2 14.1,20.5 428.8,164.5 716.9,583.5 716.9,1042.6 0,615.7 -500.9,1116.6 -1116.6,1116.6 -615.7,0 -1116.6,-500.9 -1116.6,-1116.6 0,-459.1 288.1,-878.1 716.9,-1042.6 8.5,-3.3 14.1,-11.4 14.1,-20.5 z m 793.2,-44 h -815.2 c -12.2,0 -22,9.8 -22,22 v 489.9 c -437.8,174.8 -731,606.1 -731,1078.2 0,639.9 520.7,1160.6 1160.6,1160.6 639.9,0 1160.6,-520.7 1160.6,-1160.6 0,-472.1 -293.2,-903.4 -731,-1078.2 V 18131 c 0,-12.2 -9.8,-22 -22,-22"
         style="fill:#000000;fill-opacity:1;fill-rule:nonzero;stroke:none"
         transform="matrix(0.13333333,0,0,-0.13333333,0,3333.3333)" />
      <path
         id="path23"
         d="m 20256.2,17396.6 c -44.9,0 -86.4,8.6 -124.5,26 -128.3,58.4 -168.1,193.1 -169.8,198.8 -1.9,6.7 -0.5,13.8 3.6,19.3 4.2,5.5 10.7,8.7 17.6,8.7 h 661.3 v 219.8 h -781.2 c -12.1,0 -22,9.8 -22,22 0,12.1 9.9,22 22,22 h 803.2 c 12.2,0 22,-9.9 22,-22 v -263.7 c 0,-12.2 -9.8,-22 -22,-22 h -651.2 c 17.6,-38.9 58.3,-108.3 135.1,-143.1 81.3,-36.8 183.2,-27 303,29.1 11,5.2 24.1,0.4 29.2,-10.6 5.2,-11 0.4,-24 -10.5,-29.2 -78.4,-36.7 -150.6,-55.1 -215.8,-55.1"
         style="fill:#000000;fill-opacity:1;fill-rule:nonzero;stroke:none"
         transform="matrix(0.13333333,0,0,-0.13333333,0,3333.3333)" />
      <path
         id="path24"
         d="m 20200.1,18432.5 c -10.2,0 -19.4,7.2 -21.5,17.6 l -319.8,1567.7 c -2.4,11.9 5.2,23.5 17.1,26 11.9,2.4 23.6,-5.3 26,-17.2 l 319.8,-1567.7 c 2.4,-11.9 -5.3,-23.6 -17.2,-26 -1.5,-0.3 -2.9,-0.4 -4.4,-0.4"
         style="fill:#000000;fill-opacity:1;fill-rule:nonzero;stroke:none"
         transform="matrix(0.13333333,0,0,-0.13333333,0,3333.3333)" />
      <path
         id="path25"
         d="m 20329.5,18432.5 c -1.4,0 -2.9,0.1 -4.4,0.4 -11.9,2.4 -19.6,14.1 -17.1,26 l 319.7,1567.7 c 2.5,11.9 14.1,19.6 26,17.2 11.9,-2.5 19.6,-14.1 17.1,-26 L 20351,18450.1 c -2.1,-10.4 -11.2,-17.6 -21.5,-17.6"
         style="fill:#000000;fill-opacity:1;fill-rule:nonzero;stroke:none"
         transform="matrix(0.13333333,0,0,-0.13333333,0,3333.3333)" />
      <path
         id="path26"
         d="m 20227.7,19864.5 c -0.9,0 -1.8,0.1 -2.6,0.2 -9.8,1.1 -17.6,8.6 -19.1,18.2 l -39.3,238.9 -64.2,-129.6 c -3.7,-7.5 -11.4,-12.2 -19.7,-12.2 h -92.2 c -12.2,0 -22,9.8 -22,22 0,12.1 9.8,22 22,22 h 78.6 l 88.5,178.5 c 4.2,8.6 13.3,13.4 23,12 9.4,-1.4 16.8,-8.8 18.4,-18.2 l 37.9,-231.1 85.9,203.2 c 3.5,8.3 11.9,13.7 20.9,13.4 9.1,-0.3 17.1,-6.1 20.1,-14.7 l 50.5,-143.1 h 112.9 c 12.2,0 22,-9.9 22,-22 0,-12.2 -9.8,-22 -22,-22 h -128.4 c -9.3,0 -17.6,5.9 -20.8,14.7 l -36.8,104.2 -93.4,-221 c -3.4,-8.2 -11.5,-13.4 -20.2,-13.4"
         style="fill:#000000;fill-opacity:1;fill-rule:nonzero;stroke:none"
         transform="matrix(0.13333333,0,0,-0.13333333,0,3333.3333)" />
      <path
         id="path27"
         d="m 27877.6,14435.4 c -5.6,0 -11.2,2.2 -15.5,6.5 -8.6,8.6 -8.6,22.5 0,31.1 472.9,472.9 733.4,1101.7 733.4,1770.6 0,881.5 -472,1708.1 -1231.9,2157.2 -10.4,6.1 -13.9,19.6 -7.7,30.1 6.2,10.5 19.7,13.9 30.1,7.7 773.2,-456.9 1253.5,-1298 1253.5,-2195 0,-680.6 -265.1,-1320.5 -746.3,-1801.7 -4.3,-4.3 -10,-6.5 -15.6,-6.5"
         style="fill:#5479f7;fill-opacity:1;fill-rule:nonzero;stroke:none"
         transform="matrix(0.13333333,0,0,-0.13333333,0,3333.3333)" />
      <path
         id="path28"
         d="m 28501.9,13165.7 c -7.1,0 -14,3.4 -18.3,9.7 -6.8,10.1 -4.1,23.8 5.9,30.6 1011.3,683.2 1615.1,1818.7 1615.1,3037.6 0,1370.5 -755.5,2615.9 -1971.7,3250.1 -10.8,5.6 -15,18.9 -9.4,29.7 5.7,10.8 18.9,15 29.7,9.3 1230.8,-641.8 1995.4,-1902.2 1995.4,-3289.1 0,-1233.5 -611,-2382.7 -1634.4,-3074.1 -3.8,-2.5 -8.1,-3.8 -12.3,-3.8"
         style="fill:#5479f7;fill-opacity:1;fill-rule:nonzero;stroke:none"
         transform="matrix(0.13333333,0,0,-0.13333333,0,3333.3333)" />
      <path
         id="path29"
         d="m 5266.78,14841.7 c -6.81,0 -13.51,3.1 -17.81,9 -450.04,619.4 -687.91,1352.8 -687.91,2120.8 0,1991.7 1620.3,3611.9 3611.9,3611.9 12.15,0 21.99,-9.8 21.99,-22 0,-12.1 -9.84,-22 -21.99,-22 -1967.34,0 -3567.91,-1600.5 -3567.91,-3567.9 0,-758.7 234.97,-1483.1 679.49,-2094.9 7.15,-9.8 4.97,-23.6 -4.85,-30.7 -3.91,-2.9 -8.42,-4.2 -12.91,-4.2"
         style="fill:#5479f7;fill-opacity:1;fill-rule:nonzero;stroke:none"
         transform="matrix(0.13333333,0,0,-0.13333333,0,3333.3333)" />
      <path
         id="path30"
         d="m 3400.33,17155.9 c -12.16,0 -22,9.9 -22,22 0,1042.4 358.84,2063 1010.42,2873.9 641.86,798.8 1541.71,1366.2 2533.79,1597.6 11.99,2.8 23.65,-4.6 26.42,-16.4 2.77,-11.8 -4.59,-23.7 -16.41,-26.4 -2066.77,-482.2 -3510.23,-2303.3 -3510.23,-4428.7 0,-12.1 -9.83,-22 -21.99,-22"
         style="fill:#5479f7;fill-opacity:1;fill-rule:nonzero;stroke:none"
         transform="matrix(0.13333333,0,0,-0.13333333,0,3333.3333)" />
      <path
         id="path31"
         d="m 26129.2,14904 -23.1,215.5 c 0,1 -0.1,1.9 -0.1,2.9 v -1.3 l -0.2,1.3 c -30.1,-603.9 -329.3,-1099.3 -724.1,-1233.9 394.8,-134.5 694,-629.9 724.1,-1233.9 l 0.2,1.4 v -1.4 c 0,1 0.1,2 0.1,3 l 23.1,215.5 c 82.4,502.4 354.9,897.5 700.9,1015.4 -346,117.9 -618.5,513.1 -700.9,1015.5"
         style="fill:#ffffff;fill-opacity:1;fill-rule:nonzero;stroke:none"
         transform="matrix(0.13333333,0,0,-0.13333333,0,3333.3333)" />
      <path
         id="path32"
         d="m 25443,13888.5 c 336.1,-144.2 587,-535.7 663.3,-1022.8 l 1,9.7 c 79.1,482.5 335.8,872 661.8,1013.1 -326,141.1 -582.7,530.6 -661.6,1011.9 -0.1,0.4 -0.1,0.8 -0.2,1.3 l -1,9.6 c -76.3,-487 -327.2,-878.6 -663.3,-1022.8 z m 663,-1255.9 c -0.2,0 -0.3,0 -0.5,0 -7.6,0.2 -14.2,4.2 -18,10.1 -2.1,3.1 -3.4,6.8 -3.6,10.8 -29.1,582.5 -320.8,1081.8 -709.3,1214.2 -8.9,3 -14.9,11.4 -14.9,20.8 0,9.4 6,17.8 14.9,20.8 388.5,132.5 680.2,631.7 709.3,1214.2 0.5,11.5 9.8,20.6 21.3,20.9 8,0.1 14.6,-3.5 18.7,-9.4 2.4,-3.2 3.9,-7.2 4.1,-11.6 l 0.1,-2.4 22.9,-214.1 c 80.8,-491.4 350.1,-883 686.2,-997.6 8.9,-3 14.9,-11.4 14.9,-20.8 0,-9.4 -6,-17.8 -14.9,-20.8 -336.3,-114.6 -605.7,-506.4 -686.3,-998.2 l -22.9,-215.8 c -0.6,-11.8 -10.3,-21.1 -22,-21.1"
         style="fill:#000000;fill-opacity:1;fill-rule:nonzero;stroke:none"
         transform="matrix(0.13333333,0,0,-0.13333333,0,3333.3333)" />
      <path
         id="path33"
         d="m 23233.8,20534.9 -14.7,137.6 c 0,0.7 -0.1,1.3 -0.1,1.9 v -0.9 l -0.1,0.9 c -19.3,-385.6 -210.3,-702 -462.4,-787.9 252.1,-85.9 443.1,-402.3 462.4,-787.9 l 0.1,0.9 v -0.9 c 0,0.6 0.1,1.2 0.1,1.9 l 14.7,137.6 c 52.6,320.8 226.7,573.1 447.6,648.4 -220.9,75.3 -395,327.6 -447.6,648.4"
         style="fill:#ffffff;fill-opacity:1;fill-rule:nonzero;stroke:none"
         transform="matrix(0.13333333,0,0,-0.13333333,0,3333.3333)" />
      <path
         id="path34"
         d="m 22815,19886.5 c 198.5,-93.6 348.5,-321.7 404.1,-606.6 56.5,285 210,514.1 404.1,606.6 -194.3,92.6 -347.9,322 -404.1,606.4 -55.6,-284.7 -205.6,-512.8 -404.1,-606.4 z m 403.9,-809.5 c -0.1,0 -0.3,0 -0.5,0 -11.5,0.3 -20.9,9 -21.5,20.5 -18.4,368.8 -202.4,684.7 -447.5,768.2 -8.9,3 -14.9,11.4 -14.9,20.8 0,9.4 6,17.8 14.9,20.8 245.1,83.5 429.1,399.4 447.5,768.2 0.6,11.5 10,20.6 21.5,20.9 0.2,0 0.3,0 0.5,0 7.7,0 14.6,-4 18.5,-10.2 2,-2.9 3.3,-6.5 3.5,-10.3 0.1,-0.3 0.2,-2.4 0.2,-2.6 l 14.5,-135.4 c 51.2,-310.9 221,-558.4 432.8,-630.6 9,-3 15,-11.4 15,-20.8 0,-9.4 -6,-17.8 -15,-20.8 -211.9,-72.3 -381.9,-320 -432.9,-631.2 l -14.5,-136.4 c -0.1,-0.2 -0.1,-0.5 -0.1,-0.8 v 0 c -1.1,-11.3 -10.7,-20.3 -22,-20.3"
         style="fill:#000000;fill-opacity:1;fill-rule:nonzero;stroke:none"
         transform="matrix(0.13333333,0,0,-0.13333333,0,3333.3333)" />
      <path
         id="path35"
         d="m 25386.6,19268.1 c 159.2,0 288.3,-129.1 288.3,-288.4 0,-159.3 -129.1,-288.4 -288.3,-288.4 -159.3,0 -288.4,129.1 -288.4,288.4 0,159.3 129.1,288.4 288.4,288.4"
         style="fill:#e2eaff;fill-opacity:1;fill-rule:nonzero;stroke:none"
         transform="matrix(0.13333333,0,0,-0.13333333,0,3333.3333)" />
      <path
         id="path36"
         d="m 15101.1,19988.4 -23.1,215.5 c 0,1 -0.1,2 -0.1,3 v -1.4 l -0.2,1.4 c -30.2,-604 -329.4,-1099.4 -724.1,-1234 394.7,-134.5 693.9,-629.9 724.1,-1233.9 l 0.2,1.4 v -1.4 c 0,1 0.1,2 0.1,3 l 23.1,215.5 c 82.4,502.4 354.9,897.5 700.9,1015.4 -346,118 -618.5,513.1 -700.9,1015.5"
         style="fill:#e2eaff;fill-opacity:1;fill-rule:nonzero;stroke:none"
         transform="matrix(0.13333333,0,0,-0.13333333,0,3333.3333)" />
      <path
         id="path37"
         d="m 11366.9,14968.1 -17.9,167.7 c -0.1,0.8 -0.1,1.5 -0.1,2.3 v -1.1 l -0.2,1.1 c -23.5,-470.1 -256.3,-855.6 -563.5,-960.3 307.2,-104.7 540,-490.2 563.5,-960.3 l 0.2,1.1 v -1.1 c 0,0.8 0,1.6 0.1,2.3 l 17.9,167.7 c 64.1,391 276.2,698.5 545.5,790.3 -269.3,91.8 -481.4,399.3 -545.5,790.3"
         style="fill:#ffffff;fill-opacity:1;fill-rule:nonzero;stroke:none"
         transform="matrix(0.13333333,0,0,-0.13333333,0,3333.3333)" />
      <path
         id="path38"
         d="m 10845,14177.8 c 251.1,-113.2 439.8,-403.4 503.9,-765.4 65.2,362 258.7,653.7 504,765.4 -245.6,111.8 -439.2,403.9 -504,765.2 -64.2,-361.8 -252.8,-652 -503.9,-765.2 z m 503.8,-981.7 c -0.2,0 -0.4,0 -0.5,0 -11.6,0.3 -20.9,8.8 -21.5,20.3 -22.6,451.4 -248.2,838.2 -548.7,940.6 -8.9,3 -14.9,11.4 -14.9,20.8 0,9.4 6,17.8 14.9,20.8 300.5,102.4 526.1,489.2 548.7,940.6 0.6,11.5 9.9,20.6 21.4,20.9 8.6,0.3 14.6,-3.6 18.7,-9.6 2.3,-3.1 3.7,-7 3.9,-11.2 l 17.9,-168.3 c 62.6,-380.6 270.9,-683.8 530.8,-772.4 8.9,-3 14.9,-11.4 14.9,-20.8 0,-9.4 -6,-17.8 -14.9,-20.8 -260,-88.6 -468.4,-392.1 -530.9,-773 l -17.8,-166.5 c -0.1,-3 -0.9,-5.8 -2.1,-8.3 -3.5,-7.7 -11.2,-13.1 -19.9,-13.1"
         style="fill:#000000;fill-opacity:1;fill-rule:nonzero;stroke:none"
         transform="matrix(0.13333333,0,0,-0.13333333,0,3333.3333)" />
      <path
         id="path39"
         d="m 6031.37,14590.1 -29.88,279.6 c -0.06,1.3 -0.15,2.5 -0.22,3.8 v -1.8 l -0.19,1.8 c -39.16,-783.5 -427.28,-1426.1 -939.34,-1600.7 512.06,-174.5 900.18,-817.2 939.34,-1600.7 l 0.19,1.8 v -1.8 c 0.07,1.3 0.16,2.6 0.22,3.9 l 29.88,279.5 c 106.9,651.8 460.46,1164.4 909.25,1317.3 -448.79,153 -802.35,665.6 -909.25,1317.3"
         style="fill:#ffffff;fill-opacity:1;fill-rule:nonzero;stroke:none"
         transform="matrix(0.13333333,0,0,-0.13333333,0,3333.3333)" />
      <path
         id="path40"
         d="m 5124.28,13272.8 c 452.95,-185.9 788.78,-718.6 878.39,-1378.9 l 6.83,64 c 103.36,630.4 441.15,1138.1 868.82,1314.9 -427.67,176.9 -765.43,684.5 -868.65,1313.8 -0.08,0.4 -0.12,0.8 -0.17,1.2 l -6.83,63.9 c -89.61,-660.2 -425.44,-1193 -878.39,-1378.9 z M 6001.13,11651 c -0.2,0 -0.39,0 -0.58,0.1 -11.47,0.3 -20.86,8.5 -21.44,20 -37.89,758.2 -418.06,1408.3 -924.46,1580.9 -8.92,3 -14.91,11.4 -14.91,20.8 0,9.4 5.99,17.8 14.91,20.9 506.4,172.6 886.57,822.7 924.46,1580.9 0.58,11.5 9.86,20.6 21.33,20.9 7.48,0.2 14.6,-3.5 18.71,-9.4 2.38,-3.2 3.86,-7.1 4.1,-11.5 l -4.9,-1.1 h 4.92 c 0,-0.5 -0.02,-1 -0.04,-1.5 h 0.13 l 29.81,-278.9 c 105.15,-640 456.23,-1150.1 894.54,-1299.4 8.92,-3.1 14.91,-11.5 14.91,-20.9 0,-9.4 -5.99,-17.8 -14.91,-20.8 -438.44,-149.4 -789.61,-659.7 -894.64,-1300 l -29.71,-278.4 c -0.04,-0.8 -0.13,-1.7 -0.28,-2.5 -1.44,-11 -10.89,-20.1 -21.95,-20.1"
         style="fill:#000000;fill-opacity:1;fill-rule:nonzero;stroke:none"
         transform="matrix(0.13333333,0,0,-0.13333333,0,3333.3333)" />
      <path
         id="path41"
         d="m 10785.2,11731.1 c 0,-180.2 -146.1,-326.3 -326.3,-326.3 -180.2,0 -326.3,146.1 -326.3,326.3 0,180.2 146.1,326.3 326.3,326.3 180.2,0 326.3,-146.1 326.3,-326.3"
         style="fill:#e2eaff;fill-opacity:1;fill-rule:nonzero;stroke:none"
         transform="matrix(0.13333333,0,0,-0.13333333,0,3333.3333)" />
      <path
         id="path42"
         d="m 27993.3,12954.2 c 0,-145.4 -117.9,-263.3 -263.3,-263.3 -145.4,0 -263.3,117.9 -263.3,263.3 0,145.4 117.9,263.3 263.3,263.3 145.4,0 263.3,-117.9 263.3,-263.3"
         style="fill:#ffffff;fill-opacity:1;fill-rule:nonzero;stroke:none"
         transform="matrix(0.13333333,0,0,-0.13333333,0,3333.3333)" />
      <path
         id="path43"
         d="m 27730,13195.5 c -133.1,0 -241.4,-108.2 -241.4,-241.3 0,-133.1 108.3,-241.3 241.4,-241.3 133,0 241.3,108.2 241.3,241.3 0,133.1 -108.3,241.3 -241.3,241.3 z m 0,-526.6 c -157.3,0 -285.3,128 -285.3,285.3 0,157.3 128,285.3 285.3,285.3 157.3,0 285.3,-128 285.3,-285.3 0,-157.3 -128,-285.3 -285.3,-285.3"
         style="fill:#000000;fill-opacity:1;fill-rule:nonzero;stroke:none"
         transform="matrix(0.13333333,0,0,-0.13333333,0,3333.3333)" />
      <path
         id="path44"
         d="m 30423.9,9387.5 c 0,0 55.2,404.2 -776.9,515.8 0,0 0.9,391.6 -1245,340.9 -1106.1,-45.1 -1164.5,-155.9 -1164.5,-155.9 0,0 221.7,423.6 317.9,587.3 96.3,163.7 377.4,724.6 -26.5,888.4 -404,163.8 -626,-401.6 -764.4,-580.8 C 26626.2,10804 23248,7231.1 23248,7231.1 c 0,0 -716.2,4482.6 -5462.9,5488.2 H 16364.9 C 11618.2,11713.7 10902,7231.1 10902,7231.1 c 0,0 -3378.23,3572.9 -3516.56,3752.1 -138.34,179.2 -360.34,744.6 -764.29,580.8 -403.98,-163.8 -122.88,-724.7 -26.59,-888.4 96.29,-163.7 317.89,-587.3 317.89,-587.3 0,0 -58.31,110.8 -1164.5,155.9 -1245.9,50.7 -1245.02,-340.9 -1245.02,-340.9 -832.04,-111.6 -776.77,-515.8 -776.77,-515.8 0,0 -353.92,-141.3 -342.91,-434.2 11,-292.9 300.33,-355 300.33,-355 61.64,-292.4 477.47,-233.2 477.47,-233.2 1468.3,86.4 2065.88,-431.3 2065.88,-431.3 1252.61,-941.5 2613.3,-4220.9 4834.77,-4253.4 2221.4,-32.5 2943.4,2674.2 2943.4,2674.2 l 429.9,143.7 -402.7,-725.2 -629.8,-2401.1 h 3155.3 1034.3 3155.4 l -629.8,2401.1 -402.7,725.2 429.8,-143.7 c 0,0 722.1,-2706.7 2943.5,-2674.2 2221.5,32.5 3582.1,3311.9 4834.8,4253.4 0,0 597.6,517.7 2065.9,431.3 0,0 415.8,-59.2 477.4,233.2 0,0 289.3,62.1 300.3,355 11,292.9 -342.8,434.2 -342.8,434.2"
         style="fill:#ffffff;fill-opacity:1;fill-rule:nonzero;stroke:none"
         transform="matrix(0.13333333,0,0,-0.13333333,0,3333.3333)" />
      <path
         id="path45"
         d="m 27257,10078.1 c 0,-0.1 -0.1,-0.1 -0.1,-0.2 0,0.1 0.1,0.1 0.1,0.2 z m -0.1,-0.2 -0.1,-0.1 z m -20363.92,0.2 c 0.09,-0.2 0.17,-0.3 0.26,-0.5 -0.09,0.2 -0.17,0.3 -0.26,0.5 z m 1.85,-2.8 v 0 z M 20747.5,3350 c -9.8,0 -18.7,6.5 -21.2,16.4 l -629.2,2398.4 -401.3,722.8 c -4.4,7.9 -3.5,17.7 2.3,24.7 5.8,7 15.3,9.7 23.9,6.8 l 429.8,-143.7 c 7,-2.3 12.4,-8 14.3,-15.1 1.8,-6.8 185.2,-681.8 636.3,-1343.6 410.2,-601.9 1131.8,-1314.6 2247.1,-1314.6 12.8,0 25.6,0.1 38.5,0.3 1471.1,21.5 2550.5,1462.1 3502.8,2733.1 462.6,617.4 899.5,1200.6 1319,1515.9 4.9,4.3 620,521.6 2080.4,435.7 5.8,-0.7 398,-53 454.7,215.7 1.8,8.5 8.4,15.1 16.8,16.9 11.2,2.5 272.8,62.6 283.1,334.4 10.3,274.3 -325.7,411.6 -329.1,413 -9.4,3.7 -15,13.4 -13.7,23.4 0.5,3.7 39.3,384.1 -757.9,491 -10.9,1.4 -19.1,10.8 -19,21.8 -0.1,1.9 -2,52.4 -67.6,114 -117.4,110.1 -413.2,235.1 -1154.6,204.9 -1021.1,-41.6 -1139.9,-139.2 -1147.5,-146.6 -6.2,-8.9 -18.2,-11.9 -28.1,-6.7 -10.7,5.6 -14.9,18.9 -9.2,29.6 v 0.1 0 0.1 c 5.8,11.1 223.7,427.1 318.4,588.1 41.5,70.6 244.6,435.1 162.7,676.6 -28.1,82.9 -88.2,143.6 -178.6,180.3 -308,124.9 -503.5,-196.8 -646.3,-431.6 -34.7,-57.1 -64.7,-106.5 -92.3,-142.3 -137.5,-178 -3380,-3607.9 -3518,-3753.8 -5.7,-6.1 -14.5,-8.4 -22.5,-6 -8,2.5 -13.9,9.3 -15.2,17.6 -1.8,11.2 -187.6,1131.9 -949.3,2360.4 -702.3,1132.6 -2052,2591.2 -4494.3,3109.3 h -1415.5 c -2443,-518.3 -3792.8,-1977.6 -4495.1,-3110.8 -761.2,-1228.4 -946.6,-2347.8 -948.4,-2358.9 -1.3,-8.3 -7.2,-15.1 -15.2,-17.6 -8,-2.4 -16.8,-0.1 -22.5,6 -138,145.9 -3380.55,3575.8 -3517.97,3753.8 -27.67,35.8 -57.67,85.2 -92.41,142.3 -142.71,234.9 -338.19,556.4 -646.22,431.6 -90.4,-36.7 -150.5,-97.4 -178.64,-180.3 -81.86,-241.4 121.23,-606 162.78,-676.6 95.45,-162.3 316.17,-584 318.38,-588.3 5.63,-10.7 1.49,-24 -9.25,-29.6 -9.88,-5.2 -21.87,-2.2 -28.14,6.7 -7.65,7.4 -126.6,105 -1147.49,146.6 -741.39,30.2 -1037.14,-94.8 -1154.55,-204.9 -65.6,-61.6 -67.51,-112.1 -67.55,-114.3 -0.26,-10.8 -8.34,-20.1 -19.08,-21.5 -797.17,-106.9 -758.38,-487.3 -757.91,-491.1 1.27,-10 -4.34,-19.6 -13.64,-23.3 -3.39,-1.4 -339.35,-139.2 -329.09,-413 10.23,-271.8 271.87,-331.9 283,-334.4 8.48,-1.8 15.1,-8.4 16.88,-16.9 56.75,-269.1 448.88,-216.5 452.85,-215.9 1462.19,86.1 2077.35,-431.2 2083.38,-436.4 418.32,-314.4 855.26,-897.6 1317.87,-1515 952.3,-1271 2031.65,-2711.6 3502.8,-2733.1 12.8,-0.2 25.7,-0.3 38.5,-0.3 1115.9,0 1837.4,713.3 2247.8,1315.6 450.8,661.9 633.8,1335.8 635.6,1342.6 1.9,7.1 7.3,12.8 14.3,15.1 l 429.8,143.7 c 8.6,2.9 18.1,0.2 23.9,-6.8 5.8,-7 6.7,-16.8 2.3,-24.7 l -401.3,-722.8 -629.2,-2398.4 c -3,-11.7 -15.1,-18.8 -26.8,-15.7 -11.8,3.1 -18.8,15.1 -15.7,26.9 l 629.9,2401.1 c 0.4,1.7 1.1,3.4 2,5 l 375.2,675.8 -365.1,-122.1 c -26.4,-92.4 -216,-724.1 -638.6,-1344.5 -416.3,-611.1 -1149.2,-1334.7 -2284,-1334.8 -13.1,0 -26,0.1 -39.3,0.3 -666.1,9.8 -1313.16,309 -1977.99,914.7 -578.9,527.5 -1099.78,1222.7 -1559.32,1836 -460.67,614.9 -895.79,1195.6 -1310.26,1507.2 -7.11,6 -611.24,511.6 -2051.39,426.9 -2.54,-0.5 -422.61,-56.7 -497.21,237.2 -59.85,17.7 -293.78,103.6 -303.86,372.1 -10.26,273.5 272.9,418 342.11,449.2 -0.24,34.8 7.71,118.2 77.87,210.3 120.07,157.7 356.28,262.2 702.28,310.8 5.43,25.4 22.44,72.3 75.43,123.3 122.13,117.5 427.72,251 1189.89,220 716.73,-29.2 999.72,-85.7 1111.44,-125.8 -65.29,123.9 -211.85,400.4 -284.69,524.2 -60.75,103.3 -252.3,460 -166.49,713 32.41,95.6 100.98,165.2 203.76,206.9 342.71,138.9 557.91,-215.1 700.34,-449.4 34.07,-56 63.47,-104.4 89.66,-138.3 129.18,-167.4 3150.23,-3364.5 3485.33,-3719 42.1,218.4 265.2,1232.5 946.5,2332 449.9,725.9 1008.6,1346.8 1660.7,1845.3 815.1,623.2 1779,1055.8 2865,1285.8 1.5,0.3 3,0.5 4.5,0.5 h 1420.2 c 1.5,0 3,-0.2 4.5,-0.5 1086,-230 2049.9,-662.6 2865,-1285.8 652.1,-498.5 1210.8,-1119.4 1660.7,-1845.3 681.3,-1099.5 904.4,-2113.6 946.6,-2332 335,354.5 3356,3551.6 3485.2,3719 26.2,33.9 55.6,82.2 89.6,138.2 142.5,234.4 357.7,588.5 700.4,449.5 102.8,-41.7 171.4,-111.3 203.8,-206.9 85.8,-253.1 -105.7,-609.7 -166.5,-713 -72.8,-123.8 -219.4,-400.3 -284.7,-524.2 111.7,40.1 394.7,96.6 1111.4,125.8 762.1,31 1067.8,-102.5 1190,-220 52.9,-51 69.9,-97.9 75.4,-123.3 346,-48.6 582.2,-153.1 702.2,-310.8 70.2,-92.1 78.2,-175.5 77.9,-210.3 69.2,-31.2 352.4,-175.7 342.1,-449.2 -10.1,-268.5 -244,-354.4 -303.8,-372.1 -74.6,-293.9 -494.8,-237.6 -499,-237 -1438.8,84.5 -2042.5,-421.1 -2048.5,-426.2 -415.6,-312.5 -850.7,-893.2 -1311.4,-1508.1 -459.6,-613.3 -980.4,-1308.5 -1559.3,-1836 -664.9,-605.7 -1311.9,-904.9 -1978,-914.7 -1158.3,-16.9 -1902.3,716.4 -2323.3,1334.5 -422.6,620.4 -612.3,1252.1 -638.6,1344.5 l -365.1,122.1 375.2,-675.8 c 0.9,-1.6 1.6,-3.3 2,-5 l 629.9,-2401.1 c 3.1,-11.8 -3.9,-23.8 -15.7,-26.9 -1.9,-0.5 -3.8,-0.7 -5.6,-0.7"
         style="fill:#000000;fill-opacity:1;fill-rule:nonzero;stroke:none"
         transform="matrix(0.13333333,0,0,-0.13333333,0,3333.3333)" />
      <path
         id="path46"
         d="m 30442.4,8618.2 c -10.5,0 -19.9,7.6 -21.6,18.4 -8.4,51.2 -41,100.5 -91.9,138.9 -48.4,36.4 -106.3,59 -161.8,77.9 -409.1,139.7 -848.4,141.1 -1273.3,142.4 -12.1,0.1 -21.9,10 -21.9,22.1 0,12.1 9.9,21.9 22,21.9 0,0 0,0 0.1,0 428.4,-1.3 871.4,-2.7 1287.3,-144.8 58.9,-20.1 120.8,-44.2 174.1,-84.4 59.9,-45.2 98.6,-104.5 108.8,-166.9 1.9,-12 -6.2,-23.3 -18.2,-25.2 -1.2,-0.2 -2.4,-0.3 -3.6,-0.3"
         style="fill:#000000;fill-opacity:1;fill-rule:nonzero;stroke:none"
         transform="matrix(0.13333333,0,0,-0.13333333,0,3333.3333)" />
      <path
         id="path47"
         d="m 30384.5,9399.5 c -1.4,0 -2.9,0.1 -4.3,0.4 -551.2,108.3 -1114.2,136 -1673.4,82.3 -11.8,-1.1 -22.8,7.7 -24,19.8 -1.1,12.1 7.7,22.9 19.8,24 563.4,54.1 1130.7,26.2 1686.1,-82.9 11.9,-2.4 19.7,-13.9 17.3,-25.9 -2,-10.4 -11.2,-17.7 -21.5,-17.7"
         style="fill:#000000;fill-opacity:1;fill-rule:nonzero;stroke:none"
         transform="matrix(0.13333333,0,0,-0.13333333,0,3333.3333)" />
      <path
         id="path48"
         d="m 28597.9,9855.5 c -10.7,0 -20.1,7.8 -21.7,18.7 -1.8,12 6.4,23.2 18.4,25 351.7,53.2 709.2,59.9 1062.6,19.9 12,-1.4 20.7,-12.3 19.3,-24.4 -1.3,-12 -12.3,-20.8 -24.3,-19.4 -349.6,39.6 -703.1,33 -1051,-19.6 -1.1,-0.1 -2.2,-0.2 -3.3,-0.2"
         style="fill:#000000;fill-opacity:1;fill-rule:nonzero;stroke:none"
         transform="matrix(0.13333333,0,0,-0.13333333,0,3333.3333)" />
      <path
         id="path49"
         d="m 27382.3,9362.4 c -8.5,0 -16.5,4.9 -20.1,13.1 -56.4,126.8 -114.7,258 -140.1,398.6 -28.7,158.7 -7.5,308.1 59.7,420.5 6.3,10.5 19.8,13.9 30.2,7.6 10.4,-6.2 13.8,-19.7 7.6,-30.1 -61.8,-103.4 -81,-241.9 -54.2,-390.2 24.5,-135.4 81.7,-264.1 137,-388.6 4.9,-11.1 -0.1,-24.1 -11.2,-29 -2.9,-1.3 -5.9,-1.9 -8.9,-1.9"
         style="fill:#000000;fill-opacity:1;fill-rule:nonzero;stroke:none"
         transform="matrix(0.13333333,0,0,-0.13333333,0,3333.3333)" />
      <path
         id="path50"
         d="m 26312.7,7500.8 c -6,0 -11.9,2.4 -16.1,7 -5.9,6.3 -7.6,15.5 -4.2,23.4 73.6,176.6 125.1,380.3 153.1,605.6 -575.9,283.8 -1016.8,622.3 -1347.4,1034.4 -7.6,9.5 -6.1,23.4 3.4,31 9.5,7.6 23.3,6 30.9,-3.4 329.2,-410.4 769.6,-747.1 1346.4,-1029.4 8.4,-4.1 13.3,-13 12.2,-22.3 -25.7,-216.3 -72.6,-413.6 -139.7,-587.1 186.7,70.8 387.2,195.6 611,380 6,5 14.2,6.4 21.6,3.7 3.4,-1.3 344.7,-126.5 532.4,-181.4 11.6,-3.4 18.3,-15.6 14.9,-27.3 -3.4,-11.6 -15.6,-18.3 -27.3,-14.9 -169.1,49.5 -461.2,155.3 -523.4,177.9 -242.4,-198.4 -458.6,-328.1 -660.8,-396.1 -2.3,-0.7 -4.7,-1.1 -7,-1.1"
         style="fill:#000000;fill-opacity:1;fill-rule:nonzero;stroke:none"
         transform="matrix(0.13333333,0,0,-0.13333333,0,3333.3333)" />
      <path
         id="path51"
         d="m 26949.1,6922.5 c -1.3,0 -2.7,0.1 -4,0.4 -962.1,177.3 -1837.9,737 -2402.8,1535.8 -7.1,9.9 -4.7,23.6 5.2,30.6 9.9,7.1 23.6,4.7 30.7,-5.2 558.3,-789.5 1423.9,-1342.7 2374.9,-1518 11.9,-2.2 19.8,-13.6 17.6,-25.6 -2,-10.6 -11.2,-18 -21.6,-18"
         style="fill:#000000;fill-opacity:1;fill-rule:nonzero;stroke:none"
         transform="matrix(0.13333333,0,0,-0.13333333,0,3333.3333)" />
      <path
         id="path52"
         d="m 22726.5,6709.7 c -5.7,0 -11.5,2.2 -15.8,6.6 -8.4,8.7 -8.3,22.6 0.4,31.1 l 482.4,470.2 c 8.7,8.5 22.6,8.3 31.1,-0.4 8.5,-8.7 8.3,-22.6 -0.4,-31.1 l -482.4,-470.2 c -4.2,-4.2 -9.8,-6.2 -15.3,-6.2"
         style="fill:#000000;fill-opacity:1;fill-rule:nonzero;stroke:none"
         transform="matrix(0.13333333,0,0,-0.13333333,0,3333.3333)" />
      <path
         id="path53"
         d="m 3707.55,8618.2 c -1.18,0 -2.36,0.1 -3.57,0.3 -11.98,1.9 -20.12,13.2 -18.17,25.2 10.21,62.4 48.85,121.7 108.77,166.9 53.34,40.2 115.2,64.3 174.1,84.4 415.91,142.1 858.93,143.5 1287.36,144.8 0.02,0 0.04,0 0.06,0 12.12,0 21.96,-9.8 22,-21.9 0.04,-12.1 -9.77,-22 -21.93,-22.1 -424.87,-1.3 -864.21,-2.7 -1273.27,-142.4 -55.46,-18.9 -113.44,-41.5 -161.83,-77.9 -50.86,-38.4 -83.47,-87.7 -91.83,-138.9 -1.76,-10.8 -11.1,-18.4 -21.69,-18.4"
         style="fill:#000000;fill-opacity:1;fill-rule:nonzero;stroke:none"
         transform="matrix(0.13333333,0,0,-0.13333333,0,3333.3333)" />
      <path
         id="path54"
         d="m 3765.5,9399.5 c -10.31,0 -19.5,7.3 -21.56,17.7 -2.35,12 5.43,23.5 17.35,25.9 555.36,109.1 1122.7,137 1686.07,82.9 12.09,-1.1 20.94,-11.9 19.78,-24 -1.16,-12 -12.07,-20.9 -23.99,-19.8 -559.16,53.7 -1122.16,26 -1673.39,-82.3 -1.43,-0.3 -2.86,-0.4 -4.26,-0.4"
         style="fill:#000000;fill-opacity:1;fill-rule:nonzero;stroke:none"
         transform="matrix(0.13333333,0,0,-0.13333333,0,3333.3333)" />
      <path
         id="path55"
         d="m 5552.09,9855.5 c -1.09,0 -2.19,0.1 -3.31,0.2 -347.84,52.6 -701.44,59.2 -1051.02,19.6 -12.28,-1.4 -22.96,7.4 -24.31,19.4 -1.37,12.1 7.3,23 19.37,24.4 353.39,40 710.88,33.3 1062.54,-19.9 12.01,-1.8 20.27,-13 18.45,-25 -1.63,-10.9 -11.02,-18.7 -21.72,-18.7"
         style="fill:#000000;fill-opacity:1;fill-rule:nonzero;stroke:none"
         transform="matrix(0.13333333,0,0,-0.13333333,0,3333.3333)" />
      <path
         id="path56"
         d="m 6767.71,9362.4 c -2.98,0 -6.01,0.6 -8.91,1.9 -11.1,4.9 -16.09,17.9 -11.17,29 55.29,124.5 112.47,253.2 136.97,388.6 26.81,148.2 7.57,286.8 -54.18,390.2 -6.24,10.4 -2.84,23.9 7.6,30.1 10.35,6.3 23.9,2.9 30.15,-7.6 67.22,-112.5 88.42,-261.8 59.74,-420.5 -25.45,-140.7 -83.73,-271.8 -140.07,-398.6 -3.65,-8.2 -11.68,-13.1 -20.13,-13.1"
         style="fill:#000000;fill-opacity:1;fill-rule:nonzero;stroke:none"
         transform="matrix(0.13333333,0,0,-0.13333333,0,3333.3333)" />
      <path
         id="path57"
         d="m 7837.34,7500.8 c -2.34,0 -4.71,0.4 -7.01,1.1 -202.19,68 -418.44,197.7 -660.86,396.1 -62.18,-22.6 -354.26,-128.4 -523.38,-177.9 -11.74,-3.4 -23.88,3.3 -27.3,14.9 -3.41,11.7 3.29,23.9 14.94,27.3 187.64,54.9 528.99,180.1 532.41,181.4 7.33,2.7 15.53,1.3 21.57,-3.7 223.81,-184.4 424.24,-309.2 610.99,-380 -67.08,173.6 -114.06,370.8 -139.75,587.1 -1.1,9.3 3.78,18.2 12.18,22.3 576.88,282.3 1017.32,619 1346.45,1029.4 7.58,9.4 21.44,11 30.93,3.4 9.47,-7.6 11,-21.5 3.39,-31 -330.61,-412.1 -771.46,-750.6 -1347.39,-1034.4 27.96,-225.3 79.45,-428.9 153.13,-605.6 3.32,-7.9 1.67,-17.1 -4.22,-23.4 -4.23,-4.6 -10.09,-7 -16.08,-7"
         style="fill:#000000;fill-opacity:1;fill-rule:nonzero;stroke:none"
         transform="matrix(0.13333333,0,0,-0.13333333,0,3333.3333)" />
      <path
         id="path58"
         d="m 7200.92,6922.5 c -10.42,0 -19.66,7.4 -21.61,18 -2.22,12 5.69,23.4 17.63,25.6 950.93,175.3 1816.54,728.5 2374.88,1518 7,9.9 20.75,12.3 30.65,5.2 9.92,-7 12.29,-20.7 5.26,-30.6 -564.91,-798.8 -1440.7,-1358.5 -2402.8,-1535.8 -1.35,-0.3 -2.7,-0.4 -4.01,-0.4"
         style="fill:#000000;fill-opacity:1;fill-rule:nonzero;stroke:none"
         transform="matrix(0.13333333,0,0,-0.13333333,0,3333.3333)" />
      <path
         id="path59"
         d="m 11423.5,6709.7 c -5.5,0 -11.1,2 -15.3,6.2 l -482.4,470.2 c -8.7,8.5 -8.9,22.4 -0.4,31.1 8.5,8.7 22.5,8.9 31.1,0.4 l 482.4,-470.2 c 8.7,-8.5 8.8,-22.4 0.4,-31.1 -4.3,-4.4 -10.1,-6.6 -15.8,-6.6"
         style="fill:#000000;fill-opacity:1;fill-rule:nonzero;stroke:none"
         transform="matrix(0.13333333,0,0,-0.13333333,0,3333.3333)" />
      <path
         id="path60"
         d="m 14877.3,10006.2 c -11.3,0 -21,8.8 -21.9,20.2 -54.5,671.1 -169.9,1341.6 -342.9,1992.7 -3.1,11.7 3.8,23.8 15.6,26.9 11.8,3.1 23.8,-3.9 26.9,-15.6 173.7,-653.7 289.5,-1326.7 344.2,-2000.4 1,-12.1 -8,-22.7 -20.1,-23.7 -0.6,0 -1.2,-0.1 -1.8,-0.1"
         style="fill:#5479f7;fill-opacity:1;fill-rule:nonzero;stroke:none"
         transform="matrix(0.13333333,0,0,-0.13333333,0,3333.3333)" />
      <path
         id="path61"
         d="M 19218.2,9909.4 17075,8553.5 14931.8,9909.4 C 14305.9,9455.2 13737.6,8522 13737.6,8522 l 203.9,-2860.7 c 2115.3,-292.7 4205,-300.3 6267,0 l 203.9,2860.7 c 0,0 -568.3,933.2 -1194.2,1387.4"
         style="fill:#5479f7;fill-opacity:1;fill-rule:nonzero;stroke:none"
         transform="matrix(0.13333333,0,0,-0.13333333,0,3333.3333)" />
      <path
         id="path62"
         d="m 19272.7,10006.2 c -0.6,0 -1.2,0.1 -1.8,0.1 -12.1,1 -21.1,11.6 -20.2,23.7 54.8,673.8 170.6,1346.8 344.3,2000.4 3.1,11.7 15.2,18.7 26.9,15.6 11.8,-3.1 18.7,-15.2 15.6,-26.9 -173,-651.1 -288.3,-1321.5 -342.9,-1992.7 -1,-11.4 -10.6,-20.2 -21.9,-20.2"
         style="fill:#5479f7;fill-opacity:1;fill-rule:nonzero;stroke:none"
         transform="matrix(0.13333333,0,0,-0.13333333,0,3333.3333)" />
      <path
         id="path63"
         d="m 20178.7,15511.8 c -238.4,299.5 -641.1,428.5 -887.1,721.8 -236.5,281.8 -308.6,668.5 -522.3,967.9 -396.5,555.3 -1058.8,368.4 -1102.8,356.5 -362.9,-26.8 -755.2,201.9 -1130.7,143.6 -330,-51.2 -583.1,-312.8 -794.6,-571.1 -211.6,-258.3 -424.1,-540.5 -734.2,-664.2 -260.6,-103.9 -554.7,-80.2 -825.4,-153.9 -594.9,-162.2 -986.5,-835.2 -867.8,-1440.3 118.7,-605 704,-1072.6 1320.3,-1091.7 229.1,-7.1 461.3,39.7 685.9,-5.7 164.5,-33.2 317.8,-114.8 484.5,-133.5 329.1,-37 630.9,172.8 953.8,245.9 538.8,122 1080.3,-141.3 1623.6,-241.9 367.7,-68.1 755.6,-59.7 1106.1,70.6 350.6,130.3 660.2,390.5 808,734.1 147.8,343.5 115.6,769.2 -117.3,1061.9"
         style="fill:#000000;fill-opacity:1;fill-rule:nonzero;stroke:none"
         transform="matrix(0.13333333,0,0,-0.13333333,0,3333.3333)" />
      <path
         id="path64"
         d="m 18093.6,15232.7 c 0,0 79.7,380.4 383.2,304.2 303.5,-76.1 457.9,-795.3 -444.6,-962.6 l 61.4,658.4"
         style="fill:#ffffff;fill-opacity:1;fill-rule:nonzero;stroke:none"
         transform="matrix(0.13333333,0,0,-0.13333333,0,3333.3333)" />
      <path
         id="path65"
         d="m 18115.4,15229.2 -58.5,-627.7 c 389.6,79.8 626,285.3 634.4,553.3 5.3,170.1 -91.3,328.5 -219.9,360.8 -72.4,18.1 -137,9.8 -192.2,-24.7 -118.7,-74.1 -160.3,-246.2 -163.8,-261.7 z m -83.2,-676.9 c -5.4,0 -10.7,2 -14.8,5.8 -5.1,4.6 -7.7,11.4 -7.1,18.3 l 61.4,658.3 c 0.1,0.8 0.2,1.6 0.4,2.5 1.7,8.2 44,203.5 183.6,290.9 65.8,41.2 142.1,51.3 226.4,30.1 150.4,-37.7 259.2,-211.7 253.2,-404.7 -3.5,-111.2 -64.2,-483.1 -699,-600.8 -1.4,-0.3 -2.7,-0.4 -4.1,-0.4"
         style="fill:#000000;fill-opacity:1;fill-rule:nonzero;stroke:none"
         transform="matrix(0.13333333,0,0,-0.13333333,0,3333.3333)" />
      <path
         id="path66"
         d="m 18137.5,14852 c -3.2,0 -6.4,0.6 -9.4,2.1 -11,5.2 -15.7,18.3 -10.5,29.3 99.3,210.2 386.8,300.6 399,304.3 11.8,3.6 23.9,-2.9 27.5,-14.5 3.6,-11.6 -2.9,-24 -14.5,-27.5 -2.8,-0.9 -281.3,-88.6 -372.2,-281.1 -3.8,-8 -11.7,-12.6 -19.9,-12.6"
         style="fill:#000000;fill-opacity:1;fill-rule:nonzero;stroke:none"
         transform="matrix(0.13333333,0,0,-0.13333333,0,3333.3333)" />
      <path
         id="path67"
         d="m 15923.5,15232.7 c 0,0 -79.7,380.4 -383.2,304.2 -303.5,-76.1 -457.9,-795.3 444.6,-962.6 l -61.4,658.4"
         style="fill:#ffffff;fill-opacity:1;fill-rule:nonzero;stroke:none"
         transform="matrix(0.13333333,0,0,-0.13333333,0,3333.3333)" />
      <path
         id="path68"
         d="m 15617.4,15524.9 c -23,0 -46.9,-3.1 -71.7,-9.3 -128.6,-32.3 -225.2,-190.7 -219.9,-360.8 8.4,-268 244.8,-473.5 634.4,-553.3 l -58.5,627.7 c -3.5,15.5 -45.1,187.6 -163.8,261.7 -36.3,22.6 -76.6,34 -120.5,34 z m 367.5,-972.6 c -1.4,0 -2.7,0.1 -4.1,0.4 -634.8,117.7 -695.5,489.6 -699,600.8 -6,193 102.8,367 253.2,404.7 84.4,21.2 160.6,11.1 226.4,-30.1 139.6,-87.4 181.9,-282.7 183.6,-290.9 0.2,-0.9 0.3,-1.7 0.4,-2.5 l 61.4,-658.3 c 0.6,-6.9 -2,-13.7 -7.1,-18.3 -4.1,-3.8 -9.4,-5.8 -14.8,-5.8"
         style="fill:#000000;fill-opacity:1;fill-rule:nonzero;stroke:none"
         transform="matrix(0.13333333,0,0,-0.13333333,0,3333.3333)" />
      <path
         id="path69"
         d="m 15879.6,14852 c -8.2,0 -16.1,4.6 -19.9,12.6 -90.9,192.5 -369.4,280.2 -372.2,281.1 -11.6,3.5 -18.1,15.9 -14.5,27.5 3.6,11.5 15.7,18.1 27.5,14.5 12.1,-3.7 299.7,-94.1 399,-304.3 5.2,-11 0.5,-24.1 -10.5,-29.3 -3,-1.5 -6.2,-2.1 -9.4,-2.1"
         style="fill:#000000;fill-opacity:1;fill-rule:nonzero;stroke:none"
         transform="matrix(0.13333333,0,0,-0.13333333,0,3333.3333)" />
      <path
         id="path70"
         d="m 18049.9,12094.9 395.6,528.5 -1017.2,882 -419.8,-1423.6 -419.8,1423.6 -1017.1,-882 395.6,-528.5 -222.4,-197 1263,-2853 v -3.6 l 0.7,1.8 0.8,-1.8 v 3.6 l 1263,2853 -222.4,197"
         style="fill:#ffffff;fill-opacity:1;fill-rule:nonzero;stroke:none"
         transform="matrix(0.13333333,0,0,-0.13333333,0,3333.3333)" />
      <path
         id="path71"
         d="m 15771.4,11892.1 1237.2,-2794.7 1237.1,2794.7 -210.4,186.4 c -8.6,7.5 -9.9,20.4 -3,29.6 l 383.3,512.1 -975.8,846.1 -410.2,-1390.7 c -2.7,-9.3 -11.3,-15.8 -21,-15.8 -9.8,0 -18.4,6.5 -21.1,15.8 l -410.2,1390.7 -975.9,-846.1 383.4,-512.1 c 6.9,-9.2 5.6,-22.1 -3,-29.6 z m 1237.9,-2872.8 c -4.4,0 -8.7,1.4 -12.3,3.8 -6.4,3.4 -10.8,9.6 -11.2,17 l -1261.1,2849 c -3.9,8.7 -1.6,19 5.5,25.3 l 207.3,183.6 -383.5,512.2 c -7,9.2 -5.6,22.2 3.1,29.8 l 1017.2,882 c 5.7,4.9 13.4,6.6 20.6,4.5 7.2,-2.1 12.8,-7.7 14.9,-14.9 l 398.8,-1352 398.7,1352 c 2.1,7.2 7.7,12.8 14.9,14.9 7.2,2.1 14.9,0.4 20.6,-4.5 l 1017.1,-882 c 8.8,-7.6 10.1,-20.6 3.2,-29.8 l -383.5,-512.2 207.3,-183.6 c 7.1,-6.3 9.4,-16.6 5.5,-25.3 L 17031.3,9040.2 c -0.5,-10 -7.7,-18.4 -17.5,-20.4 -1.5,-0.3 -3,-0.5 -4.5,-0.5"
         style="fill:#000000;fill-opacity:1;fill-rule:nonzero;stroke:none"
         transform="matrix(0.13333333,0,0,-0.13333333,0,3333.3333)" />
      <path
         id="path72"
         d="m 17548.2,12571.1 -541,-2477.7 -620.2,2477.7 v 1608.8 h 1161.2 v -1608.8"
         style="fill:#ffffff;fill-opacity:1;fill-rule:nonzero;stroke:none"
         transform="matrix(0.13333333,0,0,-0.13333333,0,3333.3333)" />
      <path
         id="path73"
         d="m 17548.2,12571.1 h 0.2 z m -1139.2,2.7 596.7,-2384 520.5,2383.7 v 1584.4 H 16409 Z m 598.2,-2502.4 c -10.1,0 -18.9,6.8 -21.3,16.6 l -620.3,2477.7 c -0.4,1.8 -0.6,3.6 -0.6,5.4 v 1608.8 c 0,12.2 9.8,22 22,22 h 1161.2 c 12.2,0 22,-9.8 22,-22 v -1608.8 c 0,-1.6 -0.2,-3.2 -0.5,-4.7 l -541,-2477.7 c -2.2,-10 -11,-17.2 -21.2,-17.3 -0.1,0 -0.2,0 -0.3,0"
         style="fill:#000000;fill-opacity:1;fill-rule:nonzero;stroke:none"
         transform="matrix(0.13333333,0,0,-0.13333333,0,3333.3333)" />
      <path
         id="path74"
         d="m 16854.7,9401.3 c -1.6,0 -3.2,0.2 -4.8,0.5 -11.9,2.7 -19.4,14.4 -16.7,26.3 l 277.3,1241.4 c 2.6,11.8 14.5,19.3 26.2,16.6 11.9,-2.6 19.4,-14.4 16.7,-26.2 l -277.3,-1241.4 c -2.3,-10.2 -11.4,-17.2 -21.4,-17.2"
         style="fill:#000000;fill-opacity:1;fill-rule:nonzero;stroke:none"
         transform="matrix(0.13333333,0,0,-0.13333333,0,3333.3333)" />
      <path
         id="path75"
         d="m 18167.4,15453.3 c 113.7,-877.9 -485.6,-1895.2 -1142.3,-1895.2 -656.8,0 -1161.6,961.9 -1189.2,1846.7 -21.5,691.3 1666.5,1065 1715.1,1502.4 63,-422.2 513.8,-662.2 616.4,-1453.9"
         style="fill:#ffffff;fill-opacity:1;fill-rule:nonzero;stroke:none"
         transform="matrix(0.13333333,0,0,-0.13333333,0,3333.3333)" />
      <path
         id="path76"
         d="m 17546.5,16822 c -87.8,-167.8 -374.5,-322.6 -699.3,-497.9 -469.2,-253.4 -1001.1,-540.5 -989.3,-918.6 26.9,-863.4 512.8,-1825.4 1167.2,-1825.4 223.5,0 457,125.7 657.7,354 343.6,391.1 529.6,1000.5 462.8,1516.3 v 0 c -59.2,456.4 -232.3,723 -385,958.1 -92.7,142.6 -174.6,268.7 -214.1,413.5 z m -521.4,-3285.9 c -679.5,0 -1183.6,984.5 -1211.2,1868 -12.6,405.3 532,699.3 1012.4,958.7 351.3,189.6 683.1,368.7 702.8,546.8 1.2,11 10.4,19.4 21.5,19.6 10.9,0.5 20.5,-7.8 22.1,-18.8 25.6,-171.4 117.9,-313.5 224.8,-477.9 147.6,-227.3 331.3,-510.1 391.7,-976.4 v 0 c 68.4,-527.7 -121.9,-1151 -473.4,-1551 -209.1,-238 -454.4,-369 -690.7,-369"
         style="fill:#000000;fill-opacity:1;fill-rule:nonzero;stroke:none"
         transform="matrix(0.13333333,0,0,-0.13333333,0,3333.3333)" />
    </g>
  </g>
</svg>
